<?xml version="1.0" encoding="UTF-8" standalone="no"?>
<!-- Created with Inkscape (http://www.inkscape.org/) -->

<svg
   width="144mm"
   height="144mm"
   viewBox="0 0 144 144"
   version="1.1"
   id="svg1"
   xml:space="preserve"
   inkscape:version="1.3.2 (091e20e, 2023-11-25, custom)"
   sodipodi:docname="icon.svg"
   xmlns:inkscape="http://www.inkscape.org/namespaces/inkscape"
   xmlns:sodipodi="http://sodipodi.sourceforge.net/DTD/sodipodi-0.dtd"
   xmlns="http://www.w3.org/2000/svg"
   xmlns:svg="http://www.w3.org/2000/svg"><sodipodi:namedview
     id="namedview1"
     pagecolor="#ffffff"
     bordercolor="#000000"
     borderopacity="0.25"
     inkscape:showpageshadow="2"
     inkscape:pageopacity="0.0"
     inkscape:pagecheckerboard="0"
     inkscape:deskcolor="#d1d1d1"
     inkscape:document-units="mm"
     inkscape:export-bgcolor="#ffffff2c"
     inkscape:zoom="0.92737795"
     inkscape:cx="213.50519"
     inkscape:cy="393.04364"
     inkscape:window-width="3440"
     inkscape:window-height="1369"
     inkscape:window-x="-8"
     inkscape:window-y="-8"
     inkscape:window-maximized="1"
     inkscape:current-layer="layer1" /><defs
     id="defs1" /><g
     inkscape:label="Layer 1"
     inkscape:groupmode="layer"
     id="layer1"><g
       id="g17"
       transform="translate(-3.7493744,-2.531446)"><circle
         style="fill:#ffffff;fill-opacity:1;stroke:none;stroke-width:2.04"
         id="path16"
         cx="75.77034"
         cy="74.648674"
         r="72.020966"
         inkscape:export-filename="icon.png"
         inkscape:export-xdpi="96"
         inkscape:export-ydpi="96" /><g
         id="g16"
         transform="translate(-29.540863,-59.894819)"><path
           style="fill:#fdf3ca"
           d="m 96.25112,205.92454 c -1.47461,-0.19895 -2.70666,-0.374 -2.73787,-0.38899 -0.0312,-0.015 0.18824,-0.567 0.48769,-1.2267 0.29945,-0.65969 0.54724,-1.35447 0.55064,-1.54396 0.003,-0.18948 -3.68071,-5.44825 -8.18693,-11.68616 -4.50622,-6.2379 -8.15747,-11.44256 -8.11389,-11.56591 0.0774,-0.21912 12.43849,-8.45257 12.53245,-8.34761 0.0261,0.0292 2.16043,7.73659 4.74288,17.12753 2.58245,9.39095 4.7631,17.2967 4.84588,17.56834 0.17969,0.58963 -0.18,0.59517 -4.12085,0.0635 z m 20.53166,-1.61971 c -0.27164,-0.66074 -0.49389,-1.35965 -0.49389,-1.55313 0,-0.19348 3.62276,-5.36549 8.05057,-11.49335 4.42781,-6.12786 8.11577,-11.31151 8.19547,-11.51921 0.0953,-0.24826 -1.95358,-1.7725 -5.98058,-4.44924 l -6.1255,-4.0716 1.24613,-0.0919 c 0.68537,-0.0505 3.97663,-0.045 7.31391,0.0123 l 6.06778,0.10419 1.82398,0.66545 c 4.58365,1.67228 7.88597,4.53422 9.96366,8.63497 0.54435,1.07438 2.90834,6.50817 4.06021,9.33264 0.13632,0.33429 -3.41658,3.07103 -7.04739,5.42849 -5.09017,3.305 -13.18197,6.90831 -19.08448,8.49837 -2.25621,0.6078 -7.09454,1.71388 -7.45561,1.70442 -0.0222,-5.8e-4 -0.26262,-0.54167 -0.53426,-1.20241 z m 0.9311,-41.51278 0.0139,-3.99153 1.85914,-1.65043 c 4.03069,-3.5782 6.82487,-7.48304 9.69781,-13.55262 l 1.82086,-3.84686 1.12889,-0.0124 c 2.44016,-0.0269 4.7792,-1.43658 5.76605,-3.47514 0.69164,-1.42874 1.53185,-7.62792 1.24863,-9.21252 -0.39274,-2.19732 -1.88356,-4.11058 -3.83968,-4.9277 -0.75168,-0.314 -1.06782,-0.62499 -1.09107,-1.07331 -0.0252,-0.48539 -0.0628,-0.51597 -0.16276,-0.13239 -0.15737,0.60378 0.15357,0.86937 -9.77826,-8.35203 l -7.24237,-6.72432 -5.92638,5.54669 -5.92638,5.54669 V 101.99386 87.053551 l 2.18722,-0.999093 c 10.00311,-4.569232 20.127,-5.497811 27.8545,-2.554851 2.37931,0.906141 4.89437,2.300764 6.78828,3.764154 1.95894,1.51365 4.30049,3.9446 3.79939,3.94446 -0.61695,-1.7e-4 -15.86768,2.27647 -16.35828,2.44198 -0.2411,0.0813 0.54857,0.54317 1.83444,1.07285 8.00511,3.29752 13.04094,6.492229 18.16116,11.521339 5.0225,4.93313 8.36354,10.68787 9.75498,16.80234 l 0.40546,1.78173 -0.75525,-0.15989 c -13.84448,-2.93084 -17.96378,-3.78662 -18.00805,-3.74114 -0.0296,0.0304 0.63201,1.0935 1.47033,2.36237 3.88711,5.88345 6.99944,13.38414 7.83872,18.8912 l 0.17685,1.16044 -3.14344,0.6263 c -5.01517,0.99922 -14.32651,3.77426 -16.55873,4.93497 l -0.65797,0.34213 1.88479,1.10227 c 2.2811,1.33404 4.75108,3.90702 5.99282,6.24271 0.50447,0.94891 0.91722,1.85039 0.91722,2.00329 0,0.1529 -0.3607,0.35014 -0.80155,0.43831 -1.70984,0.34196 -12.52179,4.29907 -16.34345,5.9816 l -4.02167,1.77058 z m -6.94391,-8.38522 c -1.59076,-0.20954 -4.07663,-1.20873 -4.07663,-1.63859 0,-0.15315 -0.28575,-0.31904 -0.635,-0.36865 l -0.635,-0.0902 -0.0815,-2.13554 -0.0815,-2.13553 1.49666,-0.75724 c 1.60788,-0.81352 3.50947,-0.99086 4.92741,-0.45954 0.43697,0.16374 2.02746,0.99966 3.53443,1.85761 1.50697,0.85795 3.57746,1.85256 4.6011,2.21025 1.02363,0.35768 1.91953,0.70871 1.99087,0.78006 0.22719,0.22719 -3.62268,1.87148 -5.38081,2.29815 -2.22027,0.53882 -3.90899,0.66986 -5.66003,0.4392 z m -0.88487,-11.98454 c -1.78369,-0.88885 -2.61195,-2.08165 -3.61897,-5.21177 -0.42448,-1.31939 -0.883,-2.51954 -1.01895,-2.667 C 105.11123,134.39606 105,133.72931 105,133.06186 c 0,-1.00927 0.0914,-1.21356 0.5428,-1.21356 1.20172,0 2.20464,1.32636 3.15111,4.16733 1.5093,4.53038 1.89975,4.71422 9.62328,4.53121 5.04164,-0.11946 5.73958,-0.3077 7.08964,-1.91216 0.91546,-1.08797 1.09885,-2.58445 0.98727,-8.05638 l -0.0863,-4.23333 -10.65389,-0.0739 -10.65389,-0.0739 v -0.98449 -0.98438 h 11.99445 11.99444 v 6.74111 6.7411 l -0.78817,1.50874 c -0.88093,1.68628 -2.61974,3.17608 -4.2284,3.62284 -0.57816,0.16058 -3.66152,0.29266 -6.8519,0.29352 l -5.8007,0.002 z"
           id="path13" /><path
           style="fill:#fdd9a8"
           d="m 102.17778,163.44608 c -4.75319,-1.22265 -10.02114,-4.53188 -13.91733,-8.74258 -3.11224,-3.36347 -6.8949,-9.53236 -8.51996,-13.89464 L 79.2411,139.4683 h -1.38183 c -2.45494,0 -4.49871,-1.26019 -5.63859,-3.47675 -0.35433,-0.68902 -0.70326,-2.35093 -0.96724,-4.60678 -0.44901,-3.83709 -0.30985,-5.03165 0.79656,-6.83792 0.62901,-1.0269 2.82665,-2.57633 3.65415,-2.57633 0.28005,0 0.50919,-0.10398 0.50919,-0.23106 0,-0.31655 16.34242,-15.43227 16.68466,-15.43227 0.15063,0 2.93521,2.46665 6.18794,5.48145 L 105,117.27009 v 1.78274 1.78274 l -12.065,0.0736 -12.065,0.0736 0.007,8.32556 c 0.008,9.30279 0.0199,9.37392 2.01191,11.58516 1.87133,2.07732 2.83397,2.34528 8.88723,2.47389 9.05177,0.19231 10.27898,-0.4537 12.37761,-6.51563 l 0.80397,-2.32231 0.0212,6.70278 c 0.0117,3.68653 -0.0263,6.70278 -0.0843,6.70278 -0.0581,0 -0.71013,-0.3379 -1.44904,-0.75089 -1.96632,-1.09899 -4.01484,-1.07262 -6.22389,0.0802 -6.00484,3.13354 -7.30697,3.74714 -8.31224,3.91698 -0.61865,0.10452 -1.12482,0.28707 -1.12482,0.40567 0,0.37945 3.77301,1.97007 6.06126,2.55531 1.21742,0.31136 2.93211,0.56611 3.81044,0.56611 1.68248,0 4.22895,-0.62202 5.29775,-1.29406 0.34925,-0.2196 0.9525,-0.60438 1.34055,-0.85507 l 0.70556,-0.45579 v 5.95913 c 0,4.58744 -0.0812,5.95555 -0.35278,5.94358 -0.19403,-0.009 -1.30528,-0.26055 -2.46944,-0.56001 z"
           id="path12" /><path
           style="fill:#fdc372"
           d="m 93.14667,165.15052 c 0,-3.10444 0.0756,-5.64444 0.1681,-5.64444 0.0925,0 0.50521,0.23806 0.91722,0.52902 2.02057,1.42691 6.52057,3.28334 9.56857,3.94743 L 105,164.24386 v -6.03778 c 0,-3.32078 0.0571,-6.03778 0.12697,-6.03778 0.0698,0 0.67308,0.36747 1.34055,0.8166 2.35637,1.58556 5.32705,2.0613 8.85232,1.41764 1.82078,-0.33244 4.73,-1.41012 6.28769,-2.32918 l 0.9816,-0.57915 -1.38623,-0.32562 c -1.80274,-0.42344 -4.07154,-1.45845 -6.71621,-3.06387 -3.36456,-2.04243 -5.44364,-2.26056 -8.04057,-0.8436 -0.67924,0.37061 -1.28249,0.67385 -1.34055,0.67385 -0.0581,0 -0.10557,-0.635 -0.10557,-1.41111 v -1.41112 h 3.24556 3.24556 l 2.8e-4,-0.91722 2.8e-4,-0.91722 h 5.99694 5.99694 l 1.27317,-0.58932 c 1.62187,-0.75073 3.03122,-2.16009 3.78195,-3.78196 l 0.58932,-1.27316 0.0894,-8.39612 0.0894,-8.39611 h -12.15442 -12.15443 l 0.004,-1.76388 0.004,-1.76389 5.9463,-5.50334 c 3.27046,-3.02683 6.06049,-5.50333 6.20007,-5.50333 0.13958,0 4.02008,3.4925 8.62334,7.76111 5.17054,4.79465 8.70516,7.86482 9.24761,8.03245 0.48292,0.14924 1.45602,0.84817 2.16244,1.55318 1.84095,1.83728 2.14455,3.10842 1.71011,7.16007 -0.42529,3.96621 -0.67736,4.90619 -1.69087,6.30531 -1.01141,1.39621 -2.50336,2.14799 -4.64647,2.34131 l -1.64951,0.14879 -1.32243,2.96333 c -3.15824,7.07703 -7.39769,12.66458 -12.54534,16.53464 -2.87115,2.15857 -7.48803,4.22523 -10.70266,4.79085 l -1.05833,0.18622 v 3.35526 3.35526 h -6.06778 -6.06778 z"
           id="path11" /><path
           style="fill:#fddd46"
           d="m 110.18784,205.86108 c 0.0802,-0.27164 2.25487,-8.1739 4.83254,-17.56056 2.57767,-9.38667 4.71397,-17.09398 4.74735,-17.12735 0.12166,-0.12166 12.46031,8.06924 12.54696,8.32919 0.0491,0.14732 -3.60011,5.37503 -8.10937,11.61714 -4.50926,6.24211 -8.19865,11.45114 -8.19865,11.57564 0,0.1245 0.24899,0.80723 0.55331,1.51718 l 0.55331,1.29081 -0.62387,0.14097 c -0.78655,0.17773 -5.23181,0.71086 -5.92714,0.71086 -0.36296,0 -0.4762,-0.14936 -0.37444,-0.49388 z"
           id="path10" /><path
           style="fill:#48baec"
           d="m 86.51445,139.92496 c -1.14389,-0.51974 -2.0726,-1.57674 -2.40563,-2.73794 -0.15151,-0.5283 -0.27548,-3.15214 -0.27548,-5.83075 v -4.87019 H 94.41667 105 v 2.5094 2.50941 l -0.6597,0.16557 c -1.43045,0.35902 -2.0953,1.24469 -3.02164,4.02522 -0.5342,1.60348 -1.22598,3.07355 -1.69191,3.59539 l -0.78821,0.88279 -5.73871,0.0679 c -4.36153,0.0516 -5.9419,-0.0244 -6.58538,-0.31679 z"
           id="path9" /><path
           style="fill:#fea81e"
           d="m 105.28223,167.56029 v -3.23468 l 1.19944,-0.30853 c 3.62705,-0.93298 7.44594,-2.55097 10.01889,-4.24482 l 0.91722,-0.60383 v 5.81327 5.81327 H 111.35 105.28223 Z m 0.0137,-27.45699 0.0137,-4.72722 0.81733,2.1992 c 0.44954,1.20957 1.08941,2.63944 1.42195,3.1775 0.61914,1.00178 2.63304,2.38441 3.47307,2.38441 0.33307,0 0.4691,0.24551 0.4691,0.84667 v 0.84666 h -3.10445 -3.10444 z"
           id="path8" /><path
           style="fill:#00d8de"
           d="m 102.20996,206.37952 -1.52005,-0.16567 -4.74946,-17.21555 c -2.6122,-9.46856 -4.75393,-17.37431 -4.7594,-17.56833 -0.008,-0.27308 1.58403,-0.35278 7.04562,-0.35278 h 7.05556 v 17.78 17.78 l -0.77611,-0.046 c -0.42687,-0.0253 -1.46014,-0.12055 -2.29616,-0.21166 z"
           id="path7" /><path
           style="fill:#3485fd"
           d="m 56.70737,187.59493 c -8.74606,-7.79491 -15.97403,-18.96239 -19.82403,-30.62885 -2.58351,-7.82865 -3.56315,-14.03611 -3.56315,-22.57778 0,-8.53473 0.97788,-14.73683 3.55979,-22.57778 7.1126,-21.600009 24.22445,-38.711869 45.82447,-45.824465 7.84094,-2.581917 14.04305,-3.55979 22.57778,-3.55979 8.53473,0 14.73683,0.977873 22.57777,3.55979 15.38549,5.066235 28.52947,15.146734 37.67121,28.891136 4.2267,6.354759 8.4171,16.107119 9.99317,23.257209 l 0.55413,2.51388 -16.98314,-16.93095 c -9.34073,-9.312019 -17.61814,-17.340202 -18.39426,-17.84039 -2.1809,-1.405556 -4.55849,-2.481785 -7.33777,-3.321487 l -2.54,-0.767408 -5.22111,-0.0171 c -4.02181,-0.01317 -5.77215,0.100397 -7.62,0.494398 -3.16363,0.674551 -7.70356,2.199338 -10.62619,3.568928 L 105,86.938351 102.67167,85.854423 c -2.97445,-1.384713 -7.58424,-2.938381 -10.65389,-3.59075 -3.66629,-0.779169 -11.76101,-0.70675 -14.76828,0.132124 -4.60231,1.283809 -8.14978,3.295521 -11.61379,6.585994 l -2.15388,2.04598 3.56465,3.57258 3.56465,3.57257 -3.19612,2.141669 c -6.57818,4.40793 -10.72752,8.82278 -13.98759,14.8826 -1.26626,2.35373 -2.75705,6.51872 -3.0305,8.46667 l -0.17828,1.27 5.49151,5.47369 5.4915,5.47369 -0.40991,1.15853 c -0.46729,1.32069 -0.89582,3.10217 -1.20592,5.0132 l -0.21333,1.31467 6.42965,6.24188 6.42965,6.24188 -0.723,1.43947 -0.723,1.43946 6.02743,6.03232 6.02742,6.03232 -2.96087,0.004 c -5.6616,0.008 -9.43229,1.50463 -13.12087,5.20793 -1.9389,1.94663 -2.48302,2.72517 -3.85253,5.51234 -0.87711,1.78505 -2.01793,4.3568 -2.53515,5.715 -0.51721,1.35819 -1.02077,2.46944 -1.119,2.46944 -0.0982,0 -1.24342,-0.94901 -2.54485,-2.10892 z"
           id="path6" /><path
           style="fill:#0099e4"
           d="m 111.33657,139.92922 c -1.12617,-0.50493 -1.57203,-1.23621 -2.51791,-4.12981 -0.85019,-2.60084 -1.74801,-3.82339 -3.01165,-4.10093 L 105,131.52123 v -2.51758 -2.51757 h 10.60011 10.6001 l -0.0873,5.48356 -0.0873,5.48357 -0.58188,0.77844 c -0.32004,0.42814 -0.93224,1.04029 -1.36044,1.36032 l -0.77856,0.58189 -5.55401,0.0705 c -4.2126,0.0535 -5.76173,-0.0226 -6.4141,-0.31514 z"
           id="path5" /><path
           style="fill:#394ce2"
           d="m 81.01112,122.53497 v -1.41111 H 93.00556 105 v 1.41111 1.41111 H 93.00556 81.01112 Z"
           id="path4" /><path
           style="fill:#00979b"
           d="m 105.28223,188.86896 v -17.79177 h 7.05555 c 3.88056,0 7.05556,0.1044 7.05556,0.23201 0,0.35472 -9.49488,34.75899 -9.62378,34.87134 -0.0621,0.0541 -1.09714,0.1843 -2.30011,0.28929 l -2.18722,0.19089 z"
           id="path3" /><path
           style="fill:#1b2ddd"
           d="m 105,122.53497 v -1.41111 h 11.99445 11.99444 v 1.41111 1.41111 H 116.99445 105 Z"
           id="path2" /><path
           style="fill:#094bac"
           d="m 150.49546,188.22219 c -0.33585,-0.81492 -0.87113,-2.24316 -1.18951,-3.17388 -1.65294,-4.83197 -5.58559,-10.01139 -9.02817,-11.89037 -3.83909,-2.0954 -5.51843,-2.36297 -14.83056,-2.36297 H 117.7 v -1.85371 -1.85371 l 2.61056,-1.2133 c 3.65241,-1.69751 8.27938,-3.47702 13.97818,-5.37596 l 4.87652,-1.62493 -0.18084,-0.60086 c -0.75271,-2.50091 -4.12764,-6.49841 -6.83979,-8.10152 l -1.70795,-1.00955 2.82923,-1.04628 c 3.35096,-1.23923 9.64347,-3.0016 13.7852,-3.8609 1.62984,-0.33814 3.11518,-0.65768 3.30076,-0.71007 0.41577,-0.11739 0.25787,-1.27236 -0.67297,-4.92255 -1.24184,-4.86974 -4.10494,-11.07971 -7.29135,-15.81469 -0.54775,-0.81395 -0.96078,-1.50673 -0.91784,-1.53951 0.0429,-0.0328 4.14207,0.80589 9.10918,1.86371 4.96711,1.05783 9.06286,1.92793 9.10167,1.93357 0.25979,0.0378 -0.0376,-1.71166 -0.65246,-3.83873 -2.92962,-10.13411 -10.67776,-18.50282 -22.70143,-24.519689 -1.78506,-0.89328 -4.00756,-1.91136 -4.93889,-2.2624 l -1.69333,-0.63827 1.27,-0.1887 c 0.6985,-0.10378 4.445,-0.67149 8.32555,-1.26156 l 7.05556,-1.07286 14.76344,14.709009 c 8.11989,8.08996 14.87028,14.89982 15.00086,15.13302 0.56334,1.00605 1.1947,7.95462 1.19236,13.12266 -0.008,16.92042 -5.18091,31.83274 -15.65624,45.13036 -2.38449,3.02693 -9.58206,10.3263 -10.18227,10.3263 -0.19669,0 -0.6324,-0.66675 -0.96825,-1.48166 z M 77.33965,164.99344 c -4.6531,-4.66804 -5.61756,-5.76227 -4.93631,-5.60055 3.18089,0.75511 14.79292,5.16805 18.46512,7.01734 l 1.99599,1.00516 v 1.68979 1.68979 h -4.87092 -4.87091 z m -11.28631,-15.38219 -6.06778,-5.92978 1.27,0.18441 c 3.54441,0.51464 13.80041,3.45115 17.46409,5.00034 l 0.95409,0.40343 -1.3229,0.66069 c -1.59258,0.79538 -4.40783,3.28722 -5.24594,4.64331 -0.33357,0.53973 -0.69138,0.97818 -0.79513,0.97435 -0.10376,-0.004 -2.91915,-2.67537 -6.25643,-5.93675 z m -10.1553,-19.31047 c -2.85969,-2.86283 -5.14188,-5.25173 -5.07152,-5.30867 0.0704,-0.0569 3.93793,-0.89526 8.5946,-1.86294 4.65666,-0.96767 8.68024,-1.82054 8.94128,-1.89526 0.31522,-0.0902 0.0156,0.55565 -0.89213,1.92316 -1.72481,2.59845 -4.24821,7.38753 -5.24865,9.96123 -0.42236,1.08656 -0.84808,2.06827 -0.94603,2.18159 -0.0979,0.11333 -2.51785,-2.13627 -5.37755,-4.99911 z M 67.46445,94.736081 c -1.77999,-1.78506 -3.07435,-3.24556 -2.87635,-3.24556 0.19799,0 3.73049,0.508 7.84999,1.12889 4.1195,0.62089 7.57493,1.13441 7.67874,1.14115 0.1038,0.007 -0.82727,0.43111 -2.06905,0.94303 -1.24177,0.51192 -3.3027,1.4589 -4.57984,2.1044 -1.27714,0.64551 -2.42221,1.17364 -2.54461,1.17364 -0.12239,0 -1.67889,-1.4605 -3.45888,-3.24555 z"
           id="path1" /></g></g><path
       style="fill:#3485fd"
       d="m 476.32532,142.934 c -8.74606,-7.79491 -15.97403,-18.96239 -19.82403,-30.62885 -2.58351,-7.82865 -3.56315,-14.036114 -3.56315,-22.577784 0,-8.53473 0.97788,-14.736832 3.55979,-22.577782 7.1126,-21.600008 24.22445,-38.711869 45.82447,-45.824465 7.84094,-2.581917 14.04305,-3.55979 22.57778,-3.55979 8.53473,0 14.73683,0.977873 22.57777,3.55979 15.38549,5.066235 28.52947,15.146735 37.67121,28.891137 4.2267,6.354758 8.4171,16.107118 9.99317,23.257208 l 0.55413,2.51388 -16.98314,-16.93095 c -9.34073,-9.312018 -17.61814,-17.340201 -18.39426,-17.840389 -2.1809,-1.405556 -4.55849,-2.481785 -7.33777,-3.321487 l -2.54,-0.767408 -5.22111,-0.0171 c -4.02181,-0.01317 -5.77215,0.100397 -7.62,0.494398 -3.16363,0.674551 -7.70356,2.199338 -10.62619,3.568928 l -2.35604,1.10408 -2.32833,-1.083928 c -2.97445,-1.384713 -7.58424,-2.938381 -10.65389,-3.59075 -3.66629,-0.779169 -11.76101,-0.70675 -14.76828,0.132124 -4.60231,1.283809 -8.14978,3.295521 -11.61379,6.585994 l -2.15388,2.04598 3.56465,3.57258 3.56465,3.57257 -3.19612,2.141668 c -6.57818,4.40793 -10.72752,8.82278 -13.98759,14.8826 -1.26626,2.35373 -2.75705,6.51872 -3.0305,8.46667 l -0.17828,1.27 5.49151,5.473692 5.4915,5.47369 -0.40991,1.15853 c -0.46729,1.32069 -0.89582,3.10217 -1.20592,5.0132 l -0.21333,1.31467 6.42965,6.241884 6.42965,6.24188 -0.723,1.43947 -0.723,1.43946 6.02743,6.03232 6.02742,6.03232 -2.96087,0.004 c -5.6616,0.008 -9.43229,1.50463 -13.12087,5.20793 -1.9389,1.94663 -2.48302,2.72517 -3.85253,5.51234 -0.87711,1.78505 -2.01793,4.3568 -2.53515,5.715 -0.51721,1.35819 -1.02077,2.46944 -1.119,2.46944 -0.0982,0 -1.24342,-0.94901 -2.54485,-2.10892 z"
       id="path15" /></g></svg>
