<?xml version="1.0" encoding="UTF-8" standalone="no"?>
<!-- Created with Inkscape (http://www.inkscape.org/) -->

<svg
   width="144mm"
   height="144mm"
   viewBox="0 0 144 144"
   version="1.1"
   id="svg1"
   xml:space="preserve"
   inkscape:version="1.3.2 (091e20e, 2023-11-25, custom)"
   sodipodi:docname="icon.svg"
   xmlns:inkscape="http://www.inkscape.org/namespaces/inkscape"
   xmlns:sodipodi="http://sodipodi.sourceforge.net/DTD/sodipodi-0.dtd"
   xmlns="http://www.w3.org/2000/svg"
   xmlns:svg="http://www.w3.org/2000/svg"><sodipodi:namedview
     id="namedview1"
     pagecolor="#ffffff"
     bordercolor="#000000"
     borderopacity="0.25"
     inkscape:showpageshadow="2"
     inkscape:pageopacity="0.0"
     inkscape:pagecheckerboard="0"
     inkscape:deskcolor="#d1d1d1"
     inkscape:document-units="mm"
     inkscape:export-bgcolor="#ffffff2c"
     inkscape:zoom="0.70710678"
     inkscape:cx="692.96464"
     inkscape:cy="369.10974"
     inkscape:window-width="1718"
     inkscape:window-height="1360"
     inkscape:window-x="-7"
     inkscape:window-y="0"
     inkscape:window-maximized="0"
     inkscape:current-layer="layer4"
     showgrid="false"
     showguides="true" /><defs
     id="defs1" /><g
     inkscape:groupmode="layer"
     id="layer4"
     inkscape:label="Layer 4"><path
       id="rect72"
       style="display:none;fill:#ffffff;fill-opacity:1;stroke:none;stroke-width:0.600001;stroke-linecap:round;stroke-linejoin:round"
       d="m -588.98622,-13.012531 0.0894,8.396387 c 0,0 0.0894,4.301322 0.0894,8.39587 0,4.094548 2.60776,5.644617 5.64462,5.644617 h 5.99653 5.99705 c 2.99712,0 6.48797,-3.563564 6.48797,-8.979814 0,5.41625 3.49086,8.979814 6.48798,8.979814 h 5.99705 5.99653 c 3.03686,0 5.64462,-1.550069 5.64462,-5.644617 0,-4.094548 0.0894,-8.39587 0.0894,-8.39587 l 0.0894,-8.396387 h -12.1543 -12.15068 -12.15067 z" /><path
       id="path76"
       style="display:none;fill:#7620c1;fill-opacity:1;stroke:none;stroke-width:0.600001;stroke-linecap:round;stroke-linejoin:round"
       d="m -588.98622,-13.012531 0.0346,3.228743 h 48.54071 l 0.0346,-3.228743 h -12.15429 -12.15068 -12.15068 z" /><path
       style="display:none;fill:#7e22ce;fill-opacity:1"
       d="m -558.78294,6.3718768 c -1.12617,-0.50493 -1.57203,-1.23621 -2.51791,-4.12981 -0.85019,-2.60083998 -1.74801,-3.82339 -3.01165,-4.10093 l -0.80701,-0.17725 v -2.5175797 -2.517569 h 10.60011 10.6001 l -0.0873,5.4835587 -0.0873,5.48357 -0.58188,0.77844 c -0.32004,0.42814 -0.93224,1.04029 -1.36044,1.36032 l -0.77856,0.58189 -5.55401,0.0705 c -4.2126,0.0535 -5.76173,-0.0226 -6.4141,-0.31514 z"
       id="path77" /><path
       style="display:none;fill:#a75de5;fill-opacity:1"
       d="m -571.45608,6.3718772 c 1.12617,-0.50493 1.57203,-1.23621 2.51791,-4.12981 0.85019,-2.60084038 1.74801,-3.8233904 3.01165,-4.1009304 l 0.80701,-0.17725 v -2.5175797 -2.517569 h -10.60011 -10.6001 l 0.0873,5.4835587 0.0873,5.4835704 0.58188,0.77844 c 0.32004,0.42814 0.93224,1.04029 1.36044,1.36032 l 0.77856,0.58189 5.55401,0.0705 c 4.2126,0.0535 5.76173,-0.0226 6.4141,-0.31514 z"
       id="path78" /><circle
       style="display:inline;fill:#7e22ce;fill-opacity:1;stroke-width:0.822139;stroke-linecap:round;stroke-linejoin:round"
       id="circle46"
       cx="72"
       cy="71.953041"
       r="72.424438" /><path
       id="path92"
       style="display:inline;fill:#471373;fill-opacity:1;stroke-width:0.822139;stroke-linecap:round;stroke-linejoin:round"
       inkscape:label="purple_shadow"
       d="M 71.99974 24.375773 L 30.19919 28.33057 L 37.704159 35.499125 L 16.935917 62.237028 C 16.935917 62.237028 24.326274 69.480845 27.919226 73.184163 L 26.08988 80.670528 L 32.623848 86.867049 C 35.961072 90.128415 38.846724 93.326603 38.846724 93.326603 L 37.503137 96.033415 L 49.586637 107.9438 L 46.63798 107.94742 C 40.976462 107.95542 37.205896 109.45211 33.517334 113.15537 C 31.578488 115.10198 31.034324 115.88054 29.664856 118.66769 C 28.787748 120.45273 27.64681 123.0244 27.12961 124.38259 C 26.612402 125.74075 26.109045 126.85221 26.010815 126.85221 L 25.720911 127.23461 C 38.711725 138.10461 55.101948 144.07746 72.040564 144.1142 L 72.919063 144.3116 A 72.424438 72.424438 0 0 0 144.42426 71.953231 A 72.424438 72.424438 0 0 0 142.82281 57.255937 L 113.80029 28.33057 L 86.456738 27.280505 L 72.006974 42.077535 L 71.99974 24.375773 z " /><path
       id="path58"
       style="display:inline;fill:#fdddca;fill-opacity:1;stroke-width:0.822139;stroke-linecap:round;stroke-linejoin:round"
       d="m 92.89588,19.025559 c 2.85786,0.02557 5.6334,0.253391 7.13703,0.672827 4.60228,1.283802 8.14975,3.295701 11.61376,6.586162 l 2.15387,2.04587 c 0,0 -6.26513,-0.125951 -9.01025,0.371526 -2.74512,0.497477 -4.28796,0.989993 -7.4368,2.468097 -0.1038,0.007 0.82734,0.431175 2.06912,0.943095 1.24177,0.511919 2.53419,0.99696 4.57957,2.104264 2.04538,1.107304 4.13814,2.316762 6.73901,4.059554 2.60087,1.742792 9.85345,8.163255 13.11352,14.223051 1.26626,2.353722 2.75737,6.518723 3.03082,8.466667 l 0.17829,1.270206 -0.42013,0.164848 c -0.0704,-0.0569 -3.93816,-0.895256 -8.59483,-1.862935 -4.65665,-0.967669 -8.68001,-1.820772 -8.94105,-1.895492 -0.31522,-0.0902 -0.0158,0.555888 0.89193,1.923397 1.72481,2.598447 3.58904,5.987224 5.24878,9.961148 1.65974,3.973924 2.10077,6.689517 2.66133,10.142534 l -0.4346,0.422196 -1.26038,0.182935 c -3.54441,0.514639 -13.80038,3.451024 -17.46405,5.000212 l -0.95447,0.403593 1.32292,0.660425 c 1.59258,0.795379 4.33747,3.627848 4.76075,4.170817 0.42329,0.542969 0.8753,1.179752 1.17015,1.643815 0.29485,0.464063 0.72347,1.439189 0.72347,1.439189 l 0.72296,1.439705 -1.42989,0.768945 c -3.18089,0.75511 -14.79283,5.16837 -18.46502,7.01766 l -1.99575,1.0051 v 1.68982 1.68982 h 4.87051 4.87102 l 0.10645,-0.10697 2.94866,0.004 c 5.66159,0.008 9.43207,1.50467 13.12064,5.20795 1.9389,1.94663 2.48297,2.72516 3.85248,5.51233 0.87711,1.78504 2.01805,4.3567 2.53525,5.71489 0.51721,1.35818 1.02056,2.46962 1.11879,2.46962 l 0.28991,0.38241 c -12.9909,10.87007 -29.38093,16.84285 -46.31966,16.87959 V 127.00656 24.10897 l 0.28216,0.132292 2.32854,-1.084172 c 2.97444,-1.384706 7.58396,-2.938113 10.65361,-3.590478 1.83314,-0.389584 4.77373,-0.566621 7.63158,-0.541053 z"
       sodipodi:nodetypes="sssczcszzssccssszccsscczzcccsccccccsssscccccccss" /><path
       id="path55"
       style="display:inline;fill:#ffffff;fill-opacity:1;stroke-width:0.822139;stroke-linecap:round;stroke-linejoin:round"
       d="m 51.1041,19.025559 c -2.85786,0.02557 -5.6334,0.253391 -7.13703,0.672827 -4.60228,1.283802 -8.14975,3.295701 -11.61376,6.586162 l -2.15387,2.04587 0.91829,0.569474 c 0.19799,0 3.73067,0.508241 7.85016,1.12913 4.1195,0.620889 7.57479,1.134276 7.6786,1.141016 0.1038,0.007 -0.82734,0.431175 -2.06912,0.943095 -1.24177,0.511919 -2.53419,0.99696 -4.57957,2.104264 -2.04538,1.107304 -4.13814,2.316762 -6.73901,4.059554 -2.60087,1.742792 -9.85345,8.163255 -13.11352,14.223051 -1.26626,2.353722 -2.75737,6.518723 -3.03082,8.466667 l -0.17829,1.270206 0.42013,0.164848 c 0.0704,-0.0569 3.93816,-0.895256 8.59483,-1.862935 4.65665,-0.967669 8.68001,-1.820772 8.94105,-1.895492 0.31522,-0.0902 0.0158,0.555888 -0.89193,1.923397 -1.72481,2.598447 -3.83855,6.228865 -4.83899,8.802563 l -1.24178,3.814754 c -0.37632,1.540064 -0.17233,0.705245 -0.76038,3.111764 -0.58805,2.406519 -1.06896,4.374601 -1.06896,4.374601 l 0.4346,0.422196 1.26038,0.182935 c 3.54441,0.514639 13.80038,3.451024 17.46405,5.000212 l 0.95447,0.403593 -1.32292,0.660425 c -1.59258,0.795379 -4.33747,3.627848 -4.76075,4.170817 -0.42329,0.542969 -0.8753,1.179752 -1.17015,1.643815 -0.29485,0.464063 -0.72347,1.439189 -0.72347,1.439189 l -0.72296,1.439705 1.42989,0.768945 c 3.18089,0.75511 14.79283,5.168373 18.46502,7.017663 l 1.99575,1.0051 v 1.68982 1.68982 h -4.87051 -4.87102 l -0.10645,-0.10697 -2.94866,0.004 c -5.66159,0.008 -9.43207,1.50467 -13.12064,5.20795 -1.9389,1.94663 -2.48297,2.72516 -3.85248,5.51233 -0.87711,1.78504 -2.01805,4.3567 -2.53525,5.71489 -0.51721,1.35818 -1.02056,2.46962 -1.11879,2.46962 l -0.28991,0.38241 c 12.9909,10.87007 29.38093,16.84285 46.31966,16.87959 V 127.00656 24.10897 L 71.71783,24.241262 69.38929,23.15709 C 66.41485,21.772384 61.80533,20.218977 58.73568,19.566612 56.90254,19.177028 53.96195,18.999991 51.1041,19.025559 Z"
       sodipodi:nodetypes="sssccscszzssccssscczccsscczzcccsccccccsssscccccccss" /><path
       style="display:inline;fill:#fd6046;fill-opacity:1"
       d="m 76.87685,143.57578 c 0.0802,-0.27164 2.25487,-8.1739 4.83254,-17.56055 2.57767,-9.38668 4.71397,-17.09399 4.74735,-17.12736 0.12166,-0.12166 12.46031,8.06924 12.54696,8.32919 0.0491,0.14732 -3.60011,5.37504 -8.10937,11.61714 -4.50926,6.24211 -8.19865,11.45114 -8.19865,11.57565 0,0.12449 0.24899,0.80723 0.55331,1.51718 l 0.55331,1.2908 -0.62387,0.14097 c -0.78655,0.17773 -5.23181,0.71086 -5.92714,0.71086 -0.36296,0 -0.4762,-0.14936 -0.37444,-0.49388 z"
       id="path48" /><path
       style="display:inline;fill:#852385;fill-opacity:1"
       d="m 71.97124,126.67964 v -17.79177 h 7.05555 c 3.88056,0 7.05556,0.1044 7.05556,0.23201 0,0.35472 -9.49488,34.75899 -9.62378,34.87134 -0.0621,0.0541 -1.09714,0.1843 -2.30011,0.28929 l -2.18722,0.19089 z"
       id="path50" /><path
       style="display:inline;fill:#fdddca;fill-opacity:1"
       d="m 67.06563,143.57578 c -0.0802,-0.27164 -2.25487,-8.1739 -4.83254,-17.56055 -2.57767,-9.38668 -4.71397,-17.09399 -4.74735,-17.12736 -0.12166,-0.12166 -12.46031,8.06924 -12.54696,8.32919 -0.0491,0.14732 3.60011,5.37504 8.10937,11.61714 4.50926,6.24211 8.19865,11.45114 8.19865,11.57565 0,0.12449 -0.24899,0.80723 -0.55331,1.51718 l -0.55331,1.2908 0.62387,0.14097 c 0.78655,0.17773 5.23181,0.71086 5.92714,0.71086 0.36296,0 0.4762,-0.14936 0.37444,-0.49388 z"
       id="path53" /><path
       style="display:inline;fill:#c624d7;fill-opacity:1"
       d="m 71.97124,126.67964 v -17.79177 h -7.05555 c -3.88056,0 -7.05556,0.1044 -7.05556,0.23201 0,0.35472 9.49488,34.75899 9.62378,34.87134 0.0621,0.0541 1.09714,0.1843 2.30011,0.28929 l 2.18722,0.19089 z"
       id="path54" /><path
       style="display:inline;fill:#fdc372"
       d="m 59.83571,103.24343 c 0,-3.10445 0.0756,-5.644447 0.1681,-5.644447 0.0925,0 0.50521,0.23806 0.91722,0.52902 2.02057,1.42691 6.52057,3.283347 9.56857,3.947427 l 1.48165,0.29286 v 3.16432 3.35526 h -6.06778 -6.06778 z"
       id="path61"
       sodipodi:nodetypes="sssscccccs" /><path
       style="display:inline;fill:#fea81e;fill-opacity:1"
       d="m 84.10679,103.24343 c 0,-3.10445 -0.0756,-5.644447 -0.1681,-5.644447 -0.0925,0 -0.50521,0.23806 -0.91722,0.52902 -2.02057,1.42691 -6.52057,3.283347 -9.56857,3.947427 l -1.48165,0.29286 v 3.16432 3.35526 h 6.06778 6.06778 z"
       id="path62"
       sodipodi:nodetypes="sssscccccs" /><path
       style="display:inline;fill:#fdd9a8"
       d="m 69.47282,101.80966 c -4.75319,-1.22264 -10.02114,-4.53187 -13.91733,-8.742571 -3.11224,-3.36347 -6.8949,-9.53236 -8.51996,-13.894641 l -0.49939,-1.34056 h -1.38183 c -2.45494,0 -4.49871,-1.26019 -5.63859,-3.47675 -0.35433,-0.68902 -0.70326,-2.35093 -0.96724,-4.60678 -0.44901,-3.837089 -0.30985,-5.031649 0.79656,-6.837919 0.62901,-1.0269 2.82665,-2.576331 3.65415,-2.576331 0.28005,0 0.50919,-0.10398 0.50919,-0.23106 0,-0.31655 16.34242,-15.432268 16.68466,-15.432268 0.15063,0 3.01621,2.381547 6.18794,5.481449 l 5.59022,5.428541 v 1.782739 1.782739 l -11.74116,0.126509 -12.065,0.0736 0.007,8.325561 c 0.008,9.302789 0.0199,9.373919 2.01191,11.585159 1.87133,2.07732 2.83398,2.34528 8.88723,2.47389 9.05177,0.19231 11.06021,-0.208461 12.40636,-6.480551 L 71.9712,72.950323 72,79.648718 v 6.542299 c 0,0 -0.49168,-0.195249 -1.23059,-0.608239 -1.96632,-1.09899 -4.01484,-1.07262 -6.22389,0.0802 -6.00484,3.13354 -7.33572,3.71206 -8.34099,3.8819 -0.61865,0.10452 -1.12482,0.28707 -1.12482,0.40567 0,0.37945 3.77301,1.97007 6.06127,2.55531 1.21741,0.31136 2.9321,0.56611 3.81044,0.56611 1.68248,0 4.22895,-0.62202 5.29775,-1.294061 0.34925,-0.219599 1.3693,-0.85507 1.3693,-0.85507 l 0.35278,-0.402296 v 5.477682 6.370067 c 0,0 -1.33403,-0.25909 -2.49819,-0.55855 z"
       id="path83"
       sodipodi:nodetypes="ssscssssssssccccccssscccscsssssccccss" /><path
       style="display:inline;fill:#fdc372;fill-opacity:1"
       d="m 74.46958,101.80966 c 4.75319,-1.22264 10.02114,-4.53187 13.91733,-8.742571 3.11224,-3.36347 6.8949,-9.53236 8.51996,-13.894641 l 0.49939,-1.34056 h 1.38183 c 2.45494,0 4.49871,-1.26019 5.63859,-3.47675 0.35433,-0.68902 0.70326,-2.35093 0.96724,-4.60678 0.44901,-3.837089 0.30985,-5.031649 -0.79656,-6.837919 -0.62901,-1.0269 -2.82665,-2.576331 -3.65415,-2.576331 -0.28005,0 -0.50919,-0.10398 -0.50919,-0.23106 0,-0.31655 -16.34242,-15.432268 -16.68466,-15.432268 -0.15063,0 -3.01621,2.381547 -6.18794,5.481449 L 71.9712,55.58077 v 1.782739 1.782739 l 11.74116,0.126509 12.065,0.0736 -0.007,8.325561 c -0.008,9.302789 -0.0199,9.373919 -2.01191,11.585159 -1.87133,2.07732 -2.83398,2.34528 -8.88723,2.47389 -9.05177,0.192311 -11.06021,-0.208461 -12.40636,-6.480551 l -0.49366,-2.300093 -0.0288,6.698395 v 6.542299 c 0,0 0.49168,-0.195249 1.23059,-0.608239 1.96632,-1.09899 4.01484,-1.07262 6.22389,0.0802 6.00484,3.13354 7.33572,3.71206 8.34099,3.8819 0.61865,0.10452 1.12482,0.28707 1.12482,0.40567 0,0.37945 -3.77301,1.97007 -6.06127,2.55531 -1.21741,0.31136 -2.9321,0.56611 -3.81044,0.56611 -1.68248,0 -4.22895,-0.62202 -5.29775,-1.294061 -0.34925,-0.219599 -1.3693,-0.85507 -1.3693,-0.85507 l -0.35278,-0.402296 v 5.477682 6.370067 c 0,0 1.33403,-0.25909 2.49819,-0.55855 z"
       id="path84"
       sodipodi:nodetypes="ssscssssssssccccccssscccscsssssccccss" /><path
       id="rect86"
       style="fill:#ffffff;fill-opacity:1;stroke:none;stroke-width:0.600001;stroke-linecap:round;stroke-linejoin:round"
       d="m 71.97082,59.14637 -11.74088,0.126607 -12.0649,0.07338 0.007,8.325589 c 0.008,9.302771 0.0197,9.374104 2.01176,11.58534 1.87133,2.077315 2.83408,2.345141 8.88731,2.47375 9.05175,0.19231 11.06033,-0.208664 12.40648,-6.480741 l 0.49351,-2.300118 0.49403,2.300118 c 1.34615,6.272077 3.35421,6.673052 12.40596,6.480741 6.05323,-0.128609 7.01598,-0.396435 8.88731,-2.47375 1.99196,-2.211236 2.00376,-2.282569 2.01176,-11.58534 l 0.007,-8.325589 -12.0649,-0.07338 z" /><path
       style="display:inline;fill:#7620c1;fill-opacity:1;stroke-width:1.0315"
       d="M 48.16504,60.657474 V 59.14637 h 11.91747 11.91748 v 1.511104 1.511103 H 60.08251 48.16504 Z"
       id="path87" /><path
       style="display:inline;fill:#54168a;fill-opacity:1;stroke-width:1.03025"
       d="M 71.99999,60.657474 V 59.14637 h 11.88858 11.88859 v 1.511104 1.511103 H 83.88857 71.99999 Z"
       id="path88" /><g
       id="g90"
       transform="translate(473.30644,74.865483)"
       style="display:inline"><path
         style="fill:#7e22ce;fill-opacity:1"
         d="m -395.02747,2.9160738 c -1.12617,-0.50493 -1.57203,-1.23621 -2.51791,-4.12981 -0.85019,-2.60084 -1.74801,-3.82339 -3.01165,-4.10093 l -0.80701,-0.17725 v -2.5175798 -2.51757 h 10.60011 10.6001 l -0.0873,5.4835598 -0.0873,5.48357 -0.58188,0.77844 c -0.32004,0.42814 -0.93224,1.04029 -1.36044,1.36032 l -0.77856,0.58189 -5.55401,0.0705 c -4.2126,0.0535 -5.76173,-0.0226 -6.4141,-0.31514 z"
         id="path89" /><path
         style="fill:#a75de5;fill-opacity:1"
         d="m -407.70061,2.9160738 c 1.12617,-0.50493 1.57203,-1.23621 2.51791,-4.12981 0.85019,-2.60084 1.74801,-3.82339 3.01165,-4.10093 l 0.80701,-0.17725 v -2.5175798 -2.51757 h -10.60011 -10.6001 l 0.0873,5.4835598 0.0873,5.48357 0.58188,0.77844 c 0.32004,0.42814 0.93224,1.04029 1.36044,1.36032 l 0.77856,0.58189 5.55401,0.0705 c 4.2126,0.0535 5.76173,-0.0226 6.4141,-0.31514 z"
         id="path90" /></g><path
       id="path91"
       style="display:inline;fill:#fea81e;fill-opacity:1"
       d="m 71.97126,72.950311 -0.0289,6.698816 v 2.082043 h 7.34322 v -0.05116 c -4.43197,-0.328134 -5.81257,-1.732074 -6.82077,-6.429582 z"
       sodipodi:nodetypes="ccccccc" /></g></svg>
