%TF.GenerationSoftware,KiCad,Pcbnew,9.0.0*%
%TF.CreationDate,2026-02-11T10:28:59-03:00*%
%TF.ProjectId,PlacaESP,506c6163-6145-4535-902e-6b696361645f,rev?*%
%TF.SameCoordinates,Original*%
%TF.FileFunction,Copper,L2,Bot*%
%TF.FilePolarity,Positive*%
%FSLAX46Y46*%
G04 Gerber Fmt 4.6, Leading zero omitted, Abs format (unit mm)*
G04 Created by KiCad (PCBNEW 9.0.0) date 2026-02-11 10:28:59*
%MOMM*%
%LPD*%
G01*
G04 APERTURE LIST*
G04 Aperture macros list*
%AMRoundRect*
0 Rectangle with rounded corners*
0 $1 Rounding radius*
0 $2 $3 $4 $5 $6 $7 $8 $9 X,Y pos of 4 corners*
0 Add a 4 corners polygon primitive as box body*
4,1,4,$2,$3,$4,$5,$6,$7,$8,$9,$2,$3,0*
0 Add four circle primitives for the rounded corners*
1,1,$1+$1,$2,$3*
1,1,$1+$1,$4,$5*
1,1,$1+$1,$6,$7*
1,1,$1+$1,$8,$9*
0 Add four rect primitives between the rounded corners*
20,1,$1+$1,$2,$3,$4,$5,0*
20,1,$1+$1,$4,$5,$6,$7,0*
20,1,$1+$1,$6,$7,$8,$9,0*
20,1,$1+$1,$8,$9,$2,$3,0*%
%AMRotRect*
0 Rectangle, with rotation*
0 The origin of the aperture is its center*
0 $1 length*
0 $2 width*
0 $3 Rotation angle, in degrees counterclockwise*
0 Add horizontal line*
21,1,$1,$2,0,0,$3*%
G04 Aperture macros list end*
%TA.AperFunction,ComponentPad*%
%ADD10C,1.400000*%
%TD*%
%TA.AperFunction,ComponentPad*%
%ADD11RoundRect,0.250000X-0.600000X-0.600000X0.600000X-0.600000X0.600000X0.600000X-0.600000X0.600000X0*%
%TD*%
%TA.AperFunction,ComponentPad*%
%ADD12C,1.700000*%
%TD*%
%TA.AperFunction,ComponentPad*%
%ADD13C,1.600000*%
%TD*%
%TA.AperFunction,ComponentPad*%
%ADD14R,1.700000X1.700000*%
%TD*%
%TA.AperFunction,ComponentPad*%
%ADD15O,1.700000X1.700000*%
%TD*%
%TA.AperFunction,ComponentPad*%
%ADD16RotRect,1.600000X1.600000X45.000000*%
%TD*%
%TA.AperFunction,ViaPad*%
%ADD17C,3.000000*%
%TD*%
%TA.AperFunction,ViaPad*%
%ADD18C,1.600000*%
%TD*%
%TA.AperFunction,Conductor*%
%ADD19C,1.500000*%
%TD*%
G04 APERTURE END LIST*
D10*
%TO.P,TP3,1,1*%
%TO.N,u2High*%
X6527218Y69500000D03*
X9067218Y69500000D03*
%TD*%
%TO.P,TP7,1,1*%
%TO.N,vC2 A{slash}D*%
X6527218Y64300000D03*
X9067218Y64300000D03*
%TD*%
D11*
%TO.P,J12,1,Pin_1*%
%TO.N,u3High*%
X17227218Y77100000D03*
D12*
%TO.P,J12,2,Pin_2*%
%TO.N,vr A{slash}D*%
X19767218Y77100000D03*
%TO.P,J12,3,Pin_3*%
%TO.N,u3Low*%
X17227218Y74560000D03*
%TO.P,J12,4,Pin_4*%
%TO.N,GND*%
X19767218Y74560000D03*
%TO.P,J12,5,Pin_5*%
%TO.N,vC1 A{slash}D*%
X17227218Y72020000D03*
%TO.P,J12,6,Pin_6*%
%TO.N,GND*%
X19767218Y72020000D03*
%TO.P,J12,7,Pin_7*%
%TO.N,u2High*%
X17227218Y69480000D03*
%TO.P,J12,8,Pin_8*%
%TO.N,+6V*%
X19767218Y69480000D03*
%TO.P,J12,9,Pin_9*%
%TO.N,u2Low*%
X17227218Y66940000D03*
%TO.P,J12,10,Pin_10*%
%TO.N,GND*%
X19767218Y66940000D03*
%TO.P,J12,11,Pin_11*%
%TO.N,vC2 A{slash}D*%
X17227218Y64400000D03*
%TO.P,J12,12,Pin_12*%
%TO.N,GND*%
X19767218Y64400000D03*
%TO.P,J12,13,Pin_13*%
%TO.N,u1High*%
X17227218Y61860000D03*
%TO.P,J12,14,Pin_14*%
%TO.N,u1Low*%
X19767218Y61860000D03*
%TD*%
D10*
%TO.P,TP5,1,1*%
%TO.N,u1High*%
X6527218Y60000000D03*
X9067218Y60000000D03*
%TD*%
%TO.P,TP9,1,1*%
%TO.N,vr A{slash}D*%
X6427218Y85100000D03*
X8967218Y85100000D03*
%TD*%
%TO.P,TP10,1,1*%
%TO.N,GND*%
X18437218Y50800000D03*
X15897218Y50800000D03*
%TD*%
%TO.P,TP2,1,1*%
%TO.N,u3Low*%
X6527218Y72900000D03*
X9067218Y72900000D03*
%TD*%
%TO.P,TP8,1,1*%
%TO.N,vC1 A{slash}D*%
X6387218Y81200000D03*
X8927218Y81200000D03*
%TD*%
%TO.P,TP11,1,1*%
%TO.N,+6V*%
X21160000Y85500000D03*
X23700000Y85500000D03*
%TD*%
%TO.P,TP1,1,1*%
%TO.N,u3High*%
X6587218Y77100000D03*
X9127218Y77100000D03*
%TD*%
D13*
%TO.P,C7,1*%
%TO.N,+6V*%
X-37872782Y77620000D03*
%TO.P,C7,2*%
%TO.N,GND*%
X-32872782Y77620000D03*
%TD*%
D10*
%TO.P,TP6,1,1*%
%TO.N,u1Low*%
X6527218Y55600000D03*
X9067218Y55600000D03*
%TD*%
D14*
%TO.P,J8,1,Pin_1*%
%TO.N,u1Low*%
X-2316032Y57375000D03*
D15*
%TO.P,J8,2,Pin_2*%
%TO.N,u1High*%
X-4856032Y57375000D03*
%TO.P,J8,3,Pin_3*%
%TO.N,unconnected-(J8-Pin_3-Pad3)*%
X-7396032Y57375000D03*
%TO.P,J8,4,Pin_4*%
%TO.N,unconnected-(J8-Pin_4-Pad4)*%
X-9936032Y57375000D03*
%TO.P,J8,5,Pin_5*%
%TO.N,u2Low*%
X-12476032Y57375000D03*
%TO.P,J8,6,Pin_6*%
%TO.N,u2High*%
X-15016032Y57375000D03*
%TO.P,J8,7,Pin_7*%
%TO.N,u3Low*%
X-17556032Y57375000D03*
%TO.P,J8,8,Pin_8*%
%TO.N,unconnected-(J8-Pin_8-Pad8)*%
X-20096032Y57375000D03*
%TO.P,J8,9,Pin_9*%
%TO.N,u3High*%
X-22636032Y57375000D03*
%TO.P,J8,10,Pin_10*%
%TO.N,unconnected-(J8-Pin_10-Pad10)*%
X-25176032Y57375000D03*
%TO.P,J8,11,Pin_11*%
%TO.N,sig*%
X-27716032Y57375000D03*
%TO.P,J8,12,Pin_12*%
%TO.N,unconnected-(J8-Pin_12-Pad12)*%
X-30256032Y57375000D03*
%TO.P,J8,13,Pin_13*%
%TO.N,unconnected-(J8-Pin_13-Pad13)*%
X-32796032Y57375000D03*
%TO.P,J8,14,Pin_14*%
%TO.N,GND*%
X-35336032Y57375000D03*
%TO.P,J8,15,Pin_15*%
%TO.N,unconnected-(J8-Pin_15-Pad15)*%
X-37876032Y57375000D03*
%TD*%
D10*
%TO.P,TP4,1,1*%
%TO.N,u2Low*%
X9100000Y66900000D03*
X11640000Y66900000D03*
%TD*%
D14*
%TO.P,J7,1,Pin_1*%
%TO.N,unconnected-(J7-Pin_1-Pad1)*%
X-2316032Y82775000D03*
D15*
%TO.P,J7,2,Pin_2*%
%TO.N,vC1 A{slash}D*%
X-4856032Y82775000D03*
%TO.P,J7,3,Pin_3*%
%TO.N,unconnected-(J7-Pin_3-Pad3)*%
X-7396032Y82775000D03*
%TO.P,J7,4,Pin_4*%
%TO.N,vC2 A{slash}D*%
X-9936032Y82775000D03*
%TO.P,J7,5,Pin_5*%
%TO.N,unconnected-(J7-Pin_5-Pad5)*%
X-12476032Y82775000D03*
%TO.P,J7,6,Pin_6*%
%TO.N,vr A{slash}D*%
X-15016032Y82775000D03*
%TO.P,J7,7,Pin_7*%
%TO.N,unconnected-(J7-Pin_7-Pad7)*%
X-17556032Y82775000D03*
%TO.P,J7,8,Pin_8*%
%TO.N,unconnected-(J7-Pin_8-Pad8)*%
X-20096032Y82775000D03*
%TO.P,J7,9,Pin_9*%
%TO.N,unconnected-(J7-Pin_9-Pad9)*%
X-22636032Y82775000D03*
%TO.P,J7,10,Pin_10*%
%TO.N,unconnected-(J7-Pin_10-Pad10)*%
X-25176032Y82775000D03*
%TO.P,J7,11,Pin_11*%
%TO.N,unconnected-(J7-Pin_11-Pad11)*%
X-27716032Y82775000D03*
%TO.P,J7,12,Pin_12*%
%TO.N,unconnected-(J7-Pin_12-Pad12)*%
X-30256032Y82775000D03*
%TO.P,J7,13,Pin_13*%
%TO.N,unconnected-(J7-Pin_13-Pad13)*%
X-32796032Y82775000D03*
%TO.P,J7,14,Pin_14*%
%TO.N,GND*%
X-35336032Y82775000D03*
%TO.P,J7,15,Pin_15*%
%TO.N,+6V*%
X-37876032Y82775000D03*
%TD*%
D16*
%TO.P,C4,1*%
%TO.N,+6V*%
X14432233Y86932233D03*
D13*
%TO.P,C4,2*%
%TO.N,GND*%
X16200000Y88700000D03*
%TD*%
D10*
%TO.P,TP12,1,1*%
%TO.N,sig*%
X-27742782Y53300000D03*
X-25202782Y53300000D03*
%TD*%
D17*
%TO.N,GND*%
X-41800000Y51000000D03*
X27000000Y88700000D03*
X26900000Y51100000D03*
X-41800000Y88700000D03*
D18*
%TO.N,vC1 A{slash}D*%
X12327218Y72000000D03*
X12327218Y79500000D03*
%TO.N,vC2 A{slash}D*%
X-9872782Y77700000D03*
X3527218Y64400000D03*
%TD*%
D19*
%TO.N,+6V*%
X18531235Y82834016D02*
X18501234Y82834016D01*
X22168218Y70641000D02*
X21007218Y69480000D01*
X13858250Y87477000D02*
X18501234Y82834016D01*
X-36495782Y87477000D02*
X13858250Y87477000D01*
X-37876032Y82775000D02*
X-37876032Y86096750D01*
X18501234Y82834016D02*
X19031234Y82304016D01*
X21007218Y69480000D02*
X19767218Y69480000D01*
X19031234Y82304016D02*
X22168218Y79167032D01*
X-37876032Y86096750D02*
X-37872782Y86100000D01*
X-37872782Y82771750D02*
X-37876032Y82775000D01*
X22168218Y79167032D02*
X22168218Y70641000D01*
X21197219Y85500000D02*
X18531235Y82834016D01*
X-37872782Y77620000D02*
X-37872782Y82771750D01*
X21160000Y85500000D02*
X23700000Y85500000D01*
X-37872782Y86100000D02*
X-36495782Y87477000D01*
%TO.N,sig*%
X-27716032Y53326750D02*
X-27742782Y53300000D01*
X-27716032Y57375000D02*
X-27716032Y53326750D01*
X-27742782Y53300000D02*
X-25202782Y53300000D01*
%TO.N,u2Low*%
X-12476032Y58577081D02*
X-4113113Y66940000D01*
X-4113113Y66940000D02*
X17227218Y66940000D01*
X-12476032Y57375000D02*
X-12476032Y58577081D01*
%TO.N,u3High*%
X-22636032Y57375000D02*
X-22636032Y58577081D01*
X-4113113Y77100000D02*
X17227218Y77100000D01*
X-22636032Y58577081D02*
X-4113113Y77100000D01*
%TO.N,u3Low*%
X6587218Y72900000D02*
X9127218Y72900000D01*
X-17556032Y60005291D02*
X-3001323Y74560000D01*
X9127218Y72900000D02*
X10787218Y74560000D01*
X-3001323Y74560000D02*
X17227218Y74560000D01*
X-17556032Y57375000D02*
X-17556032Y60005291D01*
X10787218Y74560000D02*
X12127218Y74560000D01*
%TO.N,vC1 A{slash}D*%
X12347218Y72020000D02*
X12327218Y72000000D01*
X8927218Y81200000D02*
X10627218Y79500000D01*
X-2972782Y79500000D02*
X10627218Y79500000D01*
X6387218Y81200000D02*
X8927218Y81200000D01*
X-4856032Y82775000D02*
X-4856032Y81383250D01*
X17227218Y72020000D02*
X12347218Y72020000D01*
X10627218Y79500000D02*
X12327218Y79500000D01*
X17207218Y72000000D02*
X17227218Y72020000D01*
X-4856032Y81383250D02*
X-2972782Y79500000D01*
%TO.N,vC2 A{slash}D*%
X3527218Y64400000D02*
X17227218Y64400000D01*
X-9936032Y77763250D02*
X-9872782Y77700000D01*
X-9936032Y82775000D02*
X-9936032Y77763250D01*
%TO.N,u1Low*%
X19767218Y60657919D02*
X19767218Y61860000D01*
X9067218Y55600000D02*
X10842218Y57375000D01*
X16484299Y57375000D02*
X19767218Y60657919D01*
X6527218Y55600000D02*
X9067218Y55600000D01*
X10842218Y57375000D02*
X11527218Y57375000D01*
X-2316032Y57375000D02*
X11527218Y57375000D01*
X11527218Y57375000D02*
X16484299Y57375000D01*
%TO.N,vr A{slash}D*%
X-15016032Y83630527D02*
X-13470559Y85176000D01*
X12905144Y85176000D02*
X19767218Y78313926D01*
X-13470559Y85176000D02*
X12905144Y85176000D01*
X-15016032Y82775000D02*
X-15016032Y83630527D01*
X19767218Y78313926D02*
X19767218Y77100000D01*
%TO.N,u1High*%
X-4856032Y59637000D02*
X-2633032Y61860000D01*
X10927218Y61860000D02*
X11627218Y61860000D01*
X9067218Y60000000D02*
X10927218Y61860000D01*
X11627218Y61860000D02*
X17227218Y61860000D01*
X-2633032Y61860000D02*
X11627218Y61860000D01*
X-4856032Y57375000D02*
X-4856032Y59637000D01*
X6527218Y60000000D02*
X9067218Y60000000D01*
%TO.N,u2High*%
X-15016032Y57375000D02*
X-15016032Y59291186D01*
X-15016032Y59291186D02*
X-4827218Y69480000D01*
X-4827218Y69480000D02*
X17227218Y69480000D01*
%TD*%
%TA.AperFunction,Conductor*%
%TO.N,GND*%
G36*
X18687165Y75812323D02*
G01*
X18716240Y75813103D01*
X18723322Y75809738D01*
X18727839Y75809415D01*
X18734505Y75804424D01*
X18757390Y75793551D01*
X18902163Y75688368D01*
X19133641Y75570422D01*
X19380724Y75490140D01*
X19637316Y75449500D01*
X19637321Y75449500D01*
X19897120Y75449500D01*
X20153711Y75490140D01*
X20400797Y75570423D01*
X20437424Y75589086D01*
X20506093Y75601982D01*
X20570833Y75575705D01*
X20611090Y75518599D01*
X20617718Y75478601D01*
X20617718Y71334600D01*
X20609073Y71305159D01*
X20602550Y71275173D01*
X20598795Y71270157D01*
X20598033Y71267561D01*
X20581399Y71246919D01*
X20411702Y71077222D01*
X20350379Y71043737D01*
X20285707Y71046971D01*
X20153711Y71089860D01*
X20070816Y71102989D01*
X19897120Y71130500D01*
X19897115Y71130500D01*
X19637321Y71130500D01*
X19637316Y71130500D01*
X19512924Y71110797D01*
X19380725Y71089860D01*
X19133646Y71009579D01*
X19133643Y71009577D01*
X19133641Y71009577D01*
X19049663Y70966787D01*
X18902167Y70891634D01*
X18691989Y70738931D01*
X18691986Y70738928D01*
X18584899Y70631841D01*
X18576953Y70627502D01*
X18571528Y70620255D01*
X18546768Y70611020D01*
X18523576Y70598356D01*
X18514546Y70599001D01*
X18506064Y70595838D01*
X18480243Y70601454D01*
X18453884Y70603340D01*
X18444830Y70609158D01*
X18437791Y70610690D01*
X18409537Y70631841D01*
X18379059Y70662319D01*
X18345574Y70723642D01*
X18350558Y70793334D01*
X18379059Y70837681D01*
X18486146Y70944768D01*
X18486149Y70944771D01*
X18638852Y71154949D01*
X18737981Y71349500D01*
X18756795Y71386423D01*
X18781708Y71463097D01*
X18837078Y71633507D01*
X18877689Y71889917D01*
X18877718Y71890097D01*
X18877718Y72149902D01*
X18859757Y72263298D01*
X18837078Y72406493D01*
X18756797Y72653572D01*
X18638852Y72885051D01*
X18486149Y73095229D01*
X18379059Y73202319D01*
X18345574Y73263642D01*
X18350558Y73333334D01*
X18379059Y73377681D01*
X18486146Y73484768D01*
X18486149Y73484771D01*
X18638852Y73694949D01*
X18714005Y73842445D01*
X18756795Y73926423D01*
X18756797Y73926428D01*
X18837078Y74173507D01*
X18856165Y74294021D01*
X18877718Y74430097D01*
X18877718Y74689902D01*
X18859757Y74803298D01*
X18837078Y74946493D01*
X18756797Y75193572D01*
X18638852Y75425051D01*
X18533665Y75569828D01*
X18522203Y75601951D01*
X18510300Y75633866D01*
X18510495Y75634765D01*
X18510186Y75635633D01*
X18517913Y75668864D01*
X18525152Y75702139D01*
X18525845Y75702976D01*
X18526011Y75703687D01*
X18546303Y75730393D01*
X18550609Y75734699D01*
X18573628Y75753590D01*
X18592518Y75776608D01*
X18596824Y75780914D01*
X18622352Y75794853D01*
X18646395Y75811231D01*
X18652652Y75811398D01*
X18658147Y75814399D01*
X18687165Y75812323D01*
G37*
%TD.AperFunction*%
%TA.AperFunction,Conductor*%
G36*
X29442539Y91479815D02*
G01*
X29488294Y91427011D01*
X29499500Y91375500D01*
X29499500Y48624500D01*
X29479815Y48557461D01*
X29427011Y48511706D01*
X29375500Y48500500D01*
X-44375500Y48500500D01*
X-44442539Y48520185D01*
X-44488294Y48572989D01*
X-44499500Y48624500D01*
X-44499500Y57504902D01*
X-39526532Y57504902D01*
X-39526532Y57245097D01*
X-39504979Y57109021D01*
X-39485892Y56988507D01*
X-39405611Y56741428D01*
X-39405609Y56741423D01*
X-39362819Y56657445D01*
X-39287666Y56509949D01*
X-39134963Y56299771D01*
X-39134960Y56299768D01*
X-38951263Y56116071D01*
X-38951257Y56116066D01*
X-38785417Y55995576D01*
X-38741083Y55963366D01*
X-38691490Y55938097D01*
X-38509608Y55845422D01*
X-38262525Y55765140D01*
X-38005934Y55724500D01*
X-38005929Y55724500D01*
X-37746130Y55724500D01*
X-37489538Y55765140D01*
X-37242455Y55845422D01*
X-37010977Y55963368D01*
X-36800806Y56116066D01*
X-36800800Y56116071D01*
X-36617103Y56299768D01*
X-36617098Y56299774D01*
X-36464400Y56509945D01*
X-36346454Y56741423D01*
X-36266172Y56988506D01*
X-36225532Y57245097D01*
X-36225532Y57504902D01*
X-36266172Y57761493D01*
X-36346454Y58008576D01*
X-36464400Y58240054D01*
X-36617098Y58450225D01*
X-36617103Y58450231D01*
X-36800800Y58633928D01*
X-36800803Y58633931D01*
X-37010981Y58786634D01*
X-37213835Y58889994D01*
X-37242455Y58904577D01*
X-37242457Y58904577D01*
X-37242460Y58904579D01*
X-37489539Y58984860D01*
X-37621738Y59005797D01*
X-37746130Y59025500D01*
X-37746135Y59025500D01*
X-38005929Y59025500D01*
X-38005934Y59025500D01*
X-38101471Y59010368D01*
X-38262525Y58984860D01*
X-38509604Y58904579D01*
X-38741083Y58786634D01*
X-38951261Y58633931D01*
X-39134963Y58450229D01*
X-39287666Y58240051D01*
X-39405611Y58008572D01*
X-39485892Y57761493D01*
X-39508571Y57618298D01*
X-39526532Y57504902D01*
X-44499500Y57504902D01*
X-44499500Y82904902D01*
X-39526532Y82904902D01*
X-39526532Y82645097D01*
X-39507685Y82526106D01*
X-39485892Y82388507D01*
X-39446875Y82268425D01*
X-39429351Y82214491D01*
X-39423282Y82176173D01*
X-39423282Y78047016D01*
X-39429350Y78008699D01*
X-39433872Y77994785D01*
X-39473282Y77745962D01*
X-39473282Y77494038D01*
X-39433872Y77245215D01*
X-39382015Y77085616D01*
X-39356021Y77005616D01*
X-39314529Y76924184D01*
X-39241652Y76781155D01*
X-39241649Y76781151D01*
X-39093580Y76577350D01*
X-39093576Y76577345D01*
X-38915436Y76399205D01*
X-38915431Y76399201D01*
X-38711630Y76251132D01*
X-38711627Y76251130D01*
X-38644172Y76216760D01*
X-38487165Y76136760D01*
X-38372490Y76099500D01*
X-38247567Y76058910D01*
X-37998744Y76019500D01*
X-37998743Y76019500D01*
X-37746821Y76019500D01*
X-37746820Y76019500D01*
X-37622408Y76039205D01*
X-37497996Y76058910D01*
X-37258398Y76136760D01*
X-37033933Y76251132D01*
X-36830132Y76399201D01*
X-36830127Y76399205D01*
X-36651987Y76577345D01*
X-36651983Y76577350D01*
X-36503914Y76781151D01*
X-36389542Y77005616D01*
X-36311692Y77245214D01*
X-36272282Y77494038D01*
X-36272282Y77745961D01*
X-36311691Y77994781D01*
X-36316213Y78008698D01*
X-36322282Y78047016D01*
X-36322282Y82196178D01*
X-36316213Y82234496D01*
X-36266172Y82388505D01*
X-36225532Y82645097D01*
X-36225532Y82904902D01*
X-36266171Y83161493D01*
X-36300710Y83267789D01*
X-36319463Y83325506D01*
X-36325532Y83363822D01*
X-36325532Y85403150D01*
X-36305847Y85470189D01*
X-36289213Y85490831D01*
X-35889863Y85890181D01*
X-35828540Y85923666D01*
X-35802182Y85926500D01*
X-15212159Y85926500D01*
X-15145120Y85906815D01*
X-15099365Y85854011D01*
X-15089421Y85784853D01*
X-15118446Y85721297D01*
X-15124478Y85714819D01*
X-16026115Y84813182D01*
X-16198687Y84640610D01*
X-16342138Y84443166D01*
X-16452936Y84225712D01*
X-16455928Y84216502D01*
X-16495362Y84158825D01*
X-16559720Y84131623D01*
X-16628567Y84143534D01*
X-16646746Y84154496D01*
X-16690977Y84186631D01*
X-16690981Y84186634D01*
X-16838477Y84261787D01*
X-16922455Y84304577D01*
X-16922457Y84304577D01*
X-16922460Y84304579D01*
X-17169539Y84384860D01*
X-17301738Y84405797D01*
X-17426130Y84425500D01*
X-17426135Y84425500D01*
X-17685929Y84425500D01*
X-17685934Y84425500D01*
X-17799330Y84407539D01*
X-17942525Y84384860D01*
X-18189604Y84304579D01*
X-18421083Y84186634D01*
X-18631261Y84033931D01*
X-18715692Y83949500D01*
X-18738351Y83926841D01*
X-18799674Y83893356D01*
X-18869366Y83898340D01*
X-18913713Y83926841D01*
X-19020800Y84033928D01*
X-19020803Y84033931D01*
X-19230981Y84186634D01*
X-19378477Y84261787D01*
X-19462455Y84304577D01*
X-19462457Y84304577D01*
X-19462460Y84304579D01*
X-19709539Y84384860D01*
X-19841738Y84405797D01*
X-19966130Y84425500D01*
X-19966135Y84425500D01*
X-20225929Y84425500D01*
X-20225934Y84425500D01*
X-20339330Y84407539D01*
X-20482525Y84384860D01*
X-20729604Y84304579D01*
X-20961083Y84186634D01*
X-21171261Y84033931D01*
X-21255692Y83949500D01*
X-21278351Y83926841D01*
X-21339674Y83893356D01*
X-21409366Y83898340D01*
X-21453713Y83926841D01*
X-21560800Y84033928D01*
X-21560803Y84033931D01*
X-21770981Y84186634D01*
X-21918477Y84261787D01*
X-22002455Y84304577D01*
X-22002457Y84304577D01*
X-22002460Y84304579D01*
X-22249539Y84384860D01*
X-22381738Y84405797D01*
X-22506130Y84425500D01*
X-22506135Y84425500D01*
X-22765929Y84425500D01*
X-22765934Y84425500D01*
X-22879330Y84407539D01*
X-23022525Y84384860D01*
X-23269604Y84304579D01*
X-23501083Y84186634D01*
X-23711261Y84033931D01*
X-23795692Y83949500D01*
X-23818351Y83926841D01*
X-23879674Y83893356D01*
X-23949366Y83898340D01*
X-23993713Y83926841D01*
X-24100800Y84033928D01*
X-24100803Y84033931D01*
X-24310981Y84186634D01*
X-24458477Y84261787D01*
X-24542455Y84304577D01*
X-24542457Y84304577D01*
X-24542460Y84304579D01*
X-24789539Y84384860D01*
X-24921738Y84405797D01*
X-25046130Y84425500D01*
X-25046135Y84425500D01*
X-25305929Y84425500D01*
X-25305934Y84425500D01*
X-25419330Y84407539D01*
X-25562525Y84384860D01*
X-25809604Y84304579D01*
X-26041083Y84186634D01*
X-26251261Y84033931D01*
X-26335692Y83949500D01*
X-26358351Y83926841D01*
X-26419674Y83893356D01*
X-26489366Y83898340D01*
X-26533713Y83926841D01*
X-26640800Y84033928D01*
X-26640803Y84033931D01*
X-26850981Y84186634D01*
X-26998477Y84261787D01*
X-27082455Y84304577D01*
X-27082457Y84304577D01*
X-27082460Y84304579D01*
X-27329539Y84384860D01*
X-27461738Y84405797D01*
X-27586130Y84425500D01*
X-27586135Y84425500D01*
X-27845929Y84425500D01*
X-27845934Y84425500D01*
X-27959330Y84407539D01*
X-28102525Y84384860D01*
X-28349604Y84304579D01*
X-28581083Y84186634D01*
X-28791261Y84033931D01*
X-28875692Y83949500D01*
X-28898351Y83926841D01*
X-28959674Y83893356D01*
X-29029366Y83898340D01*
X-29073713Y83926841D01*
X-29180800Y84033928D01*
X-29180803Y84033931D01*
X-29390981Y84186634D01*
X-29538477Y84261787D01*
X-29622455Y84304577D01*
X-29622457Y84304577D01*
X-29622460Y84304579D01*
X-29869539Y84384860D01*
X-30001738Y84405797D01*
X-30126130Y84425500D01*
X-30126135Y84425500D01*
X-30385929Y84425500D01*
X-30385934Y84425500D01*
X-30499330Y84407539D01*
X-30642525Y84384860D01*
X-30889604Y84304579D01*
X-31121083Y84186634D01*
X-31331261Y84033931D01*
X-31415692Y83949500D01*
X-31438351Y83926841D01*
X-31499674Y83893356D01*
X-31569366Y83898340D01*
X-31613713Y83926841D01*
X-31720800Y84033928D01*
X-31720803Y84033931D01*
X-31930981Y84186634D01*
X-32078477Y84261787D01*
X-32162455Y84304577D01*
X-32162457Y84304577D01*
X-32162460Y84304579D01*
X-32409539Y84384860D01*
X-32541738Y84405797D01*
X-32666130Y84425500D01*
X-32666135Y84425500D01*
X-32925929Y84425500D01*
X-32925934Y84425500D01*
X-33039330Y84407539D01*
X-33182525Y84384860D01*
X-33429604Y84304579D01*
X-33661083Y84186634D01*
X-33871261Y84033931D01*
X-34054963Y83850229D01*
X-34207666Y83640051D01*
X-34325611Y83408572D01*
X-34405892Y83161493D01*
X-34428571Y83018298D01*
X-34446532Y82904902D01*
X-34446532Y82645097D01*
X-34427685Y82526106D01*
X-34405892Y82388507D01*
X-34336900Y82176173D01*
X-34325609Y82141423D01*
X-34282819Y82057445D01*
X-34207666Y81909949D01*
X-34054963Y81699771D01*
X-34054960Y81699768D01*
X-33871263Y81516071D01*
X-33871257Y81516066D01*
X-33742801Y81422737D01*
X-33661083Y81363366D01*
X-33605235Y81334910D01*
X-33429608Y81245422D01*
X-33182525Y81165140D01*
X-32925934Y81124500D01*
X-32925929Y81124500D01*
X-32666130Y81124500D01*
X-32409538Y81165140D01*
X-32162455Y81245422D01*
X-31930977Y81363368D01*
X-31720806Y81516066D01*
X-31720800Y81516071D01*
X-31613713Y81623159D01*
X-31552390Y81656644D01*
X-31482698Y81651660D01*
X-31438351Y81623159D01*
X-31331263Y81516071D01*
X-31331257Y81516066D01*
X-31202801Y81422737D01*
X-31121083Y81363366D01*
X-31065235Y81334910D01*
X-30889608Y81245422D01*
X-30642525Y81165140D01*
X-30385934Y81124500D01*
X-30385929Y81124500D01*
X-30126130Y81124500D01*
X-29869538Y81165140D01*
X-29622455Y81245422D01*
X-29390977Y81363368D01*
X-29180806Y81516066D01*
X-29180800Y81516071D01*
X-29073713Y81623159D01*
X-29012390Y81656644D01*
X-28942698Y81651660D01*
X-28898351Y81623159D01*
X-28791263Y81516071D01*
X-28791257Y81516066D01*
X-28662801Y81422737D01*
X-28581083Y81363366D01*
X-28525235Y81334910D01*
X-28349608Y81245422D01*
X-28102525Y81165140D01*
X-27845934Y81124500D01*
X-27845929Y81124500D01*
X-27586130Y81124500D01*
X-27329538Y81165140D01*
X-27082455Y81245422D01*
X-26850977Y81363368D01*
X-26640806Y81516066D01*
X-26640800Y81516071D01*
X-26533713Y81623159D01*
X-26472390Y81656644D01*
X-26402698Y81651660D01*
X-26358351Y81623159D01*
X-26251263Y81516071D01*
X-26251257Y81516066D01*
X-26122801Y81422737D01*
X-26041083Y81363366D01*
X-25985235Y81334910D01*
X-25809608Y81245422D01*
X-25562525Y81165140D01*
X-25305934Y81124500D01*
X-25305929Y81124500D01*
X-25046130Y81124500D01*
X-24789538Y81165140D01*
X-24542455Y81245422D01*
X-24310977Y81363368D01*
X-24100806Y81516066D01*
X-24100800Y81516071D01*
X-23993713Y81623159D01*
X-23932390Y81656644D01*
X-23862698Y81651660D01*
X-23818351Y81623159D01*
X-23711263Y81516071D01*
X-23711257Y81516066D01*
X-23582801Y81422737D01*
X-23501083Y81363366D01*
X-23445235Y81334910D01*
X-23269608Y81245422D01*
X-23022525Y81165140D01*
X-22765934Y81124500D01*
X-22765929Y81124500D01*
X-22506130Y81124500D01*
X-22249538Y81165140D01*
X-22002455Y81245422D01*
X-21770977Y81363368D01*
X-21560806Y81516066D01*
X-21560800Y81516071D01*
X-21453713Y81623159D01*
X-21392390Y81656644D01*
X-21322698Y81651660D01*
X-21278351Y81623159D01*
X-21171263Y81516071D01*
X-21171257Y81516066D01*
X-21042801Y81422737D01*
X-20961083Y81363366D01*
X-20905235Y81334910D01*
X-20729608Y81245422D01*
X-20482525Y81165140D01*
X-20225934Y81124500D01*
X-20225929Y81124500D01*
X-19966130Y81124500D01*
X-19709538Y81165140D01*
X-19462455Y81245422D01*
X-19230977Y81363368D01*
X-19020806Y81516066D01*
X-19020800Y81516071D01*
X-18913713Y81623159D01*
X-18852390Y81656644D01*
X-18782698Y81651660D01*
X-18738351Y81623159D01*
X-18631263Y81516071D01*
X-18631257Y81516066D01*
X-18502801Y81422737D01*
X-18421083Y81363366D01*
X-18365235Y81334910D01*
X-18189608Y81245422D01*
X-17942525Y81165140D01*
X-17685934Y81124500D01*
X-17685929Y81124500D01*
X-17426130Y81124500D01*
X-17169538Y81165140D01*
X-16922455Y81245422D01*
X-16690977Y81363368D01*
X-16480806Y81516066D01*
X-16480800Y81516071D01*
X-16373713Y81623159D01*
X-16312390Y81656644D01*
X-16242698Y81651660D01*
X-16198351Y81623159D01*
X-16091263Y81516071D01*
X-16091257Y81516066D01*
X-15962801Y81422737D01*
X-15881083Y81363366D01*
X-15825235Y81334910D01*
X-15649608Y81245422D01*
X-15402525Y81165140D01*
X-15145934Y81124500D01*
X-15145929Y81124500D01*
X-14886130Y81124500D01*
X-14629538Y81165140D01*
X-14382455Y81245422D01*
X-14150977Y81363368D01*
X-13940806Y81516066D01*
X-13940800Y81516071D01*
X-13833713Y81623159D01*
X-13772390Y81656644D01*
X-13702698Y81651660D01*
X-13658351Y81623159D01*
X-13551263Y81516071D01*
X-13551257Y81516066D01*
X-13422801Y81422737D01*
X-13341083Y81363366D01*
X-13285235Y81334910D01*
X-13109608Y81245422D01*
X-12862525Y81165140D01*
X-12605934Y81124500D01*
X-12605929Y81124500D01*
X-12346130Y81124500D01*
X-12089538Y81165140D01*
X-11974901Y81202388D01*
X-11842460Y81245421D01*
X-11842457Y81245422D01*
X-11842455Y81245423D01*
X-11666827Y81334910D01*
X-11598157Y81347806D01*
X-11533417Y81321530D01*
X-11493160Y81264423D01*
X-11486532Y81224425D01*
X-11486532Y77885277D01*
X-11486532Y77641223D01*
X-11448353Y77400174D01*
X-11446277Y77393787D01*
X-11441737Y77374879D01*
X-11433872Y77325215D01*
X-11356023Y77085621D01*
X-11241652Y76861155D01*
X-11241649Y76861151D01*
X-11093580Y76657350D01*
X-11093576Y76657345D01*
X-10915436Y76479205D01*
X-10915431Y76479201D01*
X-10711630Y76331132D01*
X-10711627Y76331130D01*
X-10641529Y76295413D01*
X-10487165Y76216760D01*
X-10247567Y76138910D01*
X-9998744Y76099500D01*
X-9998743Y76099500D01*
X-9746821Y76099500D01*
X-9746820Y76099500D01*
X-9622408Y76119205D01*
X-9497996Y76138910D01*
X-9258398Y76216760D01*
X-9033933Y76331132D01*
X-8830132Y76479201D01*
X-8830127Y76479205D01*
X-8651987Y76657345D01*
X-8651983Y76657350D01*
X-8503914Y76861151D01*
X-8389542Y77085616D01*
X-8311692Y77325214D01*
X-8272282Y77574038D01*
X-8272282Y77825961D01*
X-8311691Y78074781D01*
X-8379234Y78282655D01*
X-8379463Y78283362D01*
X-8385532Y78321679D01*
X-8385532Y81224425D01*
X-8365847Y81291464D01*
X-8313043Y81337219D01*
X-8243885Y81347163D01*
X-8205237Y81334910D01*
X-8030432Y81245843D01*
X-8029604Y81245421D01*
X-7811332Y81174500D01*
X-7782525Y81165140D01*
X-7525934Y81124500D01*
X-7525929Y81124500D01*
X-7266130Y81124500D01*
X-7009538Y81165140D01*
X-6762455Y81245422D01*
X-6582863Y81336930D01*
X-6514194Y81349826D01*
X-6449453Y81323550D01*
X-6409196Y81266443D01*
X-6404097Y81245854D01*
X-6368353Y81020174D01*
X-6292936Y80788065D01*
X-6182138Y80570611D01*
X-6182135Y80570607D01*
X-6038692Y80373173D01*
X-6038688Y80373168D01*
X-4469566Y78804046D01*
X-4436081Y78742723D01*
X-4441065Y78673031D01*
X-4482937Y78617098D01*
X-4518929Y78598434D01*
X-4708298Y78536904D01*
X-4925752Y78426106D01*
X-5123196Y78282655D01*
X-23646115Y59759736D01*
X-23818687Y59587164D01*
X-23962138Y59389720D01*
X-24072936Y59172266D01*
X-24148353Y58940157D01*
X-24148353Y58940152D01*
X-24148354Y58940152D01*
X-24156298Y58889994D01*
X-24186227Y58826859D01*
X-24245538Y58789927D01*
X-24315400Y58790925D01*
X-24335066Y58798906D01*
X-24542455Y58904577D01*
X-24542457Y58904577D01*
X-24542460Y58904579D01*
X-24789539Y58984860D01*
X-24921738Y59005797D01*
X-25046130Y59025500D01*
X-25046135Y59025500D01*
X-25305929Y59025500D01*
X-25305934Y59025500D01*
X-25401471Y59010368D01*
X-25562525Y58984860D01*
X-25809604Y58904579D01*
X-26041083Y58786634D01*
X-26251261Y58633931D01*
X-26358351Y58526841D01*
X-26419674Y58493356D01*
X-26489366Y58498340D01*
X-26533713Y58526841D01*
X-26640800Y58633928D01*
X-26640803Y58633931D01*
X-26850981Y58786634D01*
X-27053835Y58889994D01*
X-27082455Y58904577D01*
X-27082457Y58904577D01*
X-27082460Y58904579D01*
X-27329539Y58984860D01*
X-27461738Y59005797D01*
X-27586130Y59025500D01*
X-27586135Y59025500D01*
X-27845929Y59025500D01*
X-27845934Y59025500D01*
X-27941471Y59010368D01*
X-28102525Y58984860D01*
X-28349604Y58904579D01*
X-28581083Y58786634D01*
X-28791261Y58633931D01*
X-28898351Y58526841D01*
X-28959674Y58493356D01*
X-29029366Y58498340D01*
X-29073713Y58526841D01*
X-29180800Y58633928D01*
X-29180803Y58633931D01*
X-29390981Y58786634D01*
X-29593835Y58889994D01*
X-29622455Y58904577D01*
X-29622457Y58904577D01*
X-29622460Y58904579D01*
X-29869539Y58984860D01*
X-30001738Y59005797D01*
X-30126130Y59025500D01*
X-30126135Y59025500D01*
X-30385929Y59025500D01*
X-30385934Y59025500D01*
X-30481471Y59010368D01*
X-30642525Y58984860D01*
X-30889604Y58904579D01*
X-31121083Y58786634D01*
X-31331261Y58633931D01*
X-31438351Y58526841D01*
X-31499674Y58493356D01*
X-31569366Y58498340D01*
X-31613713Y58526841D01*
X-31720800Y58633928D01*
X-31720803Y58633931D01*
X-31930981Y58786634D01*
X-32133835Y58889994D01*
X-32162455Y58904577D01*
X-32162457Y58904577D01*
X-32162460Y58904579D01*
X-32409539Y58984860D01*
X-32541738Y59005797D01*
X-32666130Y59025500D01*
X-32666135Y59025500D01*
X-32925929Y59025500D01*
X-32925934Y59025500D01*
X-33021471Y59010368D01*
X-33182525Y58984860D01*
X-33429604Y58904579D01*
X-33661083Y58786634D01*
X-33871261Y58633931D01*
X-34054963Y58450229D01*
X-34207666Y58240051D01*
X-34325611Y58008572D01*
X-34405892Y57761493D01*
X-34428571Y57618298D01*
X-34446532Y57504902D01*
X-34446532Y57245097D01*
X-34424979Y57109021D01*
X-34405892Y56988507D01*
X-34325611Y56741428D01*
X-34325609Y56741423D01*
X-34282819Y56657445D01*
X-34207666Y56509949D01*
X-34054963Y56299771D01*
X-34054960Y56299768D01*
X-33871263Y56116071D01*
X-33871257Y56116066D01*
X-33705417Y55995576D01*
X-33661083Y55963366D01*
X-33611490Y55938097D01*
X-33429608Y55845422D01*
X-33182525Y55765140D01*
X-32925934Y55724500D01*
X-32925929Y55724500D01*
X-32666130Y55724500D01*
X-32409538Y55765140D01*
X-32162455Y55845422D01*
X-31930977Y55963368D01*
X-31720806Y56116066D01*
X-31720800Y56116071D01*
X-31613713Y56223159D01*
X-31552390Y56256644D01*
X-31482698Y56251660D01*
X-31438351Y56223159D01*
X-31331263Y56116071D01*
X-31331257Y56116066D01*
X-31165417Y55995576D01*
X-31121083Y55963366D01*
X-31071490Y55938097D01*
X-30889608Y55845422D01*
X-30642525Y55765140D01*
X-30385934Y55724500D01*
X-30385929Y55724500D01*
X-30126130Y55724500D01*
X-29869538Y55765140D01*
X-29745342Y55805494D01*
X-29622460Y55845421D01*
X-29622457Y55845422D01*
X-29622455Y55845423D01*
X-29446827Y55934910D01*
X-29378157Y55947806D01*
X-29313417Y55921530D01*
X-29273160Y55864423D01*
X-29266532Y55824425D01*
X-29266532Y53600674D01*
X-29268058Y53581276D01*
X-29293282Y53422027D01*
X-29293282Y53177973D01*
X-29255103Y52936924D01*
X-29179686Y52704815D01*
X-29068888Y52487361D01*
X-29068885Y52487357D01*
X-28925442Y52289923D01*
X-28925438Y52289918D01*
X-28752863Y52117343D01*
X-28752858Y52117339D01*
X-28555424Y51973896D01*
X-28555421Y51973894D01*
X-28337967Y51863096D01*
X-28105858Y51787679D01*
X-28105856Y51787678D01*
X-28105854Y51787678D01*
X-27937551Y51761021D01*
X-27864809Y51749500D01*
X-27864808Y51749500D01*
X-25080756Y51749500D01*
X-25080755Y51749500D01*
X-25024875Y51758350D01*
X-24839709Y51787678D01*
X-24607594Y51863097D01*
X-24390139Y51973896D01*
X-24192705Y52117339D01*
X-24192700Y52117343D01*
X-24020125Y52289918D01*
X-24020121Y52289923D01*
X-23876678Y52487357D01*
X-23765879Y52704812D01*
X-23690460Y52936927D01*
X-23652282Y53177973D01*
X-23652282Y53422026D01*
X-23690460Y53663072D01*
X-23765879Y53895187D01*
X-23770181Y53903631D01*
X-23876676Y54112639D01*
X-23913335Y54163096D01*
X-24020121Y54310076D01*
X-24020125Y54310081D01*
X-24192700Y54482656D01*
X-24192705Y54482660D01*
X-24390139Y54626103D01*
X-24390143Y54626106D01*
X-24607597Y54736904D01*
X-24839706Y54812321D01*
X-25080755Y54850500D01*
X-25080756Y54850500D01*
X-26041532Y54850500D01*
X-26108571Y54870185D01*
X-26154326Y54922989D01*
X-26165532Y54974500D01*
X-26165532Y55824425D01*
X-26145847Y55891464D01*
X-26093043Y55937219D01*
X-26023885Y55947163D01*
X-25985237Y55934910D01*
X-25843475Y55862679D01*
X-25809604Y55845421D01*
X-25562525Y55765140D01*
X-25305934Y55724500D01*
X-25305929Y55724500D01*
X-25046130Y55724500D01*
X-24789538Y55765140D01*
X-24542455Y55845422D01*
X-24310977Y55963368D01*
X-24100806Y56116066D01*
X-24100800Y56116071D01*
X-23993713Y56223159D01*
X-23932390Y56256644D01*
X-23862698Y56251660D01*
X-23818351Y56223159D01*
X-23711263Y56116071D01*
X-23711257Y56116066D01*
X-23545417Y55995576D01*
X-23501083Y55963366D01*
X-23451490Y55938097D01*
X-23269608Y55845422D01*
X-23022525Y55765140D01*
X-22765934Y55724500D01*
X-22765929Y55724500D01*
X-22506130Y55724500D01*
X-22249538Y55765140D01*
X-22002455Y55845422D01*
X-21770977Y55963368D01*
X-21560806Y56116066D01*
X-21560800Y56116071D01*
X-21453713Y56223159D01*
X-21392390Y56256644D01*
X-21322698Y56251660D01*
X-21278351Y56223159D01*
X-21171263Y56116071D01*
X-21171257Y56116066D01*
X-21005417Y55995576D01*
X-20961083Y55963366D01*
X-20911490Y55938097D01*
X-20729608Y55845422D01*
X-20482525Y55765140D01*
X-20225934Y55724500D01*
X-20225929Y55724500D01*
X-19966130Y55724500D01*
X-19709538Y55765140D01*
X-19462455Y55845422D01*
X-19230977Y55963368D01*
X-19020806Y56116066D01*
X-19020800Y56116071D01*
X-18913713Y56223159D01*
X-18852390Y56256644D01*
X-18782698Y56251660D01*
X-18738351Y56223159D01*
X-18631263Y56116071D01*
X-18631257Y56116066D01*
X-18465417Y55995576D01*
X-18421083Y55963366D01*
X-18371490Y55938097D01*
X-18189608Y55845422D01*
X-17942525Y55765140D01*
X-17685934Y55724500D01*
X-17685929Y55724500D01*
X-17426130Y55724500D01*
X-17169538Y55765140D01*
X-16922455Y55845422D01*
X-16690977Y55963368D01*
X-16480806Y56116066D01*
X-16480800Y56116071D01*
X-16373713Y56223159D01*
X-16312390Y56256644D01*
X-16242698Y56251660D01*
X-16198351Y56223159D01*
X-16091263Y56116071D01*
X-16091257Y56116066D01*
X-15925417Y55995576D01*
X-15881083Y55963366D01*
X-15831490Y55938097D01*
X-15649608Y55845422D01*
X-15402525Y55765140D01*
X-15145934Y55724500D01*
X-15145929Y55724500D01*
X-14886130Y55724500D01*
X-14629538Y55765140D01*
X-14382455Y55845422D01*
X-14150977Y55963368D01*
X-13940806Y56116066D01*
X-13940800Y56116071D01*
X-13833713Y56223159D01*
X-13772390Y56256644D01*
X-13702698Y56251660D01*
X-13658351Y56223159D01*
X-13551263Y56116071D01*
X-13551257Y56116066D01*
X-13385417Y55995576D01*
X-13341083Y55963366D01*
X-13291490Y55938097D01*
X-13109608Y55845422D01*
X-12862525Y55765140D01*
X-12605934Y55724500D01*
X-12605929Y55724500D01*
X-12346130Y55724500D01*
X-12089538Y55765140D01*
X-11842455Y55845422D01*
X-11610977Y55963368D01*
X-11400806Y56116066D01*
X-11400800Y56116071D01*
X-11293713Y56223159D01*
X-11232390Y56256644D01*
X-11162698Y56251660D01*
X-11118351Y56223159D01*
X-11011263Y56116071D01*
X-11011257Y56116066D01*
X-10845417Y55995576D01*
X-10801083Y55963366D01*
X-10751490Y55938097D01*
X-10569608Y55845422D01*
X-10322525Y55765140D01*
X-10065934Y55724500D01*
X-10065929Y55724500D01*
X-9806130Y55724500D01*
X-9549538Y55765140D01*
X-9302455Y55845422D01*
X-9070977Y55963368D01*
X-8860806Y56116066D01*
X-8860800Y56116071D01*
X-8753713Y56223159D01*
X-8692390Y56256644D01*
X-8622698Y56251660D01*
X-8578351Y56223159D01*
X-8471263Y56116071D01*
X-8471257Y56116066D01*
X-8305417Y55995576D01*
X-8261083Y55963366D01*
X-8211490Y55938097D01*
X-8029608Y55845422D01*
X-7782525Y55765140D01*
X-7525934Y55724500D01*
X-7525929Y55724500D01*
X-7266130Y55724500D01*
X-7009538Y55765140D01*
X-6762455Y55845422D01*
X-6530977Y55963368D01*
X-6320806Y56116066D01*
X-6320800Y56116071D01*
X-6213713Y56223159D01*
X-6152390Y56256644D01*
X-6082698Y56251660D01*
X-6038351Y56223159D01*
X-5931263Y56116071D01*
X-5931257Y56116066D01*
X-5765417Y55995576D01*
X-5721083Y55963366D01*
X-5671490Y55938097D01*
X-5489608Y55845422D01*
X-5242525Y55765140D01*
X-4985934Y55724500D01*
X-4985929Y55724500D01*
X-4726130Y55724500D01*
X-4469538Y55765140D01*
X-4222455Y55845422D01*
X-3990978Y55963367D01*
X-3929251Y56008214D01*
X-3863445Y56031693D01*
X-3795391Y56015867D01*
X-3768686Y55995576D01*
X-3668294Y55895184D01*
X-3515555Y55799211D01*
X-3345286Y55739631D01*
X-3345281Y55739630D01*
X-3210992Y55724500D01*
X-3210986Y55724500D01*
X-1421071Y55724500D01*
X-1286782Y55739630D01*
X-1286777Y55739631D01*
X-1116506Y55799212D01*
X-1106509Y55805494D01*
X-1040538Y55824500D01*
X4852718Y55824500D01*
X4919757Y55804815D01*
X4965512Y55752011D01*
X4976718Y55700500D01*
X4976718Y55477973D01*
X5014896Y55236927D01*
X5090315Y55004812D01*
X5201114Y54787357D01*
X5344557Y54589923D01*
X5344561Y54589918D01*
X5517136Y54417343D01*
X5517141Y54417339D01*
X5714575Y54273896D01*
X5932030Y54163097D01*
X6164145Y54087678D01*
X6349311Y54058350D01*
X6405191Y54049500D01*
X6405192Y54049500D01*
X9189244Y54049500D01*
X9189245Y54049500D01*
X9261987Y54061021D01*
X9430290Y54087678D01*
X9430292Y54087678D01*
X9430294Y54087679D01*
X9662403Y54163096D01*
X9879857Y54273894D01*
X9879860Y54273896D01*
X10077294Y54417339D01*
X10077299Y54417343D01*
X11448137Y55788181D01*
X11509460Y55821666D01*
X11535818Y55824500D01*
X16606325Y55824500D01*
X16606326Y55824500D01*
X16679068Y55836021D01*
X16847371Y55862678D01*
X16847373Y55862678D01*
X16847375Y55862679D01*
X17079484Y55938096D01*
X17296938Y56048894D01*
X17389400Y56116071D01*
X17494375Y56192339D01*
X17494380Y56192343D01*
X20949874Y59647837D01*
X20949878Y59647842D01*
X21093321Y59845276D01*
X21093324Y59845280D01*
X21204122Y60062734D01*
X21279539Y60294843D01*
X21317718Y60535892D01*
X21317718Y60779946D01*
X21317718Y61271176D01*
X21323787Y61309494D01*
X21377077Y61473502D01*
X21377077Y61473505D01*
X21377078Y61473507D01*
X21394075Y61580827D01*
X21417718Y61730097D01*
X21417718Y61989902D01*
X21399757Y62103298D01*
X21377078Y62246493D01*
X21296797Y62493572D01*
X21178852Y62725051D01*
X21026149Y62935229D01*
X20842447Y63118931D01*
X20632269Y63271634D01*
X20400790Y63389579D01*
X20153711Y63469860D01*
X20010516Y63492539D01*
X19897120Y63510500D01*
X19897115Y63510500D01*
X19637321Y63510500D01*
X19637316Y63510500D01*
X19512924Y63490797D01*
X19380725Y63469860D01*
X19133646Y63389579D01*
X19133643Y63389577D01*
X19133641Y63389577D01*
X19099775Y63372321D01*
X18902167Y63271634D01*
X18691989Y63118931D01*
X18691986Y63118928D01*
X18584899Y63011841D01*
X18576953Y63007502D01*
X18571528Y63000255D01*
X18546768Y62991020D01*
X18523576Y62978356D01*
X18514546Y62979001D01*
X18506064Y62975838D01*
X18480243Y62981454D01*
X18453884Y62983340D01*
X18444830Y62989158D01*
X18437791Y62990690D01*
X18409537Y63011841D01*
X18379059Y63042319D01*
X18345574Y63103642D01*
X18350558Y63173334D01*
X18379059Y63217681D01*
X18486146Y63324768D01*
X18486149Y63324771D01*
X18638852Y63534949D01*
X18714005Y63682445D01*
X18756795Y63766423D01*
X18756797Y63766428D01*
X18837078Y64013507D01*
X18856165Y64134021D01*
X18877718Y64270097D01*
X18877718Y64529902D01*
X18859757Y64643298D01*
X18837078Y64786493D01*
X18756797Y65033572D01*
X18638852Y65265051D01*
X18486149Y65475229D01*
X18379059Y65582319D01*
X18345574Y65643642D01*
X18350558Y65713334D01*
X18379059Y65757681D01*
X18486146Y65864768D01*
X18486149Y65864771D01*
X18638852Y66074949D01*
X18714005Y66222445D01*
X18756795Y66306423D01*
X18756797Y66306428D01*
X18837078Y66553507D01*
X18856165Y66674021D01*
X18877718Y66810097D01*
X18877718Y67069902D01*
X18859757Y67183298D01*
X18837078Y67326493D01*
X18756797Y67573572D01*
X18638852Y67805051D01*
X18486149Y68015229D01*
X18379059Y68122319D01*
X18374720Y68130264D01*
X18367472Y68135691D01*
X18358237Y68160450D01*
X18345574Y68183642D01*
X18346219Y68192672D01*
X18343056Y68201156D01*
X18348672Y68226974D01*
X18350558Y68253334D01*
X18356377Y68262389D01*
X18357909Y68269429D01*
X18379057Y68297679D01*
X18409538Y68328160D01*
X18470862Y68361644D01*
X18540553Y68356658D01*
X18584899Y68328159D01*
X18691992Y68221066D01*
X18902163Y68068368D01*
X19133641Y67950422D01*
X19380724Y67870140D01*
X19637316Y67829500D01*
X19637321Y67829500D01*
X19897120Y67829500D01*
X20153712Y67870140D01*
X20153715Y67870140D01*
X20317724Y67923431D01*
X20356042Y67929500D01*
X21129244Y67929500D01*
X21129245Y67929500D01*
X21201987Y67941021D01*
X21370290Y67967678D01*
X21370292Y67967678D01*
X21370294Y67967679D01*
X21602403Y68043096D01*
X21819857Y68153894D01*
X21873231Y68192672D01*
X22017294Y68297339D01*
X22017299Y68297343D01*
X23350874Y69630918D01*
X23350878Y69630923D01*
X23494321Y69828357D01*
X23494324Y69828361D01*
X23605122Y70045815D01*
X23680539Y70277924D01*
X23718718Y70518973D01*
X23718718Y70763027D01*
X23718718Y79289059D01*
X23680539Y79530108D01*
X23605122Y79762217D01*
X23494324Y79979671D01*
X23350873Y80177115D01*
X23178301Y80349687D01*
X20796652Y82731334D01*
X20763168Y82792657D01*
X20768152Y82862349D01*
X20796653Y82906696D01*
X21803138Y83913181D01*
X21864461Y83946666D01*
X21890819Y83949500D01*
X23822026Y83949500D01*
X23822027Y83949500D01*
X23894769Y83961021D01*
X24063072Y83987678D01*
X24063074Y83987678D01*
X24063076Y83987679D01*
X24295185Y84063096D01*
X24512639Y84173894D01*
X24530174Y84186634D01*
X24710076Y84317339D01*
X24710081Y84317343D01*
X24882656Y84489918D01*
X24882660Y84489923D01*
X25026103Y84687357D01*
X25026106Y84687361D01*
X25136904Y84904815D01*
X25212321Y85136924D01*
X25250500Y85377973D01*
X25250500Y85622027D01*
X25212321Y85863076D01*
X25136904Y86095185D01*
X25026106Y86312639D01*
X24882655Y86510083D01*
X24710083Y86682655D01*
X24512639Y86826106D01*
X24295185Y86936904D01*
X24063076Y87012321D01*
X23822027Y87050500D01*
X21037973Y87050500D01*
X20796924Y87012321D01*
X20564815Y86936904D01*
X20347361Y86826106D01*
X20347357Y86826103D01*
X20149923Y86682660D01*
X20149918Y86682656D01*
X19977347Y86510085D01*
X19977342Y86510079D01*
X19884195Y86381873D01*
X19871558Y86367077D01*
X18603915Y85099434D01*
X18542592Y85065949D01*
X18472900Y85070933D01*
X18428553Y85099434D01*
X17432800Y86095187D01*
X16333536Y87194450D01*
X16309502Y87228321D01*
X16245695Y87360820D01*
X16161430Y87466485D01*
X14966485Y88661430D01*
X14860820Y88745695D01*
X14698294Y88823964D01*
X14589484Y88848798D01*
X14560796Y88859200D01*
X14453435Y88913904D01*
X14221326Y88989321D01*
X13980277Y89027500D01*
X-36373755Y89027500D01*
X-36617809Y89027500D01*
X-36858858Y88989321D01*
X-37090967Y88913904D01*
X-37308421Y88803106D01*
X-37505865Y88659655D01*
X-38882865Y87282655D01*
X-38886115Y87279405D01*
X-39058687Y87106833D01*
X-39202138Y86909389D01*
X-39312936Y86691935D01*
X-39388353Y86459826D01*
X-39401950Y86373978D01*
X-39426532Y86218776D01*
X-39426532Y83363822D01*
X-39432600Y83325506D01*
X-39485892Y83161493D01*
X-39526532Y82904902D01*
X-44499500Y82904902D01*
X-44499500Y91375500D01*
X-44479815Y91442539D01*
X-44427011Y91488294D01*
X-44375500Y91499500D01*
X29375500Y91499500D01*
X29442539Y91479815D01*
G37*
%TD.AperFunction*%
%TD*%
M02*
