M48
; DRILL file {KiCad 9.0.0} date 2026-02-11T10:29:01-0300
; FORMAT={-:-/ absolute / metric / decimal}
; #@! TF.CreationDate,2026-02-11T10:29:01-03:00
; #@! TF.GenerationSoftware,Kicad,Pcbnew,9.0.0
; #@! TF.FileFunction,MixedPlating,1,2
FMAT,2
METRIC
; #@! TA.AperFunction,Plated,PTH,ComponentDrill
T1C0.700
; #@! TA.AperFunction,Plated,PTH,ViaDrill
T2C0.800
; #@! TA.AperFunction,Plated,PTH,ComponentDrill
T3C0.800
; #@! TA.AperFunction,Plated,PTH,ComponentDrill
T4C1.000
; #@! TA.AperFunction,Plated,PTH,ViaDrill
T5C3.000
%
G90
G05
T1
X-27.743Y53.3
X-25.203Y53.3
X6.387Y81.2
X6.427Y85.1
X6.527Y72.9
X6.527Y69.5
X6.527Y64.3
X6.527Y60.0
X6.527Y55.6
X6.587Y77.1
X8.927Y81.2
X8.967Y85.1
X9.067Y72.9
X9.067Y69.5
X9.067Y64.3
X9.067Y60.0
X9.067Y55.6
X9.1Y66.9
X9.127Y77.1
X11.64Y66.9
X15.897Y50.8
X18.437Y50.8
X21.16Y85.5
X23.7Y85.5
T2
X-9.873Y77.7
X3.527Y64.4
X12.327Y79.5
X12.327Y72.0
T3
X-37.873Y77.62
X-32.873Y77.62
X14.432Y86.932
X16.2Y88.7
T4
X-37.876Y82.775
X-37.876Y57.375
X-35.336Y82.775
X-35.336Y57.375
X-32.796Y82.775
X-32.796Y57.375
X-30.256Y82.775
X-30.256Y57.375
X-27.716Y82.775
X-27.716Y57.375
X-25.176Y82.775
X-25.176Y57.375
X-22.636Y82.775
X-22.636Y57.375
X-20.096Y82.775
X-20.096Y57.375
X-17.556Y82.775
X-17.556Y57.375
X-15.016Y82.775
X-15.016Y57.375
X-12.476Y82.775
X-12.476Y57.375
X-9.936Y82.775
X-9.936Y57.375
X-7.396Y82.775
X-7.396Y57.375
X-4.856Y82.775
X-4.856Y57.375
X-2.316Y82.775
X-2.316Y57.375
X17.227Y77.1
X17.227Y74.56
X17.227Y72.02
X17.227Y69.48
X17.227Y66.94
X17.227Y64.4
X17.227Y61.86
X19.767Y77.1
X19.767Y74.56
X19.767Y72.02
X19.767Y69.48
X19.767Y66.94
X19.767Y64.4
X19.767Y61.86
T5
X-41.8Y88.7
X-41.8Y51.0
X26.9Y51.1
X27.0Y88.7
M30
