%TF.GenerationSoftware,KiCad,Pcbnew,9.0.0*%
%TF.CreationDate,2026-02-09T13:58:03-03:00*%
%TF.ProjectId,Placa_Mae,506c6163-615f-44d6-9165-2e6b69636164,rev?*%
%TF.SameCoordinates,Original*%
%TF.FileFunction,Copper,L2,Bot*%
%TF.FilePolarity,Positive*%
%FSLAX46Y46*%
G04 Gerber Fmt 4.6, Leading zero omitted, Abs format (unit mm)*
G04 Created by KiCad (PCBNEW 9.0.0) date 2026-02-09 13:58:03*
%MOMM*%
%LPD*%
G01*
G04 APERTURE LIST*
G04 Aperture macros list*
%AMRoundRect*
0 Rectangle with rounded corners*
0 $1 Rounding radius*
0 $2 $3 $4 $5 $6 $7 $8 $9 X,Y pos of 4 corners*
0 Add a 4 corners polygon primitive as box body*
4,1,4,$2,$3,$4,$5,$6,$7,$8,$9,$2,$3,0*
0 Add four circle primitives for the rounded corners*
1,1,$1+$1,$2,$3*
1,1,$1+$1,$4,$5*
1,1,$1+$1,$6,$7*
1,1,$1+$1,$8,$9*
0 Add four rect primitives between the rounded corners*
20,1,$1+$1,$2,$3,$4,$5,0*
20,1,$1+$1,$4,$5,$6,$7,0*
20,1,$1+$1,$6,$7,$8,$9,0*
20,1,$1+$1,$8,$9,$2,$3,0*%
G04 Aperture macros list end*
%TA.AperFunction,ComponentPad*%
%ADD10RoundRect,0.250000X-0.750000X-0.750000X0.750000X-0.750000X0.750000X0.750000X-0.750000X0.750000X0*%
%TD*%
%TA.AperFunction,ComponentPad*%
%ADD11C,2.000000*%
%TD*%
%TA.AperFunction,ComponentPad*%
%ADD12RoundRect,0.250000X1.050000X-1.050000X1.050000X1.050000X-1.050000X1.050000X-1.050000X-1.050000X0*%
%TD*%
%TA.AperFunction,ComponentPad*%
%ADD13C,2.600000*%
%TD*%
%TA.AperFunction,ComponentPad*%
%ADD14C,1.400000*%
%TD*%
%TA.AperFunction,ComponentPad*%
%ADD15R,1.600000X1.600000*%
%TD*%
%TA.AperFunction,ComponentPad*%
%ADD16C,1.600000*%
%TD*%
%TA.AperFunction,ComponentPad*%
%ADD17C,2.400000*%
%TD*%
%TA.AperFunction,ComponentPad*%
%ADD18RoundRect,0.250000X-0.600000X-0.600000X0.600000X-0.600000X0.600000X0.600000X-0.600000X0.600000X0*%
%TD*%
%TA.AperFunction,ComponentPad*%
%ADD19C,1.700000*%
%TD*%
%TA.AperFunction,ComponentPad*%
%ADD20O,2.400000X2.400000*%
%TD*%
%TA.AperFunction,SMDPad,CuDef*%
%ADD21RoundRect,0.250000X0.625000X-0.400000X0.625000X0.400000X-0.625000X0.400000X-0.625000X-0.400000X0*%
%TD*%
%TA.AperFunction,ViaPad*%
%ADD22C,2.000000*%
%TD*%
%TA.AperFunction,ViaPad*%
%ADD23C,3.000000*%
%TD*%
%TA.AperFunction,Conductor*%
%ADD24C,2.000000*%
%TD*%
%TA.AperFunction,Conductor*%
%ADD25C,1.000000*%
%TD*%
G04 APERTURE END LIST*
D10*
%TO.P,J3,1,Pin_1*%
%TO.N,+12V*%
X166200000Y-48600000D03*
D11*
%TO.P,J3,2,Pin_2*%
%TO.N,GND*%
X168740000Y-48600000D03*
%TO.P,J3,3,Pin_3*%
%TO.N,/U3*%
X171280000Y-48600000D03*
%TO.P,J3,4,Pin_4*%
%TO.N,Net-(J3-Pin_4)*%
X173820000Y-48600000D03*
%TO.P,J3,5,Pin_5*%
%TO.N,/vc1+*%
X176360000Y-48600000D03*
%TD*%
D12*
%TO.P,J7,1,Pin_1*%
%TO.N,Net-(J7-Pin_1)*%
X207000000Y-53700000D03*
D13*
%TO.P,J7,2,Pin_2*%
%TO.N,Net-(J3-Pin_4)*%
X207000000Y-48700000D03*
%TD*%
D14*
%TO.P,TP3,1,1*%
%TO.N,+5V*%
X98460000Y-41000000D03*
X103540000Y-41000000D03*
%TD*%
D10*
%TO.P,J8,1,Pin_1*%
%TO.N,GND*%
X129104441Y-96252220D03*
D11*
%TO.P,J8,2,Pin_2*%
%TO.N,/vc2-*%
X131644441Y-96252220D03*
%TO.P,J8,3,Pin_3*%
%TO.N,-12V*%
X134184441Y-96252220D03*
%TO.P,J8,4,Pin_4*%
%TO.N,/vc2+*%
X136724441Y-96252220D03*
%TO.P,J8,5,Pin_5*%
%TO.N,+12V*%
X139264441Y-96252220D03*
%TO.P,J8,6,Pin_6*%
%TO.N,/vc2*%
X141804441Y-96252220D03*
%TD*%
D15*
%TO.P,C4,1*%
%TO.N,+12V*%
X85400000Y-60400000D03*
D16*
%TO.P,C4,2*%
%TO.N,GND*%
X85400000Y-62900000D03*
%TD*%
D14*
%TO.P,TP8,1,1*%
%TO.N,Net-(J3-Pin_4)*%
X182200000Y-46400000D03*
X182200000Y-51480000D03*
%TD*%
D17*
%TO.P,C2,1*%
%TO.N,/vc2+*%
X117700000Y-48600000D03*
%TO.P,C2,2*%
%TO.N,/vc2-*%
X117700000Y-76100000D03*
%TD*%
D11*
%TO.P,SW2,1,1*%
%TO.N,/vc2-*%
X120919492Y-44586713D03*
X114419492Y-44586713D03*
%TO.P,SW2,2,2*%
%TO.N,/vc2+*%
X120919492Y-40086713D03*
X114419492Y-40086713D03*
%TD*%
D14*
%TO.P,TP6,1,1*%
%TO.N,/vc1+*%
X161700000Y-75080000D03*
X161700000Y-70000000D03*
%TD*%
D10*
%TO.P,J2,1,Pin_1*%
%TO.N,+12V*%
X129400000Y-48600000D03*
D11*
%TO.P,J2,2,Pin_2*%
%TO.N,GND*%
X131940000Y-48600000D03*
%TO.P,J2,3,Pin_3*%
%TO.N,/U2*%
X134480000Y-48600000D03*
%TO.P,J2,4,Pin_4*%
%TO.N,/vc1+*%
X137020000Y-48600000D03*
%TO.P,J2,5,Pin_5*%
%TO.N,/vc2+*%
X139560000Y-48600000D03*
%TD*%
D18*
%TO.P,J12,1,Pin_1*%
%TO.N,/U3*%
X206160000Y-79740000D03*
D19*
%TO.P,J12,2,Pin_2*%
%TO.N,/vr*%
X208700000Y-79740000D03*
%TO.P,J12,3,Pin_3*%
%TO.N,/~{U3}*%
X206160000Y-82280000D03*
%TO.P,J12,4,Pin_4*%
%TO.N,GND*%
X208700000Y-82280000D03*
%TO.P,J12,5,Pin_5*%
%TO.N,/vc1*%
X206160000Y-84820000D03*
%TO.P,J12,6,Pin_6*%
%TO.N,GND*%
X208700000Y-84820000D03*
%TO.P,J12,7,Pin_7*%
%TO.N,/U2*%
X206160000Y-87360000D03*
%TO.P,J12,8,Pin_8*%
%TO.N,+5V*%
X208700000Y-87360000D03*
%TO.P,J12,9,Pin_9*%
%TO.N,/~{U2}*%
X206160000Y-89900000D03*
%TO.P,J12,10,Pin_10*%
%TO.N,GND*%
X208700000Y-89900000D03*
%TO.P,J12,11,Pin_11*%
%TO.N,/vc2*%
X206160000Y-92440000D03*
%TO.P,J12,12,Pin_12*%
%TO.N,GND*%
X208700000Y-92440000D03*
%TO.P,J12,13,Pin_13*%
%TO.N,/U1*%
X206160000Y-94980000D03*
%TO.P,J12,14,Pin_14*%
%TO.N,/~{U1}*%
X208700000Y-94980000D03*
%TD*%
D10*
%TO.P,J4,1,Pin_1*%
%TO.N,+12V*%
X92208750Y-72385607D03*
D11*
%TO.P,J4,2,Pin_2*%
%TO.N,GND*%
X94748750Y-72385607D03*
%TO.P,J4,3,Pin_3*%
%TO.N,/~{U1}*%
X97288750Y-72385607D03*
%TO.P,J4,4,Pin_4*%
%TO.N,/vc2-*%
X99828750Y-72385607D03*
%TO.P,J4,5,Pin_5*%
%TO.N,GND*%
X102368750Y-72385607D03*
%TD*%
D10*
%TO.P,J9,1,Pin_1*%
%TO.N,GND*%
X166300000Y-96300000D03*
D11*
%TO.P,J9,2,Pin_2*%
%TO.N,/vc1-*%
X168840000Y-96300000D03*
%TO.P,J9,3,Pin_3*%
%TO.N,-12V*%
X171380000Y-96300000D03*
%TO.P,J9,4,Pin_4*%
%TO.N,/vc1+*%
X173920000Y-96300000D03*
%TO.P,J9,5,Pin_5*%
%TO.N,+12V*%
X176460000Y-96300000D03*
%TO.P,J9,6,Pin_6*%
%TO.N,/vc1*%
X179000000Y-96300000D03*
%TD*%
%TO.P,SW1,1,1*%
%TO.N,/vc1-*%
X157700000Y-44600000D03*
X151200000Y-44600000D03*
%TO.P,SW1,2,2*%
%TO.N,/vc1+*%
X157700000Y-40100000D03*
X151200000Y-40100000D03*
%TD*%
D10*
%TO.P,J6,1,Pin_1*%
%TO.N,+12V*%
X166200000Y-72400000D03*
D11*
%TO.P,J6,2,Pin_2*%
%TO.N,GND*%
X168740000Y-72400000D03*
%TO.P,J6,3,Pin_3*%
%TO.N,/~{U3}*%
X171280000Y-72400000D03*
%TO.P,J6,4,Pin_4*%
%TO.N,Net-(J3-Pin_4)*%
X173820000Y-72400000D03*
%TO.P,J6,5,Pin_5*%
%TO.N,/vc1-*%
X176360000Y-72400000D03*
%TD*%
D14*
%TO.P,TP7,1,1*%
%TO.N,/vc1-*%
X146900000Y-75080000D03*
X146900000Y-70000000D03*
%TD*%
D10*
%TO.P,J5,1,Pin_1*%
%TO.N,+12V*%
X129400000Y-72400000D03*
D11*
%TO.P,J5,2,Pin_2*%
%TO.N,GND*%
X131940000Y-72400000D03*
%TO.P,J5,3,Pin_3*%
%TO.N,/~{U2}*%
X134480000Y-72400000D03*
%TO.P,J5,4,Pin_4*%
%TO.N,/vc1-*%
X137020000Y-72400000D03*
%TO.P,J5,5,Pin_5*%
%TO.N,/vc2-*%
X139560000Y-72400000D03*
%TD*%
D17*
%TO.P,C1,1*%
%TO.N,/vc1+*%
X154469402Y-48598170D03*
%TO.P,C1,2*%
%TO.N,/vc1-*%
X154469402Y-76098170D03*
%TD*%
D15*
%TO.P,C3,1*%
%TO.N,+5V*%
X107300000Y-45700000D03*
D16*
%TO.P,C3,2*%
%TO.N,GND*%
X109800000Y-45700000D03*
%TD*%
D17*
%TO.P,R4,1*%
%TO.N,GND*%
X189200000Y-73300000D03*
%TO.P,R4,2*%
%TO.N,Net-(J3-Pin_4)*%
X189200000Y-47900000D03*
%TD*%
D14*
%TO.P,TP2,1,1*%
%TO.N,GND*%
X89460000Y-41000000D03*
X94540000Y-41000000D03*
%TD*%
%TO.P,TP1,1,1*%
%TO.N,+12V*%
X85400000Y-54000000D03*
X85400000Y-48920000D03*
%TD*%
%TO.P,TP5,1,1*%
%TO.N,/vc2-*%
X110800000Y-75180000D03*
X110800000Y-70100000D03*
%TD*%
D17*
%TO.P,R1,1*%
%TO.N,GND*%
X195500000Y-73300000D03*
D20*
%TO.P,R1,2*%
%TO.N,Net-(J7-Pin_1)*%
X195500000Y-47900000D03*
%TD*%
D10*
%TO.P,J1,1,Pin_1*%
%TO.N,+12V*%
X92180000Y-48600000D03*
D11*
%TO.P,J1,2,Pin_2*%
%TO.N,GND*%
X94720000Y-48600000D03*
%TO.P,J1,3,Pin_3*%
%TO.N,/U1*%
X97260000Y-48600000D03*
%TO.P,J1,4,Pin_4*%
%TO.N,/vc2+*%
X99800000Y-48600000D03*
%TO.P,J1,5,Pin_5*%
%TO.N,+5V*%
X102340000Y-48600000D03*
%TD*%
D14*
%TO.P,TP4,1,1*%
%TO.N,/vc2+*%
X124400000Y-70020000D03*
X124400000Y-75100000D03*
%TD*%
%TO.P,TP10,1,1*%
%TO.N,-12V*%
X85400000Y-93480000D03*
X85400000Y-88400000D03*
%TD*%
%TO.P,TP9,1,1*%
%TO.N,Net-(J7-Pin_1)*%
X205000000Y-60300000D03*
X210080000Y-60300000D03*
%TD*%
D21*
%TO.P,R2,1*%
%TO.N,/vr*%
X208600000Y-67900000D03*
%TO.P,R2,2*%
%TO.N,Net-(J7-Pin_1)*%
X208600000Y-64800000D03*
%TD*%
%TO.P,R3,1*%
%TO.N,/vr*%
X211400000Y-67900000D03*
%TO.P,R3,2*%
%TO.N,GND*%
X211400000Y-64800000D03*
%TD*%
D22*
%TO.N,GND*%
X155300000Y-82200000D03*
X171300000Y-82200000D03*
X142400000Y-43800000D03*
X110800000Y-77800000D03*
X179200000Y-43800000D03*
D23*
X84400000Y-35500000D03*
D22*
X108700000Y-40600000D03*
D23*
X218000000Y-106000000D03*
D22*
X157200000Y-93900000D03*
X146900000Y-93900000D03*
X106200000Y-73000000D03*
X201300000Y-70900000D03*
X173600000Y-43800000D03*
D23*
X84000000Y-106000000D03*
D22*
X106100000Y-77800000D03*
X135900000Y-43800000D03*
X130600000Y-79000000D03*
X106200000Y-67300000D03*
D23*
X217900000Y-35400000D03*
D22*
X102900000Y-36800000D03*
X211500000Y-70900000D03*
X115800000Y-79000000D03*
%TO.N,+12V*%
X129400000Y-59400000D03*
X176500000Y-87900000D03*
X139300000Y-87900000D03*
X139200000Y-84500000D03*
X166200000Y-59400000D03*
X114400000Y-59400000D03*
X151300000Y-59400000D03*
X143500000Y-59400000D03*
%TO.N,/U3*%
X176600000Y-54800000D03*
X171300000Y-54800000D03*
%TO.N,/~{U3}*%
X176600000Y-57600000D03*
X171300000Y-57600000D03*
%TO.N,-12V*%
X120700000Y-101300000D03*
X171344365Y-91855635D03*
X134184441Y-91984441D03*
X145100000Y-98800000D03*
%TD*%
D24*
%TO.N,/vc1-*%
X175401830Y-76098170D02*
X165902380Y-76098170D01*
X146900000Y-75080000D02*
X150180000Y-75080000D01*
X162204210Y-72400000D02*
X158167572Y-72400000D01*
X150180000Y-75080000D02*
X150200000Y-75100000D01*
X154469402Y-76098170D02*
X168840000Y-90468768D01*
X150200000Y-75100000D02*
X153100000Y-75100000D01*
X146900000Y-70000000D02*
X138300000Y-70000000D01*
X158167572Y-72400000D02*
X154469402Y-76098170D01*
X138300000Y-70000000D02*
X137020000Y-71280000D01*
X154098170Y-76098170D02*
X154469402Y-76098170D01*
X153100000Y-75100000D02*
X154098170Y-76098170D01*
X168840000Y-90468768D02*
X168840000Y-96300000D01*
X157700000Y-44600000D02*
X157700000Y-72622784D01*
X176360000Y-72400000D02*
X176360000Y-75140000D01*
X176360000Y-75140000D02*
X175401830Y-76098170D01*
X137020000Y-71280000D02*
X137020000Y-72400000D01*
X165902380Y-76098170D02*
X162204210Y-72400000D01*
%TO.N,/vc1+*%
X161700000Y-40100000D02*
X174300000Y-40100000D01*
X137900000Y-52000000D02*
X153100000Y-52000000D01*
X173920000Y-89720000D02*
X173920000Y-96300000D01*
X153100000Y-52000000D02*
X154469402Y-50630598D01*
X136740000Y-48880000D02*
X136740000Y-50840000D01*
X154469402Y-50630598D02*
X154469402Y-48598170D01*
X176360000Y-42160000D02*
X176360000Y-48600000D01*
X136740000Y-50840000D02*
X137900000Y-52000000D01*
X137020000Y-48600000D02*
X136740000Y-48880000D01*
X154469402Y-48598170D02*
X154469402Y-43369402D01*
X174300000Y-40100000D02*
X176360000Y-42160000D01*
X157700000Y-40100000D02*
X161700000Y-40100000D01*
X154469402Y-43369402D02*
X151200000Y-40100000D01*
X157700000Y-40100000D02*
X154469402Y-43330598D01*
X161700000Y-75080000D02*
X161700000Y-77500000D01*
X154469402Y-43330598D02*
X154469402Y-43369402D01*
X161700000Y-77500000D02*
X173920000Y-89720000D01*
X161700000Y-70000000D02*
X161700000Y-40100000D01*
%TO.N,/vc2+*%
X121832779Y-41000000D02*
X124400000Y-41000000D01*
X124400000Y-78100000D02*
X136724441Y-90424441D01*
X116400000Y-51200000D02*
X117700000Y-49900000D01*
X120919492Y-40086713D02*
X121832779Y-41000000D01*
X124400000Y-41000000D02*
X137140000Y-41000000D01*
X117700000Y-48600000D02*
X117700000Y-43367221D01*
X99800000Y-49800000D02*
X101200000Y-51200000D01*
X101200000Y-51200000D02*
X109700000Y-51200000D01*
X117700000Y-43367221D02*
X114419492Y-40086713D01*
X139280000Y-43140000D02*
X139280000Y-48320000D01*
X124400000Y-75100000D02*
X124400000Y-78100000D01*
X99800000Y-48600000D02*
X99800000Y-49800000D01*
X137140000Y-41000000D02*
X139280000Y-43140000D01*
X139280000Y-48320000D02*
X139560000Y-48600000D01*
X136724441Y-90424441D02*
X136724441Y-96252220D01*
X124400000Y-70020000D02*
X124400000Y-41000000D01*
X120919492Y-40147729D02*
X117700000Y-43367221D01*
X117700000Y-49900000D02*
X117700000Y-48600000D01*
X120919492Y-40086713D02*
X120919492Y-40147729D01*
X109700000Y-51200000D02*
X116400000Y-51200000D01*
%TO.N,+12V*%
X139300000Y-87900000D02*
X139300000Y-96216661D01*
X166200000Y-72400000D02*
X166200000Y-59400000D01*
X92180000Y-55600000D02*
X92180000Y-59400000D01*
X114400000Y-59400000D02*
X92180000Y-59400000D01*
X86000000Y-48600000D02*
X85400000Y-49200000D01*
X92180000Y-59400000D02*
X92180000Y-72356857D01*
X139300000Y-84600000D02*
X139200000Y-84500000D01*
X139300000Y-87900000D02*
X139300000Y-84600000D01*
X166200000Y-59400000D02*
X166200000Y-48600000D01*
X129400000Y-55600000D02*
X129400000Y-72400000D01*
X176500000Y-87900000D02*
X176460000Y-87940000D01*
X85400000Y-49200000D02*
X85400000Y-54000000D01*
X92180000Y-48600000D02*
X86000000Y-48600000D01*
X176460000Y-87940000D02*
X176460000Y-96300000D01*
X139300000Y-96216661D02*
X139264441Y-96252220D01*
X129400000Y-55600000D02*
X129400000Y-48600000D01*
X85400000Y-48920000D02*
X85400000Y-60400000D01*
X92180000Y-72356857D02*
X92208750Y-72385607D01*
X129400000Y-59400000D02*
X143500000Y-59400000D01*
X143500000Y-59400000D02*
X151300000Y-59400000D01*
X92180000Y-48600000D02*
X92180000Y-55600000D01*
%TO.N,/vc2-*%
X139600000Y-72440000D02*
X139560000Y-72400000D01*
X110800000Y-75180000D02*
X110820000Y-75200000D01*
X121100000Y-72700000D02*
X125500000Y-72700000D01*
X110800000Y-70100000D02*
X100700144Y-70100000D01*
X131644441Y-96252220D02*
X131644441Y-90044441D01*
X139600000Y-74600000D02*
X139600000Y-72440000D01*
X100700144Y-70100000D02*
X99828750Y-70971394D01*
X110820000Y-75200000D02*
X116800000Y-75200000D01*
X138100000Y-76100000D02*
X139600000Y-74600000D01*
X131644441Y-90044441D02*
X117700000Y-76100000D01*
X128900000Y-76100000D02*
X138100000Y-76100000D01*
X117700000Y-76100000D02*
X121100000Y-72700000D01*
X99828750Y-70971394D02*
X99828750Y-72385607D01*
X125500000Y-72700000D02*
X128900000Y-76100000D01*
X120919492Y-72519492D02*
X121100000Y-72700000D01*
X120919492Y-44586713D02*
X120919492Y-72519492D01*
X116800000Y-75200000D02*
X117700000Y-76100000D01*
%TO.N,+5V*%
X108840000Y-35700000D02*
X202100000Y-35700000D01*
X105100000Y-45700000D02*
X103540000Y-44140000D01*
X103540000Y-41000000D02*
X108840000Y-35700000D01*
X98460000Y-41000000D02*
X103540000Y-41000000D01*
X211940000Y-87360000D02*
X208700000Y-87360000D01*
X103540000Y-44140000D02*
X103540000Y-41000000D01*
X107300000Y-45700000D02*
X105100000Y-45700000D01*
X215600000Y-49200000D02*
X215600000Y-83700000D01*
X105100000Y-45840000D02*
X105100000Y-45700000D01*
X202100000Y-35700000D02*
X215600000Y-49200000D01*
X102340000Y-48600000D02*
X105100000Y-45840000D01*
X215600000Y-83700000D02*
X211940000Y-87360000D01*
D25*
%TO.N,/U1*%
X108500000Y-73400000D02*
X108500000Y-82700000D01*
X97260000Y-48600000D02*
X97260000Y-50460000D01*
X118600000Y-55500000D02*
X118600000Y-70800000D01*
X116800000Y-72600000D02*
X109300000Y-72600000D01*
X97260000Y-50460000D02*
X100200000Y-53400000D01*
X118600000Y-70800000D02*
X116800000Y-72600000D01*
X192620000Y-94980000D02*
X206160000Y-94980000D01*
X183900000Y-103700000D02*
X192620000Y-94980000D01*
X108500000Y-82700000D02*
X129500000Y-103700000D01*
X100200000Y-53400000D02*
X116500000Y-53400000D01*
D24*
X97298180Y-48553820D02*
X97218180Y-48633820D01*
D25*
X109300000Y-72600000D02*
X108500000Y-73400000D01*
X129500000Y-103700000D02*
X183900000Y-103700000D01*
X116500000Y-53400000D02*
X118600000Y-55500000D01*
%TO.N,/U2*%
X206060000Y-87420000D02*
X191480000Y-87420000D01*
X152900000Y-54100000D02*
X136900000Y-54100000D01*
X144600000Y-74600000D02*
X146000000Y-73200000D01*
X144600000Y-85200000D02*
X144600000Y-74600000D01*
X146000000Y-73200000D02*
X153600000Y-73200000D01*
X158200000Y-98800000D02*
X144600000Y-85200000D01*
X191480000Y-87420000D02*
X180100000Y-98800000D01*
X136900000Y-54100000D02*
X134480000Y-51680000D01*
X180100000Y-98800000D02*
X158200000Y-98800000D01*
X153600000Y-73200000D02*
X155400000Y-71400000D01*
X155400000Y-56600000D02*
X152900000Y-54100000D01*
X155400000Y-71400000D02*
X155400000Y-56600000D01*
X134480000Y-51680000D02*
X134480000Y-48600000D01*
%TO.N,/U3*%
X194800000Y-50600000D02*
X202500000Y-58300000D01*
X186800000Y-50600000D02*
X194800000Y-50600000D01*
X176600000Y-54800000D02*
X182600000Y-54800000D01*
X171280000Y-54780000D02*
X171300000Y-54800000D01*
X206060000Y-65660000D02*
X206060000Y-79800000D01*
X202500000Y-62100000D02*
X206060000Y-65660000D01*
X182600000Y-54800000D02*
X186800000Y-50600000D01*
X202500000Y-58300000D02*
X202500000Y-62100000D01*
X171280000Y-48600000D02*
X171280000Y-54780000D01*
D24*
%TO.N,Net-(J3-Pin_4)*%
X182200000Y-51480000D02*
X182200000Y-46400000D01*
X191000000Y-47900000D02*
X189200000Y-47900000D01*
X182200000Y-46400000D02*
X187700000Y-46400000D01*
X197200000Y-45000000D02*
X193900000Y-45000000D01*
X200900000Y-48700000D02*
X197200000Y-45000000D01*
X174800000Y-51500000D02*
X176800000Y-51500000D01*
X173820000Y-50520000D02*
X174800000Y-51500000D01*
X193900000Y-45000000D02*
X191000000Y-47900000D01*
X173820000Y-72400000D02*
X173820000Y-52480000D01*
X176800000Y-51500000D02*
X176820000Y-51480000D01*
X173820000Y-52480000D02*
X174800000Y-51500000D01*
X176820000Y-51480000D02*
X182200000Y-51480000D01*
X187700000Y-46400000D02*
X189200000Y-47900000D01*
X173820000Y-48600000D02*
X173820000Y-50520000D01*
X207000000Y-48700000D02*
X200900000Y-48700000D01*
D25*
%TO.N,/~{U1}*%
X207700000Y-97700000D02*
X208700000Y-96700000D01*
X128500000Y-105300000D02*
X185600000Y-105300000D01*
X97288750Y-72385607D02*
X97288750Y-74088750D01*
X208700000Y-96700000D02*
X208700000Y-94980000D01*
X97288750Y-74088750D02*
X128500000Y-105300000D01*
X185600000Y-105300000D02*
X193200000Y-97700000D01*
X193200000Y-97700000D02*
X207700000Y-97700000D01*
%TO.N,/~{U2}*%
X206060000Y-89960000D02*
X191940000Y-89960000D01*
X148200000Y-67700000D02*
X137300000Y-67700000D01*
X134480000Y-70520000D02*
X134480000Y-72400000D01*
X148100000Y-71900000D02*
X149100000Y-70900000D01*
X191940000Y-89960000D02*
X181500000Y-100400000D01*
X157400000Y-100400000D02*
X142700000Y-85700000D01*
X149100000Y-68600000D02*
X148200000Y-67700000D01*
X142700000Y-74100000D02*
X144900000Y-71900000D01*
X137300000Y-67700000D02*
X134480000Y-70520000D01*
X142700000Y-85700000D02*
X142700000Y-74100000D01*
X181500000Y-100400000D02*
X157400000Y-100400000D01*
X144900000Y-71900000D02*
X148100000Y-71900000D01*
X149100000Y-70900000D02*
X149100000Y-68600000D01*
%TO.N,/~{U3}*%
X204100000Y-81500000D02*
X204940000Y-82340000D01*
X200400000Y-63000000D02*
X204100000Y-66700000D01*
X171300000Y-63800000D02*
X171280000Y-63820000D01*
X171300000Y-57600000D02*
X171300000Y-63800000D01*
X204940000Y-82340000D02*
X206060000Y-82340000D01*
X176600000Y-57600000D02*
X182500000Y-57600000D01*
X204100000Y-66700000D02*
X204100000Y-81500000D01*
X171280000Y-63820000D02*
X171280000Y-72400000D01*
X200400000Y-59000000D02*
X200400000Y-63000000D01*
X182500000Y-57600000D02*
X187600000Y-52500000D01*
X187600000Y-52500000D02*
X193900000Y-52500000D01*
X193900000Y-52500000D02*
X200400000Y-59000000D01*
%TO.N,/vc2*%
X206120000Y-92400000D02*
X192400000Y-92400000D01*
X192400000Y-92400000D02*
X182700000Y-102100000D01*
X206160000Y-92440000D02*
X206120000Y-92400000D01*
X156400000Y-102100000D02*
X150552220Y-96252220D01*
X150552220Y-96252220D02*
X141804441Y-96252220D01*
X182700000Y-102100000D02*
X156400000Y-102100000D01*
D24*
%TO.N,-12V*%
X85400000Y-93480000D02*
X109880000Y-93480000D01*
X171380000Y-91891270D02*
X171344365Y-91855635D01*
X117700000Y-101300000D02*
X120700000Y-101300000D01*
X171380000Y-96300000D02*
X171380000Y-91891270D01*
X134800000Y-98800000D02*
X134184441Y-98184441D01*
X109880000Y-93480000D02*
X117700000Y-101300000D01*
X85400000Y-93480000D02*
X85400000Y-88400000D01*
X134184441Y-91984441D02*
X134184441Y-96252220D01*
X145100000Y-98800000D02*
X134800000Y-98800000D01*
X134184441Y-98184441D02*
X134184441Y-96252220D01*
D25*
%TO.N,/vc1*%
X179200000Y-96300000D02*
X179000000Y-96300000D01*
X206060000Y-84880000D02*
X190620000Y-84880000D01*
X190620000Y-84880000D02*
X179200000Y-96300000D01*
%TO.N,/vr*%
X208600000Y-67900000D02*
X211400000Y-67900000D01*
X208600000Y-67900000D02*
X208600000Y-79740000D01*
D24*
%TO.N,Net-(J7-Pin_1)*%
X207000000Y-53700000D02*
X207000000Y-60300000D01*
X195600000Y-47900000D02*
X195500000Y-47900000D01*
X201400000Y-53700000D02*
X195600000Y-47900000D01*
X207000000Y-60300000D02*
X210080000Y-60300000D01*
D25*
X208600000Y-64800000D02*
X208600000Y-63600000D01*
D24*
X207000000Y-53700000D02*
X201400000Y-53700000D01*
X205000000Y-60300000D02*
X207000000Y-60300000D01*
D25*
X210080000Y-62120000D02*
X210080000Y-60300000D01*
X208600000Y-63600000D02*
X210080000Y-62120000D01*
%TD*%
%TA.AperFunction,Conductor*%
%TO.N,GND*%
G36*
X109705703Y-76208176D02*
G01*
X109712181Y-76214208D01*
X109842490Y-76344517D01*
X110033566Y-76483343D01*
X110151736Y-76543553D01*
X110190986Y-76563552D01*
X110244003Y-76590566D01*
X110244005Y-76590566D01*
X110244008Y-76590568D01*
X110364412Y-76629689D01*
X110468631Y-76663553D01*
X110701903Y-76700500D01*
X110701908Y-76700500D01*
X116025273Y-76700500D01*
X116092312Y-76720185D01*
X116138067Y-76772989D01*
X116139834Y-76777048D01*
X116171590Y-76853717D01*
X116171595Y-76853726D01*
X116283052Y-77046774D01*
X116283057Y-77046780D01*
X116283058Y-77046782D01*
X116418751Y-77223622D01*
X116418757Y-77223629D01*
X116576370Y-77381242D01*
X116576377Y-77381248D01*
X116636146Y-77427110D01*
X116753226Y-77516948D01*
X116946274Y-77628405D01*
X117076140Y-77682197D01*
X117147793Y-77711877D01*
X117152219Y-77713710D01*
X117174035Y-77719555D01*
X117229621Y-77751648D01*
X130107622Y-90629649D01*
X130141107Y-90690972D01*
X130143941Y-90717330D01*
X130143941Y-96370317D01*
X130180887Y-96603588D01*
X130253874Y-96828216D01*
X130337239Y-96991827D01*
X130361098Y-97038653D01*
X130499924Y-97229730D01*
X130666931Y-97396737D01*
X130858008Y-97535563D01*
X130935765Y-97575182D01*
X131068444Y-97642786D01*
X131068446Y-97642786D01*
X131068449Y-97642788D01*
X131188853Y-97681909D01*
X131293072Y-97715773D01*
X131526344Y-97752720D01*
X131526349Y-97752720D01*
X131762538Y-97752720D01*
X131995809Y-97715773D01*
X132043965Y-97700126D01*
X132220433Y-97642788D01*
X132430874Y-97535563D01*
X132487055Y-97494744D01*
X132552861Y-97471264D01*
X132620915Y-97487089D01*
X132669610Y-97537194D01*
X132683941Y-97595062D01*
X132683941Y-98302538D01*
X132720887Y-98535809D01*
X132793874Y-98760437D01*
X132874204Y-98918092D01*
X132901098Y-98970875D01*
X133039924Y-99161951D01*
X133655483Y-99777510D01*
X133822490Y-99944517D01*
X134013567Y-100083343D01*
X134112991Y-100134002D01*
X134224003Y-100190566D01*
X134224005Y-100190566D01*
X134224008Y-100190568D01*
X134344412Y-100229689D01*
X134448631Y-100263553D01*
X134681903Y-100300500D01*
X134681908Y-100300500D01*
X145218097Y-100300500D01*
X145451368Y-100263553D01*
X145675992Y-100190568D01*
X145886433Y-100083343D01*
X146077510Y-99944517D01*
X146244517Y-99777510D01*
X146383343Y-99586433D01*
X146490568Y-99375992D01*
X146563553Y-99151368D01*
X146600500Y-98918097D01*
X146600500Y-98681902D01*
X146563553Y-98448631D01*
X146490566Y-98224003D01*
X146383342Y-98013566D01*
X146244517Y-97822490D01*
X146077510Y-97655483D01*
X145886433Y-97516657D01*
X145828629Y-97487204D01*
X145777834Y-97439230D01*
X145761039Y-97371409D01*
X145783576Y-97305274D01*
X145838291Y-97261823D01*
X145884925Y-97252720D01*
X150086438Y-97252720D01*
X150153477Y-97272405D01*
X150174119Y-97289039D01*
X155372899Y-102487819D01*
X155406384Y-102549142D01*
X155401400Y-102618834D01*
X155359528Y-102674767D01*
X155294064Y-102699184D01*
X155285218Y-102699500D01*
X129965782Y-102699500D01*
X129898743Y-102679815D01*
X129878101Y-102663181D01*
X109536819Y-82321899D01*
X109503334Y-82260576D01*
X109500500Y-82234218D01*
X109500500Y-76301889D01*
X109520185Y-76234850D01*
X109572989Y-76189095D01*
X109642147Y-76179151D01*
X109705703Y-76208176D01*
G37*
%TD.AperFunction*%
%TA.AperFunction,Conductor*%
G36*
X145728814Y-76081067D02*
G01*
X145742147Y-76079151D01*
X145762290Y-76088350D01*
X145783927Y-76093057D01*
X145801652Y-76106325D01*
X145805703Y-76108176D01*
X145812181Y-76114208D01*
X145922490Y-76224517D01*
X146113567Y-76363343D01*
X146212991Y-76414002D01*
X146324003Y-76470566D01*
X146324005Y-76470566D01*
X146324008Y-76470568D01*
X146444412Y-76509689D01*
X146548631Y-76543553D01*
X146781903Y-76580500D01*
X146781908Y-76580500D01*
X149945875Y-76580500D01*
X149965272Y-76582026D01*
X149985263Y-76585193D01*
X150081904Y-76600500D01*
X150081908Y-76600500D01*
X152427111Y-76600500D01*
X152494150Y-76620185D01*
X152514792Y-76636819D01*
X153120661Y-77242689D01*
X153120663Y-77242691D01*
X153202048Y-77301819D01*
X153218216Y-77313566D01*
X153311737Y-77381513D01*
X153415443Y-77434353D01*
X153419672Y-77436953D01*
X153420938Y-77438356D01*
X153430228Y-77444218D01*
X153522618Y-77515111D01*
X153522622Y-77515113D01*
X153522628Y-77515118D01*
X153715676Y-77626575D01*
X153921621Y-77711880D01*
X153943437Y-77717725D01*
X153999023Y-77749818D01*
X167303181Y-91053976D01*
X167336666Y-91115299D01*
X167339500Y-91141657D01*
X167339500Y-96418097D01*
X167376446Y-96651368D01*
X167449433Y-96875996D01*
X167532312Y-97038653D01*
X167556657Y-97086433D01*
X167695483Y-97277510D01*
X167862490Y-97444517D01*
X168042335Y-97575183D01*
X168085000Y-97630512D01*
X168090979Y-97700126D01*
X168058373Y-97761920D01*
X167997534Y-97796278D01*
X167969449Y-97799500D01*
X158665783Y-97799500D01*
X158598744Y-97779815D01*
X158578102Y-97763181D01*
X145636819Y-84821898D01*
X145603334Y-84760575D01*
X145600500Y-84734217D01*
X145600500Y-76201889D01*
X145606738Y-76180643D01*
X145608318Y-76158555D01*
X145616390Y-76147771D01*
X145620185Y-76134850D01*
X145636918Y-76120350D01*
X145650190Y-76102622D01*
X145662810Y-76097914D01*
X145672989Y-76089095D01*
X145694906Y-76085943D01*
X145715654Y-76078205D01*
X145728814Y-76081067D01*
G37*
%TD.AperFunction*%
%TA.AperFunction,Conductor*%
G36*
X143652257Y-71520185D02*
G01*
X143698012Y-71572989D01*
X143707956Y-71642147D01*
X143678931Y-71705703D01*
X143672900Y-71712179D01*
X142062221Y-73322858D01*
X142062218Y-73322861D01*
X142021966Y-73363113D01*
X141922859Y-73462219D01*
X141813371Y-73626080D01*
X141813366Y-73626089D01*
X141779142Y-73708713D01*
X141779138Y-73708725D01*
X141777215Y-73713368D01*
X141737949Y-73808164D01*
X141724534Y-73875606D01*
X141723138Y-73882621D01*
X141723138Y-73882623D01*
X141699500Y-74001456D01*
X141699500Y-74001459D01*
X141699500Y-85798541D01*
X141699500Y-85798543D01*
X141699499Y-85798543D01*
X141737947Y-85991829D01*
X141737950Y-85991839D01*
X141813364Y-86173907D01*
X141813371Y-86173920D01*
X141922859Y-86337780D01*
X141922860Y-86337781D01*
X141922861Y-86337782D01*
X142062218Y-86477139D01*
X142062219Y-86477139D01*
X142069286Y-86484206D01*
X142069285Y-86484206D01*
X142069289Y-86484209D01*
X150625119Y-95040039D01*
X150658604Y-95101362D01*
X150653620Y-95171054D01*
X150611748Y-95226987D01*
X150546284Y-95251404D01*
X150537438Y-95251720D01*
X142977330Y-95251720D01*
X142910291Y-95232035D01*
X142889649Y-95215401D01*
X142781953Y-95107705D01*
X142781951Y-95107703D01*
X142590874Y-94968877D01*
X142541173Y-94943553D01*
X142380437Y-94861653D01*
X142155809Y-94788666D01*
X141922538Y-94751720D01*
X141922533Y-94751720D01*
X141686349Y-94751720D01*
X141686344Y-94751720D01*
X141453072Y-94788666D01*
X141228444Y-94861653D01*
X141018006Y-94968878D01*
X140997383Y-94983861D01*
X140931576Y-95007339D01*
X140863523Y-94991512D01*
X140814829Y-94941405D01*
X140800500Y-94883541D01*
X140800500Y-84481902D01*
X140763553Y-84248631D01*
X140749605Y-84205705D01*
X140690568Y-84024008D01*
X140644385Y-83933368D01*
X140583343Y-83813566D01*
X140444517Y-83622490D01*
X140177510Y-83355483D01*
X139986434Y-83216657D01*
X139775996Y-83109433D01*
X139551368Y-83036446D01*
X139318097Y-82999500D01*
X139318092Y-82999500D01*
X139081908Y-82999500D01*
X139081903Y-82999500D01*
X138848631Y-83036446D01*
X138624003Y-83109433D01*
X138413565Y-83216657D01*
X138222488Y-83355484D01*
X138055484Y-83522488D01*
X137916657Y-83713565D01*
X137809433Y-83924003D01*
X137736446Y-84148631D01*
X137699500Y-84381902D01*
X137699500Y-84618097D01*
X137726027Y-84785579D01*
X137736447Y-84851368D01*
X137760790Y-84926287D01*
X137793431Y-85026745D01*
X137799500Y-85065063D01*
X137799500Y-89078110D01*
X137779815Y-89145149D01*
X137727011Y-89190904D01*
X137657853Y-89200848D01*
X137594297Y-89171823D01*
X137587819Y-89165791D01*
X125936819Y-77514791D01*
X125903334Y-77453468D01*
X125900500Y-77427110D01*
X125900500Y-75521889D01*
X125920185Y-75454850D01*
X125972989Y-75409095D01*
X126042147Y-75399151D01*
X126105703Y-75428176D01*
X126112181Y-75434208D01*
X127922490Y-77244517D01*
X128113566Y-77383343D01*
X128324008Y-77490568D01*
X128548631Y-77563553D01*
X128636109Y-77577408D01*
X128781903Y-77600500D01*
X128781908Y-77600500D01*
X138218097Y-77600500D01*
X138451368Y-77563553D01*
X138457000Y-77561723D01*
X138675992Y-77490568D01*
X138886434Y-77383343D01*
X139077510Y-77244517D01*
X140744517Y-75577510D01*
X140883343Y-75386434D01*
X140990568Y-75175992D01*
X141007952Y-75122490D01*
X141063553Y-74951368D01*
X141077091Y-74865891D01*
X141100500Y-74718097D01*
X141100500Y-72321902D01*
X141063553Y-72088631D01*
X140990566Y-71864003D01*
X140913208Y-71712181D01*
X140897215Y-71680793D01*
X140884320Y-71612126D01*
X140910596Y-71547385D01*
X140967703Y-71507128D01*
X141007701Y-71500500D01*
X143585218Y-71500500D01*
X143652257Y-71520185D01*
G37*
%TD.AperFunction*%
%TA.AperFunction,Conductor*%
G36*
X193501257Y-53520185D02*
G01*
X193521899Y-53536819D01*
X199363181Y-59378101D01*
X199396666Y-59439424D01*
X199399500Y-59465782D01*
X199399500Y-63098541D01*
X199416145Y-63182218D01*
X199437949Y-63291836D01*
X199444713Y-63308165D01*
X199448478Y-63317255D01*
X199448479Y-63317258D01*
X199513364Y-63473907D01*
X199513371Y-63473920D01*
X199622860Y-63637781D01*
X199622863Y-63637785D01*
X199766537Y-63781459D01*
X199766559Y-63781479D01*
X203063181Y-67078101D01*
X203096666Y-67139424D01*
X203099500Y-67165782D01*
X203099500Y-81598544D01*
X203137947Y-81791833D01*
X203137949Y-81791837D01*
X203160038Y-81845164D01*
X203213366Y-81973911D01*
X203213371Y-81973920D01*
X203322859Y-82137780D01*
X203322860Y-82137781D01*
X203322861Y-82137782D01*
X203462218Y-82277139D01*
X203462219Y-82277139D01*
X203469286Y-82284206D01*
X203469285Y-82284206D01*
X203469288Y-82284208D01*
X204162860Y-82977781D01*
X204162861Y-82977782D01*
X204263551Y-83078472D01*
X204302219Y-83117140D01*
X204451157Y-83216657D01*
X204466086Y-83226632D01*
X204572745Y-83270811D01*
X204648164Y-83302051D01*
X204841454Y-83340499D01*
X204841457Y-83340500D01*
X204841459Y-83340500D01*
X205281755Y-83340500D01*
X205300991Y-83346148D01*
X205321025Y-83346883D01*
X205344320Y-83358871D01*
X205348794Y-83360185D01*
X205352571Y-83362711D01*
X205353631Y-83363448D01*
X205452184Y-83435051D01*
X205468498Y-83443363D01*
X205475466Y-83448211D01*
X205492258Y-83469089D01*
X205511742Y-83487491D01*
X205513825Y-83495903D01*
X205519256Y-83502656D01*
X205522095Y-83529301D01*
X205528536Y-83555312D01*
X205525740Y-83563514D01*
X205526659Y-83572132D01*
X205514641Y-83596082D01*
X205505998Y-83621447D01*
X205498775Y-83627705D01*
X205495325Y-83634582D01*
X205481162Y-83642966D01*
X205460946Y-83660484D01*
X205452182Y-83664949D01*
X205280213Y-83789890D01*
X205280209Y-83789894D01*
X205226923Y-83843181D01*
X205165600Y-83876666D01*
X205139242Y-83879500D01*
X190521455Y-83879500D01*
X190428661Y-83897958D01*
X190428655Y-83897959D01*
X190424812Y-83898724D01*
X190328164Y-83917949D01*
X190290940Y-83933368D01*
X190283298Y-83936533D01*
X190283288Y-83936536D01*
X190146088Y-83993366D01*
X190146079Y-83993371D01*
X189982219Y-84102859D01*
X189936448Y-84148631D01*
X189842861Y-84242218D01*
X189842858Y-84242221D01*
X179307354Y-94777724D01*
X179246031Y-94811209D01*
X179200275Y-94812516D01*
X179118097Y-94799500D01*
X179118092Y-94799500D01*
X178881908Y-94799500D01*
X178881903Y-94799500D01*
X178648631Y-94836446D01*
X178424003Y-94909433D01*
X178213563Y-95016659D01*
X178157385Y-95057475D01*
X178091579Y-95080955D01*
X178023525Y-95065130D01*
X177974830Y-95015024D01*
X177960500Y-94957157D01*
X177960500Y-88278759D01*
X177962067Y-88259107D01*
X177963071Y-88252850D01*
X177963553Y-88251368D01*
X177981645Y-88137139D01*
X177995663Y-88048632D01*
X178000500Y-88018096D01*
X178000500Y-87781904D01*
X177989328Y-87711370D01*
X177989328Y-87711369D01*
X177989328Y-87711368D01*
X177963553Y-87548631D01*
X177890568Y-87324007D01*
X177890566Y-87324004D01*
X177890566Y-87324002D01*
X177803723Y-87153565D01*
X177783343Y-87113566D01*
X177644518Y-86922490D01*
X177477510Y-86755482D01*
X177286434Y-86616657D01*
X177240725Y-86593367D01*
X177075997Y-86509433D01*
X176851369Y-86436446D01*
X176618097Y-86399500D01*
X176618092Y-86399500D01*
X176381908Y-86399500D01*
X176381904Y-86399500D01*
X176280887Y-86415500D01*
X176255632Y-86419500D01*
X176148631Y-86436447D01*
X175924003Y-86509433D01*
X175713563Y-86616659D01*
X175522496Y-86755476D01*
X175522491Y-86755480D01*
X175315486Y-86962486D01*
X175315484Y-86962488D01*
X175176657Y-87153565D01*
X175089813Y-87324008D01*
X175069433Y-87364003D01*
X174996446Y-87588631D01*
X174959500Y-87821902D01*
X174959500Y-88338110D01*
X174939815Y-88405149D01*
X174887011Y-88450904D01*
X174817853Y-88460848D01*
X174754297Y-88431823D01*
X174747819Y-88425791D01*
X163236819Y-76914791D01*
X163203334Y-76853468D01*
X163200500Y-76827110D01*
X163200500Y-75817679D01*
X163220185Y-75750640D01*
X163272989Y-75704885D01*
X163342147Y-75694941D01*
X163405703Y-75723966D01*
X163412181Y-75729998D01*
X164924870Y-77242687D01*
X165115946Y-77381513D01*
X165326388Y-77488738D01*
X165551011Y-77561723D01*
X165638489Y-77575578D01*
X165784283Y-77598670D01*
X165784288Y-77598670D01*
X175519927Y-77598670D01*
X175753198Y-77561723D01*
X175977822Y-77488738D01*
X176188264Y-77381513D01*
X176379340Y-77242687D01*
X177504517Y-76117510D01*
X177643343Y-75926434D01*
X177750568Y-75715992D01*
X177823553Y-75491368D01*
X177840173Y-75386434D01*
X177860500Y-75258097D01*
X177860500Y-72281902D01*
X177823553Y-72048631D01*
X177750566Y-71824003D01*
X177663724Y-71653567D01*
X177643343Y-71613567D01*
X177504517Y-71422490D01*
X177337510Y-71255483D01*
X177146433Y-71116657D01*
X177069603Y-71077510D01*
X176935996Y-71009433D01*
X176711368Y-70936446D01*
X176478097Y-70899500D01*
X176478092Y-70899500D01*
X176241908Y-70899500D01*
X176241903Y-70899500D01*
X176008631Y-70936446D01*
X175784003Y-71009433D01*
X175573563Y-71116659D01*
X175517385Y-71157475D01*
X175451579Y-71180955D01*
X175383525Y-71165130D01*
X175334830Y-71115024D01*
X175320500Y-71057157D01*
X175320500Y-58741889D01*
X175340185Y-58674850D01*
X175392989Y-58629095D01*
X175462147Y-58619151D01*
X175525703Y-58648176D01*
X175532181Y-58654208D01*
X175622490Y-58744517D01*
X175813567Y-58883343D01*
X175849122Y-58901459D01*
X176024003Y-58990566D01*
X176024005Y-58990566D01*
X176024008Y-58990568D01*
X176144412Y-59029689D01*
X176248631Y-59063553D01*
X176481903Y-59100500D01*
X176481908Y-59100500D01*
X176718097Y-59100500D01*
X176951368Y-59063553D01*
X176997293Y-59048631D01*
X177175992Y-58990568D01*
X177386433Y-58883343D01*
X177577510Y-58744517D01*
X177685208Y-58636819D01*
X177746531Y-58603334D01*
X177772889Y-58600500D01*
X182598543Y-58600500D01*
X182644019Y-58591453D01*
X182714118Y-58577510D01*
X182791836Y-58562051D01*
X182845165Y-58539961D01*
X182973914Y-58486632D01*
X183137782Y-58377139D01*
X183277139Y-58237782D01*
X183277140Y-58237779D01*
X183284206Y-58230714D01*
X183284208Y-58230710D01*
X187978101Y-53536819D01*
X188039424Y-53503334D01*
X188065782Y-53500500D01*
X193434218Y-53500500D01*
X193501257Y-53520185D01*
G37*
%TD.AperFunction*%
%TA.AperFunction,Conductor*%
G36*
X201494150Y-37220185D02*
G01*
X201514792Y-37236819D01*
X214063181Y-49785208D01*
X214096666Y-49846531D01*
X214099500Y-49872889D01*
X214099500Y-83027110D01*
X214079815Y-83094149D01*
X214063181Y-83114791D01*
X211354792Y-85823181D01*
X211293469Y-85856666D01*
X211267111Y-85859500D01*
X208581903Y-85859500D01*
X208348631Y-85896446D01*
X208124003Y-85969433D01*
X207913566Y-86076657D01*
X207809162Y-86152512D01*
X207722490Y-86215483D01*
X207722488Y-86215485D01*
X207722487Y-86215485D01*
X207555484Y-86382488D01*
X207437613Y-86544723D01*
X207382282Y-86587388D01*
X207312669Y-86593367D01*
X207250874Y-86560761D01*
X207236977Y-86544722D01*
X207190109Y-86480214D01*
X207190105Y-86480209D01*
X207039786Y-86329890D01*
X206867820Y-86204951D01*
X206867115Y-86204591D01*
X206859054Y-86200485D01*
X206808259Y-86152512D01*
X206791463Y-86084692D01*
X206813999Y-86018556D01*
X206859054Y-85979515D01*
X206867816Y-85975051D01*
X206947966Y-85916819D01*
X207039786Y-85850109D01*
X207039788Y-85850106D01*
X207039792Y-85850104D01*
X207190104Y-85699792D01*
X207190106Y-85699788D01*
X207190109Y-85699786D01*
X207315048Y-85527820D01*
X207315047Y-85527820D01*
X207315051Y-85527816D01*
X207411557Y-85338412D01*
X207477246Y-85136243D01*
X207510500Y-84926287D01*
X207510500Y-84713713D01*
X207477246Y-84503757D01*
X207411557Y-84301588D01*
X207315051Y-84112184D01*
X207315049Y-84112181D01*
X207315048Y-84112179D01*
X207190109Y-83940213D01*
X207039786Y-83789890D01*
X206867820Y-83664951D01*
X206867115Y-83664591D01*
X206859054Y-83660485D01*
X206808259Y-83612512D01*
X206791463Y-83544692D01*
X206813999Y-83478556D01*
X206859054Y-83439515D01*
X206867816Y-83435051D01*
X206889789Y-83419086D01*
X207039786Y-83310109D01*
X207039788Y-83310106D01*
X207039792Y-83310104D01*
X207190104Y-83159792D01*
X207190106Y-83159788D01*
X207190109Y-83159786D01*
X207315048Y-82987820D01*
X207315047Y-82987820D01*
X207315051Y-82987816D01*
X207411557Y-82798412D01*
X207477246Y-82596243D01*
X207510500Y-82386287D01*
X207510500Y-82173713D01*
X207477246Y-81963757D01*
X207411557Y-81761588D01*
X207315051Y-81572184D01*
X207315049Y-81572181D01*
X207315048Y-81572179D01*
X207190109Y-81400213D01*
X207039790Y-81249894D01*
X207039785Y-81249890D01*
X207034891Y-81246334D01*
X206992227Y-81191003D01*
X206986249Y-81121390D01*
X207018857Y-81059595D01*
X207068774Y-81028312D01*
X207079334Y-81024814D01*
X207228656Y-80932712D01*
X207352712Y-80808656D01*
X207444814Y-80659334D01*
X207448312Y-80648775D01*
X207488082Y-80591332D01*
X207552598Y-80564507D01*
X207621374Y-80576821D01*
X207666334Y-80614891D01*
X207669890Y-80619785D01*
X207669894Y-80619790D01*
X207820213Y-80770109D01*
X207992179Y-80895048D01*
X207992181Y-80895049D01*
X207992184Y-80895051D01*
X208181588Y-80991557D01*
X208383757Y-81057246D01*
X208593713Y-81090500D01*
X208593714Y-81090500D01*
X208806286Y-81090500D01*
X208806287Y-81090500D01*
X209016243Y-81057246D01*
X209218412Y-80991557D01*
X209407816Y-80895051D01*
X209429789Y-80879086D01*
X209579786Y-80770109D01*
X209579788Y-80770106D01*
X209579792Y-80770104D01*
X209730104Y-80619792D01*
X209730106Y-80619788D01*
X209730109Y-80619786D01*
X209855048Y-80447820D01*
X209855047Y-80447820D01*
X209855051Y-80447816D01*
X209951557Y-80258412D01*
X210017246Y-80056243D01*
X210050500Y-79846287D01*
X210050500Y-79633713D01*
X210017246Y-79423757D01*
X209951557Y-79221588D01*
X209855051Y-79032184D01*
X209855049Y-79032181D01*
X209855048Y-79032179D01*
X209730109Y-78860213D01*
X209636819Y-78766923D01*
X209603334Y-78705600D01*
X209600500Y-78679242D01*
X209600500Y-69024500D01*
X209620185Y-68957461D01*
X209672989Y-68911706D01*
X209724500Y-68900500D01*
X210283804Y-68900500D01*
X210348900Y-68918961D01*
X210455659Y-68984810D01*
X210455660Y-68984810D01*
X210455666Y-68984814D01*
X210622203Y-69039999D01*
X210724991Y-69050500D01*
X212075008Y-69050499D01*
X212177797Y-69039999D01*
X212344334Y-68984814D01*
X212493656Y-68892712D01*
X212617712Y-68768656D01*
X212709814Y-68619334D01*
X212764999Y-68452797D01*
X212775500Y-68350009D01*
X212775499Y-67449992D01*
X212764999Y-67347203D01*
X212709814Y-67180666D01*
X212617712Y-67031344D01*
X212493656Y-66907288D01*
X212344334Y-66815186D01*
X212177797Y-66760001D01*
X212177795Y-66760000D01*
X212075010Y-66749500D01*
X210724998Y-66749500D01*
X210724981Y-66749501D01*
X210622203Y-66760000D01*
X210622200Y-66760001D01*
X210455668Y-66815185D01*
X210455659Y-66815189D01*
X210348900Y-66881039D01*
X210283804Y-66899500D01*
X209716196Y-66899500D01*
X209651100Y-66881039D01*
X209544340Y-66815189D01*
X209544335Y-66815187D01*
X209544334Y-66815186D01*
X209377797Y-66760001D01*
X209377795Y-66760000D01*
X209275010Y-66749500D01*
X207924998Y-66749500D01*
X207924981Y-66749501D01*
X207822203Y-66760000D01*
X207822200Y-66760001D01*
X207655668Y-66815185D01*
X207655663Y-66815187D01*
X207506342Y-66907289D01*
X207382289Y-67031342D01*
X207382288Y-67031344D01*
X207299367Y-67165782D01*
X207290039Y-67180905D01*
X207238091Y-67227629D01*
X207169129Y-67238852D01*
X207105046Y-67211008D01*
X207066190Y-67152940D01*
X207060500Y-67115808D01*
X207060500Y-65584191D01*
X207080185Y-65517152D01*
X207132989Y-65471397D01*
X207202147Y-65461453D01*
X207265703Y-65490478D01*
X207290039Y-65519095D01*
X207290185Y-65519331D01*
X207290186Y-65519334D01*
X207382288Y-65668656D01*
X207506344Y-65792712D01*
X207655666Y-65884814D01*
X207822203Y-65939999D01*
X207924991Y-65950500D01*
X209275008Y-65950499D01*
X209377797Y-65939999D01*
X209544334Y-65884814D01*
X209693656Y-65792712D01*
X209817712Y-65668656D01*
X209909814Y-65519334D01*
X209964999Y-65352797D01*
X209975500Y-65250009D01*
X209975499Y-64349992D01*
X209964999Y-64247203D01*
X209909814Y-64080666D01*
X209818009Y-63931825D01*
X209799570Y-63864436D01*
X209820493Y-63797773D01*
X209835863Y-63779056D01*
X210717778Y-62897141D01*
X210717782Y-62897139D01*
X210857139Y-62757782D01*
X210966632Y-62593914D01*
X211042051Y-62411835D01*
X211080500Y-62218541D01*
X211080500Y-61472889D01*
X211100185Y-61405850D01*
X211116819Y-61385208D01*
X211224517Y-61277510D01*
X211363343Y-61086433D01*
X211470568Y-60875992D01*
X211543553Y-60651368D01*
X211580500Y-60418097D01*
X211580500Y-60181902D01*
X211543553Y-59948631D01*
X211470566Y-59724003D01*
X211365651Y-59518097D01*
X211363343Y-59513567D01*
X211224517Y-59322490D01*
X211057510Y-59155483D01*
X210866433Y-59016657D01*
X210655996Y-58909433D01*
X210431368Y-58836446D01*
X210198097Y-58799500D01*
X210198092Y-58799500D01*
X208624500Y-58799500D01*
X208557461Y-58779815D01*
X208511706Y-58727011D01*
X208500500Y-58675500D01*
X208500500Y-55412230D01*
X208520185Y-55345191D01*
X208536819Y-55324549D01*
X208540125Y-55321243D01*
X208642712Y-55218656D01*
X208734814Y-55069334D01*
X208789999Y-54902797D01*
X208800500Y-54800009D01*
X208800499Y-52599992D01*
X208789999Y-52497203D01*
X208734814Y-52330666D01*
X208642712Y-52181344D01*
X208518656Y-52057288D01*
X208403783Y-51986434D01*
X208369336Y-51965187D01*
X208369331Y-51965185D01*
X208367862Y-51964698D01*
X208202797Y-51910001D01*
X208202795Y-51910000D01*
X208100010Y-51899500D01*
X205899998Y-51899500D01*
X205899981Y-51899501D01*
X205797203Y-51910000D01*
X205797200Y-51910001D01*
X205630668Y-51965185D01*
X205630663Y-51965187D01*
X205481345Y-52057287D01*
X205375450Y-52163182D01*
X205314127Y-52196666D01*
X205287769Y-52199500D01*
X202072890Y-52199500D01*
X202005851Y-52179815D01*
X201985209Y-52163181D01*
X200038801Y-50216773D01*
X200005316Y-50155450D01*
X200010300Y-50085758D01*
X200052172Y-50029825D01*
X200117636Y-50005408D01*
X200182775Y-50018606D01*
X200324008Y-50090568D01*
X200548631Y-50163553D01*
X200636109Y-50177408D01*
X200781903Y-50200500D01*
X200781908Y-50200500D01*
X205964717Y-50200500D01*
X206026717Y-50217113D01*
X206201943Y-50318280D01*
X206201948Y-50318282D01*
X206201951Y-50318284D01*
X206420007Y-50408606D01*
X206647986Y-50469693D01*
X206881989Y-50500500D01*
X206881996Y-50500500D01*
X207118004Y-50500500D01*
X207118011Y-50500500D01*
X207352014Y-50469693D01*
X207579993Y-50408606D01*
X207798049Y-50318284D01*
X208002450Y-50200273D01*
X208189699Y-50056592D01*
X208356592Y-49889699D01*
X208500273Y-49702450D01*
X208618284Y-49498049D01*
X208708606Y-49279993D01*
X208769693Y-49052014D01*
X208800500Y-48818011D01*
X208800500Y-48581989D01*
X208769693Y-48347986D01*
X208708606Y-48120007D01*
X208618284Y-47901951D01*
X208618282Y-47901948D01*
X208618280Y-47901943D01*
X208559417Y-47799991D01*
X208500273Y-47697550D01*
X208432207Y-47608844D01*
X208356593Y-47510302D01*
X208356587Y-47510295D01*
X208189704Y-47343412D01*
X208189697Y-47343406D01*
X208002454Y-47199730D01*
X208002453Y-47199729D01*
X208002450Y-47199727D01*
X207892846Y-47136447D01*
X207798056Y-47081719D01*
X207798045Y-47081714D01*
X207579993Y-46991394D01*
X207352014Y-46930307D01*
X207352013Y-46930306D01*
X207352010Y-46930306D01*
X207118020Y-46899501D01*
X207118017Y-46899500D01*
X207118011Y-46899500D01*
X206881989Y-46899500D01*
X206881983Y-46899500D01*
X206881979Y-46899501D01*
X206647989Y-46930306D01*
X206420006Y-46991394D01*
X206201954Y-47081714D01*
X206201943Y-47081719D01*
X206026717Y-47182887D01*
X205964717Y-47199500D01*
X201572889Y-47199500D01*
X201505850Y-47179815D01*
X201485208Y-47163181D01*
X198177511Y-43855484D01*
X198125415Y-43817634D01*
X197986434Y-43716657D01*
X197939669Y-43692829D01*
X197775996Y-43609433D01*
X197551368Y-43536446D01*
X197318097Y-43499500D01*
X197318092Y-43499500D01*
X193781908Y-43499500D01*
X193781903Y-43499500D01*
X193548631Y-43536446D01*
X193368812Y-43594874D01*
X193324713Y-43609203D01*
X193324710Y-43609204D01*
X193324013Y-43609430D01*
X193324006Y-43609433D01*
X193113565Y-43716657D01*
X192922488Y-43855484D01*
X192922487Y-43855485D01*
X190414792Y-46363181D01*
X190353469Y-46396666D01*
X190327111Y-46399500D01*
X190035284Y-46399500D01*
X189973285Y-46382887D01*
X189953726Y-46371595D01*
X189747781Y-46286290D01*
X189725962Y-46280443D01*
X189670377Y-46248350D01*
X188677511Y-45255484D01*
X188549818Y-45162709D01*
X188486434Y-45116657D01*
X188275996Y-45009433D01*
X188051368Y-44936446D01*
X187818097Y-44899500D01*
X187818092Y-44899500D01*
X182318092Y-44899500D01*
X182081908Y-44899500D01*
X182081903Y-44899500D01*
X181848631Y-44936446D01*
X181624003Y-45009433D01*
X181413566Y-45116657D01*
X181331894Y-45175996D01*
X181222490Y-45255483D01*
X181222488Y-45255485D01*
X181222487Y-45255485D01*
X181055485Y-45422487D01*
X181055485Y-45422488D01*
X181055483Y-45422490D01*
X180995862Y-45504550D01*
X180916657Y-45613566D01*
X180809433Y-45824003D01*
X180736446Y-46048631D01*
X180699500Y-46281902D01*
X180699500Y-49855500D01*
X180679815Y-49922539D01*
X180627011Y-49968294D01*
X180575500Y-49979500D01*
X177395716Y-49979500D01*
X177328677Y-49959815D01*
X177282922Y-49907011D01*
X177272978Y-49837853D01*
X177302003Y-49774297D01*
X177322826Y-49755185D01*
X177337510Y-49744517D01*
X177504517Y-49577510D01*
X177643343Y-49386433D01*
X177750568Y-49175992D01*
X177823553Y-48951368D01*
X177840119Y-48846773D01*
X177860500Y-48718097D01*
X177860500Y-42041902D01*
X177823553Y-41808631D01*
X177767727Y-41636819D01*
X177750568Y-41584008D01*
X177750566Y-41584005D01*
X177750566Y-41584003D01*
X177696188Y-41477281D01*
X177696187Y-41477280D01*
X177643344Y-41373567D01*
X177597067Y-41309874D01*
X177504517Y-41182490D01*
X175277510Y-38955483D01*
X175086434Y-38816657D01*
X175060357Y-38803370D01*
X174875996Y-38709433D01*
X174651368Y-38636446D01*
X174418097Y-38599500D01*
X174418092Y-38599500D01*
X161818092Y-38599500D01*
X157581908Y-38599500D01*
X157581903Y-38599500D01*
X157348631Y-38636446D01*
X157124003Y-38709433D01*
X156913563Y-38816659D01*
X156722496Y-38955476D01*
X156722491Y-38955480D01*
X154537680Y-41140291D01*
X154476357Y-41173776D01*
X154406665Y-41168792D01*
X154362320Y-41140292D01*
X152177510Y-38955483D01*
X151986434Y-38816657D01*
X151960357Y-38803370D01*
X151775996Y-38709433D01*
X151551368Y-38636446D01*
X151318097Y-38599500D01*
X151318092Y-38599500D01*
X151081908Y-38599500D01*
X151081903Y-38599500D01*
X150848631Y-38636446D01*
X150624003Y-38709433D01*
X150413565Y-38816657D01*
X150222488Y-38955484D01*
X150055484Y-39122488D01*
X149916657Y-39313565D01*
X149809433Y-39524003D01*
X149736446Y-39748631D01*
X149699500Y-39981902D01*
X149699500Y-40218097D01*
X149736446Y-40451368D01*
X149809433Y-40675996D01*
X149909887Y-40873147D01*
X149916657Y-40886434D01*
X150045829Y-41064223D01*
X150055484Y-41077511D01*
X152061200Y-43083227D01*
X152094685Y-43144550D01*
X152089701Y-43214242D01*
X152047829Y-43270175D01*
X151982365Y-43294592D01*
X151917224Y-43281393D01*
X151775996Y-43209433D01*
X151551368Y-43136446D01*
X151318097Y-43099500D01*
X151318092Y-43099500D01*
X151081908Y-43099500D01*
X151081903Y-43099500D01*
X150848631Y-43136446D01*
X150624003Y-43209433D01*
X150413566Y-43316657D01*
X150304550Y-43395862D01*
X150222490Y-43455483D01*
X150222488Y-43455485D01*
X150222487Y-43455485D01*
X150055485Y-43622487D01*
X150055485Y-43622488D01*
X150055483Y-43622490D01*
X150004379Y-43692829D01*
X149916657Y-43813566D01*
X149809433Y-44024003D01*
X149736446Y-44248631D01*
X149699500Y-44481902D01*
X149699500Y-44718097D01*
X149736446Y-44951368D01*
X149809433Y-45175996D01*
X149897396Y-45348631D01*
X149916657Y-45386433D01*
X150055483Y-45577510D01*
X150222490Y-45744517D01*
X150413567Y-45883343D01*
X150512991Y-45934002D01*
X150624003Y-45990566D01*
X150624005Y-45990566D01*
X150624008Y-45990568D01*
X150744412Y-46029689D01*
X150848631Y-46063553D01*
X151081903Y-46100500D01*
X151081908Y-46100500D01*
X151318097Y-46100500D01*
X151551368Y-46063553D01*
X151597293Y-46048631D01*
X151775992Y-45990568D01*
X151986433Y-45883343D01*
X152177510Y-45744517D01*
X152344517Y-45577510D01*
X152483343Y-45386433D01*
X152590568Y-45175992D01*
X152663553Y-44951368D01*
X152679272Y-44852123D01*
X152700500Y-44718097D01*
X152700500Y-44481902D01*
X152663553Y-44248631D01*
X152629689Y-44144412D01*
X152590568Y-44024008D01*
X152590566Y-44024005D01*
X152590566Y-44024003D01*
X152518606Y-43882775D01*
X152505710Y-43814106D01*
X152531986Y-43749365D01*
X152589093Y-43709108D01*
X152658898Y-43706116D01*
X152716772Y-43738799D01*
X152932583Y-43954610D01*
X152966068Y-44015933D01*
X152968902Y-44042291D01*
X152968902Y-47762885D01*
X152952290Y-47824884D01*
X152940996Y-47844445D01*
X152940994Y-47844450D01*
X152855695Y-48050379D01*
X152855692Y-48050389D01*
X152802574Y-48248631D01*
X152797999Y-48265704D01*
X152797996Y-48265717D01*
X152768903Y-48486703D01*
X152768902Y-48486719D01*
X152768902Y-48709620D01*
X152768903Y-48709636D01*
X152797996Y-48930622D01*
X152797997Y-48930627D01*
X152797998Y-48930633D01*
X152838532Y-49081908D01*
X152855692Y-49145950D01*
X152855695Y-49145960D01*
X152940992Y-49351886D01*
X152940994Y-49351890D01*
X152940997Y-49351896D01*
X152952290Y-49371455D01*
X152968902Y-49433454D01*
X152968902Y-49957709D01*
X152949217Y-50024748D01*
X152932583Y-50045390D01*
X152514792Y-50463181D01*
X152453469Y-50496666D01*
X152427111Y-50499500D01*
X138572890Y-50499500D01*
X138505851Y-50479815D01*
X138485209Y-50463181D01*
X138276819Y-50254791D01*
X138243334Y-50193468D01*
X138240500Y-50167110D01*
X138240500Y-49701889D01*
X138260185Y-49634850D01*
X138312989Y-49589095D01*
X138382147Y-49579151D01*
X138445703Y-49608176D01*
X138452159Y-49614186D01*
X138582490Y-49744518D01*
X138582493Y-49744520D01*
X138582497Y-49744524D01*
X138690320Y-49822861D01*
X138773567Y-49883343D01*
X138850494Y-49922539D01*
X138984003Y-49990566D01*
X138984005Y-49990566D01*
X138984008Y-49990568D01*
X139068718Y-50018092D01*
X139208631Y-50063553D01*
X139441903Y-50100500D01*
X139441908Y-50100500D01*
X139678097Y-50100500D01*
X139807690Y-50079973D01*
X139911369Y-50063553D01*
X140135992Y-49990568D01*
X140346434Y-49883343D01*
X140537510Y-49744518D01*
X140704518Y-49577510D01*
X140843343Y-49386434D01*
X140950568Y-49175992D01*
X141023553Y-48951369D01*
X141055144Y-48751912D01*
X141060500Y-48718097D01*
X141060500Y-48481902D01*
X141023553Y-48248631D01*
X140959731Y-48052209D01*
X140950568Y-48024008D01*
X140950566Y-48024005D01*
X140950566Y-48024003D01*
X140888373Y-47901943D01*
X140843343Y-47813567D01*
X140810126Y-47767847D01*
X140804180Y-47759662D01*
X140780702Y-47693855D01*
X140780500Y-47686779D01*
X140780500Y-43021902D01*
X140743553Y-42788631D01*
X140670566Y-42564003D01*
X140563342Y-42353565D01*
X140523773Y-42299103D01*
X140424517Y-42162490D01*
X138117510Y-39855483D01*
X137926434Y-39716657D01*
X137715996Y-39609433D01*
X137491368Y-39536446D01*
X137258097Y-39499500D01*
X137258092Y-39499500D01*
X124518092Y-39499500D01*
X122505668Y-39499500D01*
X122438629Y-39479815D01*
X122417987Y-39463181D01*
X121897003Y-38942197D01*
X121705926Y-38803370D01*
X121495488Y-38696146D01*
X121270860Y-38623159D01*
X121037589Y-38586213D01*
X121037584Y-38586213D01*
X120801400Y-38586213D01*
X120801395Y-38586213D01*
X120568123Y-38623159D01*
X120343495Y-38696146D01*
X120133057Y-38803370D01*
X119941980Y-38942197D01*
X119774977Y-39109200D01*
X119774977Y-39109201D01*
X119774975Y-39109203D01*
X119715355Y-39191261D01*
X119636149Y-39300278D01*
X119636146Y-39300284D01*
X119635949Y-39300671D01*
X119635694Y-39301020D01*
X119633605Y-39304431D01*
X119633336Y-39304266D01*
X119613155Y-39332037D01*
X117787680Y-41157512D01*
X117726357Y-41190997D01*
X117656665Y-41186013D01*
X117612318Y-41157512D01*
X115397003Y-38942197D01*
X115205926Y-38803370D01*
X114995488Y-38696146D01*
X114770860Y-38623159D01*
X114537589Y-38586213D01*
X114537584Y-38586213D01*
X114301400Y-38586213D01*
X114301395Y-38586213D01*
X114068123Y-38623159D01*
X113843495Y-38696146D01*
X113633057Y-38803370D01*
X113441980Y-38942197D01*
X113274976Y-39109201D01*
X113136149Y-39300278D01*
X113028925Y-39510716D01*
X112955938Y-39735344D01*
X112918992Y-39968615D01*
X112918992Y-40204810D01*
X112955938Y-40438081D01*
X113028925Y-40662709D01*
X113136149Y-40873147D01*
X113274976Y-41064224D01*
X115280692Y-43069940D01*
X115314177Y-43131263D01*
X115309193Y-43200955D01*
X115267321Y-43256888D01*
X115201857Y-43281305D01*
X115136716Y-43268106D01*
X114995488Y-43196146D01*
X114770860Y-43123159D01*
X114537589Y-43086213D01*
X114537584Y-43086213D01*
X114301400Y-43086213D01*
X114301395Y-43086213D01*
X114068123Y-43123159D01*
X113843495Y-43196146D01*
X113633058Y-43303370D01*
X113524042Y-43382575D01*
X113441982Y-43442196D01*
X113441980Y-43442198D01*
X113441979Y-43442198D01*
X113274977Y-43609200D01*
X113274977Y-43609201D01*
X113274975Y-43609203D01*
X113215354Y-43691263D01*
X113136149Y-43800279D01*
X113028925Y-44010716D01*
X112955938Y-44235344D01*
X112918992Y-44468615D01*
X112918992Y-44704810D01*
X112955938Y-44938081D01*
X113028925Y-45162709D01*
X113123658Y-45348631D01*
X113136149Y-45373146D01*
X113274975Y-45564223D01*
X113441982Y-45731230D01*
X113633059Y-45870056D01*
X113732483Y-45920715D01*
X113843495Y-45977279D01*
X113843497Y-45977279D01*
X113843500Y-45977281D01*
X113963904Y-46016402D01*
X114068123Y-46050266D01*
X114301395Y-46087213D01*
X114301400Y-46087213D01*
X114537589Y-46087213D01*
X114770860Y-46050266D01*
X114775892Y-46048631D01*
X114995484Y-45977281D01*
X115205925Y-45870056D01*
X115397002Y-45731230D01*
X115564009Y-45564223D01*
X115702835Y-45373146D01*
X115810060Y-45162705D01*
X115883045Y-44938081D01*
X115889156Y-44899500D01*
X115919992Y-44704810D01*
X115919992Y-44468615D01*
X115883045Y-44235344D01*
X115849181Y-44131125D01*
X115810060Y-44010721D01*
X115810058Y-44010718D01*
X115810058Y-44010716D01*
X115738098Y-43869488D01*
X115725202Y-43800819D01*
X115751478Y-43736078D01*
X115808585Y-43695821D01*
X115878390Y-43692829D01*
X115936264Y-43725512D01*
X116163181Y-43952429D01*
X116196666Y-44013752D01*
X116199500Y-44040110D01*
X116199500Y-47764715D01*
X116182888Y-47826714D01*
X116171594Y-47846275D01*
X116171592Y-47846280D01*
X116086293Y-48052209D01*
X116086290Y-48052219D01*
X116029087Y-48265707D01*
X116028597Y-48267534D01*
X116028594Y-48267547D01*
X115999501Y-48488533D01*
X115999500Y-48488549D01*
X115999500Y-48711450D01*
X115999501Y-48711466D01*
X116028594Y-48932452D01*
X116028595Y-48932457D01*
X116028596Y-48932463D01*
X116085800Y-49145951D01*
X116086290Y-49147780D01*
X116086295Y-49147796D01*
X116126019Y-49243698D01*
X116133488Y-49313167D01*
X116102213Y-49375646D01*
X116099140Y-49378831D01*
X116049567Y-49428405D01*
X115814790Y-49663182D01*
X115753470Y-49696666D01*
X115727111Y-49699500D01*
X103661889Y-49699500D01*
X103594850Y-49679815D01*
X103549095Y-49627011D01*
X103539151Y-49557853D01*
X103568176Y-49494297D01*
X103574208Y-49487819D01*
X105825208Y-47236819D01*
X105886531Y-47203334D01*
X105912889Y-47200500D01*
X107418097Y-47200500D01*
X107651368Y-47163553D01*
X107734794Y-47136446D01*
X107875992Y-47090568D01*
X108026237Y-47014013D01*
X108082532Y-47000499D01*
X108147871Y-47000499D01*
X108147872Y-47000499D01*
X108207483Y-46994091D01*
X108342331Y-46943796D01*
X108457546Y-46857546D01*
X108543796Y-46742331D01*
X108594091Y-46607483D01*
X108600500Y-46547873D01*
X108600499Y-46482529D01*
X108614013Y-46426237D01*
X108690568Y-46275992D01*
X108763553Y-46051368D01*
X108763986Y-46048632D01*
X108800500Y-45818097D01*
X108800500Y-45581902D01*
X108763553Y-45348631D01*
X108749605Y-45305705D01*
X108690568Y-45124008D01*
X108649720Y-45043840D01*
X108614014Y-44973761D01*
X108600499Y-44917466D01*
X108600499Y-44852129D01*
X108600498Y-44852123D01*
X108594091Y-44792516D01*
X108543797Y-44657671D01*
X108543793Y-44657664D01*
X108457547Y-44542455D01*
X108457544Y-44542452D01*
X108342335Y-44456206D01*
X108342328Y-44456202D01*
X108207482Y-44405908D01*
X108207483Y-44405908D01*
X108147883Y-44399501D01*
X108147881Y-44399500D01*
X108147873Y-44399500D01*
X108147865Y-44399500D01*
X108082530Y-44399500D01*
X108026235Y-44385985D01*
X107875996Y-44309433D01*
X107651368Y-44236446D01*
X107418097Y-44199500D01*
X107418092Y-44199500D01*
X105772889Y-44199500D01*
X105705850Y-44179815D01*
X105685208Y-44163181D01*
X105076819Y-43554792D01*
X105043334Y-43493469D01*
X105040500Y-43467111D01*
X105040500Y-41672889D01*
X105060185Y-41605850D01*
X105076819Y-41585208D01*
X109425208Y-37236819D01*
X109486531Y-37203334D01*
X109512889Y-37200500D01*
X201427111Y-37200500D01*
X201494150Y-37220185D01*
G37*
%TD.AperFunction*%
%TA.AperFunction,Conductor*%
G36*
X108608118Y-71606816D02*
G01*
X108630477Y-71608519D01*
X108640997Y-71616470D01*
X108653647Y-71620185D01*
X108668326Y-71637126D01*
X108686217Y-71650648D01*
X108690768Y-71663025D01*
X108699402Y-71672989D01*
X108702592Y-71695178D01*
X108710332Y-71716225D01*
X108707469Y-71729096D01*
X108709346Y-71742147D01*
X108700032Y-71762541D01*
X108695165Y-71784428D01*
X108682207Y-71801572D01*
X108680321Y-71805703D01*
X108675643Y-71810257D01*
X108673884Y-71812585D01*
X108666193Y-71820204D01*
X108662218Y-71822861D01*
X108522861Y-71962218D01*
X108522858Y-71962221D01*
X108522672Y-71962406D01*
X108522564Y-71962514D01*
X108189780Y-72295299D01*
X107862221Y-72622858D01*
X107862218Y-72622861D01*
X107818848Y-72666231D01*
X107722859Y-72762219D01*
X107613371Y-72926079D01*
X107613366Y-72926089D01*
X107560038Y-73054835D01*
X107537950Y-73108159D01*
X107537949Y-73108163D01*
X107537949Y-73108164D01*
X107530962Y-73143290D01*
X107530962Y-73143291D01*
X107499500Y-73301456D01*
X107499500Y-82585218D01*
X107479815Y-82652257D01*
X107427011Y-82698012D01*
X107357853Y-82707956D01*
X107294297Y-82678931D01*
X107287819Y-82672899D01*
X98325569Y-73710649D01*
X98310865Y-73683721D01*
X98294273Y-73657903D01*
X98293381Y-73651702D01*
X98292084Y-73649326D01*
X98289250Y-73622968D01*
X98289250Y-73558496D01*
X98308935Y-73491457D01*
X98325569Y-73470815D01*
X98353857Y-73442527D01*
X98433267Y-73363117D01*
X98458432Y-73328479D01*
X98513761Y-73285814D01*
X98583375Y-73279835D01*
X98645170Y-73312440D01*
X98659065Y-73328477D01*
X98684233Y-73363117D01*
X98851240Y-73530124D01*
X99042317Y-73668950D01*
X99124156Y-73710649D01*
X99252753Y-73776173D01*
X99252755Y-73776173D01*
X99252758Y-73776175D01*
X99322215Y-73798743D01*
X99477381Y-73849160D01*
X99710653Y-73886107D01*
X99710658Y-73886107D01*
X99946847Y-73886107D01*
X100180118Y-73849160D01*
X100404742Y-73776175D01*
X100615183Y-73668950D01*
X100806260Y-73530124D01*
X100973267Y-73363117D01*
X101112093Y-73172040D01*
X101219318Y-72961599D01*
X101292303Y-72736975D01*
X101310377Y-72622861D01*
X101329250Y-72503704D01*
X101329250Y-71724500D01*
X101348935Y-71657461D01*
X101401739Y-71611706D01*
X101453250Y-71600500D01*
X108586608Y-71600500D01*
X108608118Y-71606816D01*
G37*
%TD.AperFunction*%
%TA.AperFunction,Conductor*%
G36*
X136534150Y-42520185D02*
G01*
X136554792Y-42536819D01*
X137743181Y-43725208D01*
X137776666Y-43786531D01*
X137779500Y-43812889D01*
X137779500Y-47100583D01*
X137759815Y-47167622D01*
X137707011Y-47213377D01*
X137637853Y-47223321D01*
X137599216Y-47211073D01*
X137596002Y-47209435D01*
X137595999Y-47209434D01*
X137454792Y-47163553D01*
X137371369Y-47136447D01*
X137371367Y-47136446D01*
X137371365Y-47136446D01*
X137138097Y-47099500D01*
X137138092Y-47099500D01*
X136901908Y-47099500D01*
X136901903Y-47099500D01*
X136668631Y-47136446D01*
X136444003Y-47209433D01*
X136233563Y-47316659D01*
X136042496Y-47455476D01*
X136042491Y-47455480D01*
X135832786Y-47665185D01*
X135771463Y-47698670D01*
X135701771Y-47693686D01*
X135645838Y-47651814D01*
X135644820Y-47650435D01*
X135624517Y-47622490D01*
X135457510Y-47455483D01*
X135266433Y-47316657D01*
X135175800Y-47270477D01*
X135055996Y-47209433D01*
X134831368Y-47136446D01*
X134598097Y-47099500D01*
X134598092Y-47099500D01*
X134361908Y-47099500D01*
X134361903Y-47099500D01*
X134128631Y-47136446D01*
X133904003Y-47209433D01*
X133693566Y-47316657D01*
X133604536Y-47381342D01*
X133502490Y-47455483D01*
X133502488Y-47455485D01*
X133502487Y-47455485D01*
X133335485Y-47622487D01*
X133335485Y-47622488D01*
X133335483Y-47622490D01*
X133288774Y-47686779D01*
X133196657Y-47813566D01*
X133089433Y-48024003D01*
X133016446Y-48248631D01*
X132979500Y-48481902D01*
X132979500Y-48718097D01*
X133016446Y-48951368D01*
X133089433Y-49175996D01*
X133179992Y-49353726D01*
X133196657Y-49386433D01*
X133335483Y-49577510D01*
X133335485Y-49577512D01*
X133443181Y-49685208D01*
X133476666Y-49746531D01*
X133479500Y-49772889D01*
X133479500Y-51778541D01*
X133487252Y-51817510D01*
X133517949Y-51971836D01*
X133523996Y-51986434D01*
X133528007Y-51996119D01*
X133528008Y-51996120D01*
X133593364Y-52153907D01*
X133593371Y-52153920D01*
X133702860Y-52317781D01*
X133702863Y-52317785D01*
X133846537Y-52461459D01*
X133846559Y-52461479D01*
X136119735Y-54734655D01*
X136119764Y-54734686D01*
X136262214Y-54877136D01*
X136262218Y-54877139D01*
X136426079Y-54986628D01*
X136426092Y-54986635D01*
X136554833Y-55039961D01*
X136597744Y-55057735D01*
X136608164Y-55062051D01*
X136704812Y-55081275D01*
X136751529Y-55090568D01*
X136801458Y-55100500D01*
X136801459Y-55100500D01*
X136801460Y-55100500D01*
X136998540Y-55100500D01*
X152434218Y-55100500D01*
X152501257Y-55120185D01*
X152521899Y-55136819D01*
X154363181Y-56978101D01*
X154396666Y-57039424D01*
X154399500Y-57065782D01*
X154399500Y-70934217D01*
X154379815Y-71001256D01*
X154363181Y-71021898D01*
X153221899Y-72163181D01*
X153160576Y-72196666D01*
X153134218Y-72199500D01*
X149514783Y-72199500D01*
X149447744Y-72179815D01*
X149401989Y-72127011D01*
X149392045Y-72057853D01*
X149421070Y-71994297D01*
X149427102Y-71987819D01*
X149877137Y-71537784D01*
X149877137Y-71537783D01*
X149877140Y-71537781D01*
X149986632Y-71373914D01*
X150062052Y-71191835D01*
X150100501Y-70998540D01*
X150100501Y-70801459D01*
X150100501Y-70796349D01*
X150100500Y-70796323D01*
X150100500Y-68501457D01*
X150081275Y-68404813D01*
X150081275Y-68404812D01*
X150062051Y-68308164D01*
X150039961Y-68254834D01*
X150039961Y-68254833D01*
X149986635Y-68126092D01*
X149986628Y-68126079D01*
X149877139Y-67962218D01*
X149877136Y-67962214D01*
X149734686Y-67819764D01*
X149734655Y-67819735D01*
X148981479Y-67066559D01*
X148981459Y-67066537D01*
X148837785Y-66922863D01*
X148837781Y-66922860D01*
X148673920Y-66813371D01*
X148673907Y-66813364D01*
X148551986Y-66762863D01*
X148551978Y-66762860D01*
X148545074Y-66760001D01*
X148491836Y-66737949D01*
X148395188Y-66718724D01*
X148390568Y-66717805D01*
X148298544Y-66699500D01*
X148298541Y-66699500D01*
X137201459Y-66699500D01*
X137201455Y-66699500D01*
X137109431Y-66717805D01*
X137109428Y-66717805D01*
X137104812Y-66718724D01*
X137008164Y-66737949D01*
X136954926Y-66760001D01*
X136948023Y-66762860D01*
X136948013Y-66762863D01*
X136826092Y-66813364D01*
X136826079Y-66813371D01*
X136662219Y-66922859D01*
X136592540Y-66992538D01*
X136522861Y-67062218D01*
X136522858Y-67062221D01*
X133842221Y-69742858D01*
X133842218Y-69742861D01*
X133772538Y-69812540D01*
X133702859Y-69882219D01*
X133593371Y-70046080D01*
X133593364Y-70046093D01*
X133556339Y-70135481D01*
X133556339Y-70135483D01*
X133535846Y-70184959D01*
X133535845Y-70184961D01*
X133517949Y-70228164D01*
X133517947Y-70228170D01*
X133479500Y-70421456D01*
X133479500Y-71227111D01*
X133459815Y-71294150D01*
X133443181Y-71314792D01*
X133335485Y-71422487D01*
X133335485Y-71422488D01*
X133335483Y-71422490D01*
X133291661Y-71482806D01*
X133196657Y-71613566D01*
X133089433Y-71824003D01*
X133016446Y-72048631D01*
X132979500Y-72281902D01*
X132979500Y-72518097D01*
X133016446Y-72751368D01*
X133089433Y-72975996D01*
X133174675Y-73143291D01*
X133196657Y-73186433D01*
X133335483Y-73377510D01*
X133502490Y-73544517D01*
X133693567Y-73683343D01*
X133792991Y-73734002D01*
X133904003Y-73790566D01*
X133904005Y-73790566D01*
X133904008Y-73790568D01*
X133977417Y-73814420D01*
X134128631Y-73863553D01*
X134361903Y-73900500D01*
X134361908Y-73900500D01*
X134598097Y-73900500D01*
X134831368Y-73863553D01*
X134875665Y-73849160D01*
X135055992Y-73790568D01*
X135266433Y-73683343D01*
X135457510Y-73544517D01*
X135624517Y-73377510D01*
X135649682Y-73342872D01*
X135705011Y-73300207D01*
X135774625Y-73294228D01*
X135836420Y-73326833D01*
X135850315Y-73342870D01*
X135875483Y-73377510D01*
X136042490Y-73544517D01*
X136233567Y-73683343D01*
X136332991Y-73734002D01*
X136444003Y-73790566D01*
X136444005Y-73790566D01*
X136444008Y-73790568D01*
X136517417Y-73814420D01*
X136668631Y-73863553D01*
X136901903Y-73900500D01*
X136901908Y-73900500D01*
X137138097Y-73900500D01*
X137371368Y-73863553D01*
X137415665Y-73849160D01*
X137595992Y-73790568D01*
X137806433Y-73683343D01*
X137902614Y-73613462D01*
X137914473Y-73609231D01*
X137923989Y-73600986D01*
X137946754Y-73597712D01*
X137968420Y-73589982D01*
X137980684Y-73592833D01*
X137993147Y-73591042D01*
X138014070Y-73600597D01*
X138036474Y-73605807D01*
X138045249Y-73614836D01*
X138056703Y-73620067D01*
X138069138Y-73639417D01*
X138085169Y-73655912D01*
X138088573Y-73669658D01*
X138094477Y-73678845D01*
X138099500Y-73713780D01*
X138099500Y-73927111D01*
X138079815Y-73994150D01*
X138063181Y-74014792D01*
X137514792Y-74563181D01*
X137453469Y-74596666D01*
X137427111Y-74599500D01*
X129572889Y-74599500D01*
X129505850Y-74579815D01*
X129485208Y-74563181D01*
X129034207Y-74112180D01*
X129023594Y-74092743D01*
X129009094Y-74076010D01*
X129007177Y-74062678D01*
X129000722Y-74050857D01*
X129002301Y-74028770D01*
X128999150Y-74006852D01*
X129004745Y-73994600D01*
X129005706Y-73981165D01*
X129018976Y-73963438D01*
X129028175Y-73943296D01*
X129039506Y-73936013D01*
X129047578Y-73925232D01*
X129068323Y-73917494D01*
X129086953Y-73905522D01*
X129108871Y-73902370D01*
X129113042Y-73900815D01*
X129121888Y-73900499D01*
X129271906Y-73900499D01*
X129271918Y-73900500D01*
X129281908Y-73900500D01*
X129528082Y-73900500D01*
X129528094Y-73900499D01*
X130200002Y-73900499D01*
X130200008Y-73900499D01*
X130302797Y-73889999D01*
X130469334Y-73834814D01*
X130618656Y-73742712D01*
X130742712Y-73618656D01*
X130834814Y-73469334D01*
X130889999Y-73302797D01*
X130900500Y-73200009D01*
X130900500Y-72400500D01*
X130900500Y-61024500D01*
X130920185Y-60957461D01*
X130972989Y-60911706D01*
X131024500Y-60900500D01*
X151418097Y-60900500D01*
X151651368Y-60863553D01*
X151875992Y-60790568D01*
X152086433Y-60683343D01*
X152277510Y-60544517D01*
X152444517Y-60377510D01*
X152583343Y-60186433D01*
X152690568Y-59975992D01*
X152763553Y-59751368D01*
X152767887Y-59724003D01*
X152800500Y-59518097D01*
X152800500Y-59281902D01*
X152763553Y-59048631D01*
X152709847Y-58883342D01*
X152690568Y-58824008D01*
X152690566Y-58824005D01*
X152690566Y-58824003D01*
X152614568Y-58674850D01*
X152583343Y-58613567D01*
X152444517Y-58422490D01*
X152277510Y-58255483D01*
X152086433Y-58116657D01*
X151875996Y-58009433D01*
X151651368Y-57936446D01*
X151418097Y-57899500D01*
X151418092Y-57899500D01*
X143618092Y-57899500D01*
X131024500Y-57899500D01*
X130957461Y-57879815D01*
X130911706Y-57827011D01*
X130900500Y-57775500D01*
X130900500Y-48474313D01*
X130900499Y-48474295D01*
X130900499Y-47799998D01*
X130900498Y-47799981D01*
X130889999Y-47697203D01*
X130889998Y-47697200D01*
X130886545Y-47686779D01*
X130834814Y-47530666D01*
X130742712Y-47381344D01*
X130618656Y-47257288D01*
X130493052Y-47179815D01*
X130469336Y-47165187D01*
X130469331Y-47165185D01*
X130412261Y-47146274D01*
X130302797Y-47110001D01*
X130302795Y-47110000D01*
X130200016Y-47099500D01*
X130200009Y-47099500D01*
X129518094Y-47099500D01*
X129518092Y-47099500D01*
X129281908Y-47099500D01*
X129281904Y-47099500D01*
X128599998Y-47099500D01*
X128599980Y-47099501D01*
X128497203Y-47110000D01*
X128497200Y-47110001D01*
X128330668Y-47165185D01*
X128330663Y-47165187D01*
X128181342Y-47257289D01*
X128057289Y-47381342D01*
X127965187Y-47530663D01*
X127965186Y-47530666D01*
X127910001Y-47697203D01*
X127910001Y-47697204D01*
X127910000Y-47697204D01*
X127899500Y-47799983D01*
X127899500Y-72678111D01*
X127879815Y-72745150D01*
X127827011Y-72790905D01*
X127757853Y-72800849D01*
X127694297Y-72771824D01*
X127687819Y-72765792D01*
X126477511Y-71555484D01*
X126453149Y-71537784D01*
X126286434Y-71416657D01*
X126242550Y-71394297D01*
X126075996Y-71309433D01*
X125851368Y-71236446D01*
X125620015Y-71199803D01*
X125556880Y-71169873D01*
X125519949Y-71110562D01*
X125520947Y-71040699D01*
X125542307Y-71001926D01*
X125541653Y-71001451D01*
X125544514Y-70997512D01*
X125544517Y-70997510D01*
X125683343Y-70806433D01*
X125790568Y-70595992D01*
X125863553Y-70371368D01*
X125869437Y-70334217D01*
X125900500Y-70138097D01*
X125900500Y-42624500D01*
X125920185Y-42557461D01*
X125972989Y-42511706D01*
X126024500Y-42500500D01*
X136467111Y-42500500D01*
X136534150Y-42520185D01*
G37*
%TD.AperFunction*%
%TA.AperFunction,Conductor*%
G36*
X173694150Y-41620185D02*
G01*
X173714792Y-41636819D01*
X174823181Y-42745208D01*
X174856666Y-42806531D01*
X174859500Y-42832889D01*
X174859500Y-47257157D01*
X174839815Y-47324196D01*
X174787011Y-47369951D01*
X174717853Y-47379895D01*
X174662615Y-47357475D01*
X174606436Y-47316659D01*
X174606435Y-47316658D01*
X174606433Y-47316657D01*
X174489658Y-47257157D01*
X174395996Y-47209433D01*
X174171368Y-47136446D01*
X173938097Y-47099500D01*
X173938092Y-47099500D01*
X173701908Y-47099500D01*
X173701903Y-47099500D01*
X173468631Y-47136446D01*
X173244003Y-47209433D01*
X173033566Y-47316657D01*
X172944536Y-47381342D01*
X172842490Y-47455483D01*
X172842488Y-47455485D01*
X172842487Y-47455485D01*
X172675484Y-47622488D01*
X172674648Y-47623639D01*
X172650912Y-47656310D01*
X172650318Y-47657127D01*
X172594987Y-47699792D01*
X172525374Y-47705771D01*
X172463579Y-47673165D01*
X172449682Y-47657127D01*
X172449680Y-47657124D01*
X172424517Y-47622490D01*
X172257510Y-47455483D01*
X172066433Y-47316657D01*
X171975800Y-47270477D01*
X171855996Y-47209433D01*
X171631368Y-47136446D01*
X171398097Y-47099500D01*
X171398092Y-47099500D01*
X171161908Y-47099500D01*
X171161903Y-47099500D01*
X170928631Y-47136446D01*
X170704003Y-47209433D01*
X170493566Y-47316657D01*
X170404536Y-47381342D01*
X170302490Y-47455483D01*
X170302488Y-47455485D01*
X170302487Y-47455485D01*
X170135485Y-47622487D01*
X170135485Y-47622488D01*
X170135483Y-47622490D01*
X170088774Y-47686779D01*
X169996657Y-47813566D01*
X169889433Y-48024003D01*
X169816446Y-48248631D01*
X169779500Y-48481902D01*
X169779500Y-48718097D01*
X169816446Y-48951368D01*
X169889433Y-49175996D01*
X169979992Y-49353726D01*
X169996657Y-49386433D01*
X170135483Y-49577510D01*
X170135485Y-49577512D01*
X170243181Y-49685208D01*
X170276666Y-49746531D01*
X170279500Y-49772889D01*
X170279500Y-53647111D01*
X170259815Y-53714150D01*
X170243181Y-53734792D01*
X170155485Y-53822487D01*
X170155485Y-53822488D01*
X170155483Y-53822490D01*
X170095862Y-53904550D01*
X170016657Y-54013566D01*
X169909433Y-54224003D01*
X169836446Y-54448631D01*
X169799500Y-54681902D01*
X169799500Y-54918097D01*
X169836446Y-55151368D01*
X169909433Y-55375996D01*
X170016657Y-55586433D01*
X170155483Y-55777510D01*
X170322490Y-55944517D01*
X170513567Y-56083343D01*
X170513569Y-56083344D01*
X170525681Y-56089516D01*
X170576477Y-56137491D01*
X170593271Y-56205312D01*
X170570733Y-56271447D01*
X170525681Y-56310484D01*
X170513569Y-56316655D01*
X170418028Y-56386070D01*
X170322490Y-56455483D01*
X170322488Y-56455485D01*
X170322487Y-56455485D01*
X170155485Y-56622487D01*
X170155485Y-56622488D01*
X170155483Y-56622490D01*
X170095862Y-56704550D01*
X170016657Y-56813566D01*
X169909433Y-57024003D01*
X169836446Y-57248631D01*
X169799500Y-57481902D01*
X169799500Y-57718097D01*
X169836446Y-57951368D01*
X169909433Y-58175996D01*
X170011921Y-58377139D01*
X170016657Y-58386433D01*
X170155483Y-58577510D01*
X170155485Y-58577512D01*
X170263181Y-58685208D01*
X170296666Y-58746531D01*
X170299500Y-58772889D01*
X170299500Y-63608701D01*
X170297117Y-63632893D01*
X170279500Y-63721456D01*
X170279500Y-71227111D01*
X170259815Y-71294150D01*
X170243181Y-71314792D01*
X170135485Y-71422487D01*
X170135485Y-71422488D01*
X170135483Y-71422490D01*
X170091661Y-71482806D01*
X169996657Y-71613566D01*
X169889433Y-71824003D01*
X169816446Y-72048631D01*
X169779500Y-72281902D01*
X169779500Y-72518097D01*
X169816446Y-72751368D01*
X169889433Y-72975996D01*
X169974675Y-73143291D01*
X169996657Y-73186433D01*
X170135483Y-73377510D01*
X170302490Y-73544517D01*
X170493567Y-73683343D01*
X170592991Y-73734002D01*
X170704003Y-73790566D01*
X170704005Y-73790566D01*
X170704008Y-73790568D01*
X170777417Y-73814420D01*
X170928631Y-73863553D01*
X171161903Y-73900500D01*
X171161908Y-73900500D01*
X171398097Y-73900500D01*
X171631368Y-73863553D01*
X171675665Y-73849160D01*
X171855992Y-73790568D01*
X172066433Y-73683343D01*
X172257510Y-73544517D01*
X172424517Y-73377510D01*
X172449682Y-73342872D01*
X172505011Y-73300207D01*
X172574625Y-73294228D01*
X172636420Y-73326833D01*
X172650315Y-73342870D01*
X172675483Y-73377510D01*
X172842490Y-73544517D01*
X173033567Y-73683343D01*
X173132991Y-73734002D01*
X173244003Y-73790566D01*
X173244005Y-73790566D01*
X173244008Y-73790568D01*
X173317417Y-73814420D01*
X173468631Y-73863553D01*
X173701903Y-73900500D01*
X173701908Y-73900500D01*
X173938097Y-73900500D01*
X174171368Y-73863553D01*
X174215665Y-73849160D01*
X174395992Y-73790568D01*
X174606433Y-73683343D01*
X174662614Y-73642524D01*
X174728420Y-73619044D01*
X174796474Y-73634869D01*
X174845169Y-73684974D01*
X174859500Y-73742842D01*
X174859500Y-74467111D01*
X174850855Y-74496551D01*
X174844332Y-74526538D01*
X174840577Y-74531553D01*
X174839815Y-74534150D01*
X174823181Y-74554792D01*
X174816622Y-74561351D01*
X174755299Y-74594836D01*
X174728941Y-74597670D01*
X166575269Y-74597670D01*
X166508230Y-74577985D01*
X166487588Y-74561351D01*
X166038418Y-74112181D01*
X166004933Y-74050858D01*
X166009917Y-73981166D01*
X166051789Y-73925233D01*
X166117253Y-73900816D01*
X166126099Y-73900500D01*
X166328082Y-73900500D01*
X166328094Y-73900499D01*
X167000002Y-73900499D01*
X167000008Y-73900499D01*
X167102797Y-73889999D01*
X167269334Y-73834814D01*
X167418656Y-73742712D01*
X167542712Y-73618656D01*
X167634814Y-73469334D01*
X167689999Y-73302797D01*
X167700500Y-73200009D01*
X167700500Y-72400500D01*
X167700500Y-59281908D01*
X167700500Y-48481908D01*
X167700500Y-48474313D01*
X167700499Y-48474295D01*
X167700499Y-47799998D01*
X167700498Y-47799981D01*
X167689999Y-47697203D01*
X167689998Y-47697200D01*
X167686545Y-47686779D01*
X167634814Y-47530666D01*
X167542712Y-47381344D01*
X167418656Y-47257288D01*
X167293052Y-47179815D01*
X167269336Y-47165187D01*
X167269331Y-47165185D01*
X167212261Y-47146274D01*
X167102797Y-47110001D01*
X167102795Y-47110000D01*
X167000016Y-47099500D01*
X167000009Y-47099500D01*
X166318094Y-47099500D01*
X166318092Y-47099500D01*
X166081908Y-47099500D01*
X166081904Y-47099500D01*
X165399998Y-47099500D01*
X165399980Y-47099501D01*
X165297203Y-47110000D01*
X165297200Y-47110001D01*
X165130668Y-47165185D01*
X165130663Y-47165187D01*
X164981342Y-47257289D01*
X164857289Y-47381342D01*
X164765187Y-47530663D01*
X164765186Y-47530666D01*
X164710001Y-47697203D01*
X164710001Y-47697204D01*
X164710000Y-47697204D01*
X164699500Y-47799983D01*
X164699500Y-72473901D01*
X164679815Y-72540940D01*
X164627011Y-72586695D01*
X164557853Y-72596639D01*
X164494297Y-72567614D01*
X164487819Y-72561582D01*
X163181721Y-71255484D01*
X163166626Y-71244517D01*
X162990644Y-71116657D01*
X162939574Y-71090635D01*
X162888779Y-71042661D01*
X162871984Y-70974840D01*
X162894522Y-70908705D01*
X162895479Y-70907366D01*
X162983343Y-70786433D01*
X163090568Y-70575992D01*
X163163553Y-70351368D01*
X163171512Y-70301118D01*
X163200500Y-70118097D01*
X163200500Y-41724500D01*
X163220185Y-41657461D01*
X163272989Y-41611706D01*
X163324500Y-41600500D01*
X173627111Y-41600500D01*
X173694150Y-41620185D01*
G37*
%TD.AperFunction*%
%TA.AperFunction,Conductor*%
G36*
X220442539Y-32520185D02*
G01*
X220488294Y-32572989D01*
X220499500Y-32624500D01*
X220499500Y-108375500D01*
X220479815Y-108442539D01*
X220427011Y-108488294D01*
X220375500Y-108499500D01*
X81624500Y-108499500D01*
X81557461Y-108479815D01*
X81511706Y-108427011D01*
X81500500Y-108375500D01*
X81500500Y-88281902D01*
X83899500Y-88281902D01*
X83899500Y-93598097D01*
X83936446Y-93831368D01*
X84009433Y-94055996D01*
X84116657Y-94266433D01*
X84255483Y-94457510D01*
X84422490Y-94624517D01*
X84613567Y-94763343D01*
X84712991Y-94814002D01*
X84824003Y-94870566D01*
X84824005Y-94870566D01*
X84824008Y-94870568D01*
X84863935Y-94883541D01*
X85048631Y-94943553D01*
X85281903Y-94980500D01*
X85281908Y-94980500D01*
X85518092Y-94980500D01*
X109207111Y-94980500D01*
X109274150Y-95000185D01*
X109294792Y-95016819D01*
X116722490Y-102444517D01*
X116913566Y-102583343D01*
X117012992Y-102634003D01*
X117124003Y-102690566D01*
X117124005Y-102690566D01*
X117124008Y-102690568D01*
X117244412Y-102729689D01*
X117348631Y-102763553D01*
X117581903Y-102800500D01*
X117581908Y-102800500D01*
X120818097Y-102800500D01*
X121051368Y-102763553D01*
X121275992Y-102690568D01*
X121486433Y-102583343D01*
X121677510Y-102444517D01*
X121844517Y-102277510D01*
X121983343Y-102086433D01*
X122090568Y-101875992D01*
X122163553Y-101651368D01*
X122200500Y-101418097D01*
X122200500Y-101181902D01*
X122163553Y-100948631D01*
X122090566Y-100724003D01*
X122011223Y-100568285D01*
X121998327Y-100499616D01*
X122024603Y-100434875D01*
X122081710Y-100394618D01*
X122151515Y-100391626D01*
X122209389Y-100424309D01*
X127719735Y-105934655D01*
X127719764Y-105934686D01*
X127862214Y-106077136D01*
X127862218Y-106077139D01*
X128026079Y-106186628D01*
X128026092Y-106186635D01*
X128154833Y-106239961D01*
X128197744Y-106257735D01*
X128208164Y-106262051D01*
X128304812Y-106281275D01*
X128353135Y-106290887D01*
X128401458Y-106300500D01*
X128401459Y-106300500D01*
X185698542Y-106300500D01*
X185729566Y-106294328D01*
X185795188Y-106281275D01*
X185891836Y-106262051D01*
X185945165Y-106239961D01*
X186073914Y-106186632D01*
X186237782Y-106077139D01*
X186377139Y-105937782D01*
X186377140Y-105937779D01*
X186384206Y-105930714D01*
X186384208Y-105930710D01*
X193578101Y-98736819D01*
X193639424Y-98703334D01*
X193665782Y-98700500D01*
X207798542Y-98700500D01*
X207829566Y-98694328D01*
X207895188Y-98681275D01*
X207991836Y-98662051D01*
X208045165Y-98639961D01*
X208173914Y-98586632D01*
X208337782Y-98477139D01*
X208477139Y-98337782D01*
X208477139Y-98337780D01*
X208487347Y-98327573D01*
X208487348Y-98327570D01*
X209477140Y-97337781D01*
X209586632Y-97173914D01*
X209662052Y-96991835D01*
X209700501Y-96798540D01*
X209700501Y-96601459D01*
X209700501Y-96596349D01*
X209700500Y-96596323D01*
X209700500Y-95940199D01*
X209720185Y-95873160D01*
X209729471Y-95860664D01*
X209855048Y-95687820D01*
X209855047Y-95687820D01*
X209855051Y-95687816D01*
X209951557Y-95498412D01*
X210017246Y-95296243D01*
X210050500Y-95086287D01*
X210050500Y-94873713D01*
X210017246Y-94663757D01*
X209951557Y-94461588D01*
X209855051Y-94272184D01*
X209855049Y-94272181D01*
X209855048Y-94272179D01*
X209730109Y-94100213D01*
X209579786Y-93949890D01*
X209407820Y-93824951D01*
X209218414Y-93728444D01*
X209218413Y-93728443D01*
X209218412Y-93728443D01*
X209016243Y-93662754D01*
X209016241Y-93662753D01*
X209016240Y-93662753D01*
X208854957Y-93637208D01*
X208806287Y-93629500D01*
X208593713Y-93629500D01*
X208545042Y-93637208D01*
X208383760Y-93662753D01*
X208181585Y-93728444D01*
X207992179Y-93824951D01*
X207820213Y-93949890D01*
X207669890Y-94100213D01*
X207544949Y-94272182D01*
X207540484Y-94280946D01*
X207492509Y-94331742D01*
X207424688Y-94348536D01*
X207358553Y-94325998D01*
X207319516Y-94280946D01*
X207315050Y-94272182D01*
X207190109Y-94100213D01*
X207039786Y-93949890D01*
X206867820Y-93824951D01*
X206867115Y-93824591D01*
X206859054Y-93820485D01*
X206808259Y-93772512D01*
X206791463Y-93704692D01*
X206813999Y-93638556D01*
X206859054Y-93599515D01*
X206867816Y-93595051D01*
X206889789Y-93579086D01*
X207039786Y-93470109D01*
X207039788Y-93470106D01*
X207039792Y-93470104D01*
X207190104Y-93319792D01*
X207190106Y-93319788D01*
X207190109Y-93319786D01*
X207315048Y-93147820D01*
X207315047Y-93147820D01*
X207315051Y-93147816D01*
X207411557Y-92958412D01*
X207477246Y-92756243D01*
X207510500Y-92546287D01*
X207510500Y-92333713D01*
X207477246Y-92123757D01*
X207411557Y-91921588D01*
X207315051Y-91732184D01*
X207315049Y-91732181D01*
X207315048Y-91732179D01*
X207190109Y-91560213D01*
X207039786Y-91409890D01*
X206867820Y-91284951D01*
X206867115Y-91284591D01*
X206859054Y-91280485D01*
X206808259Y-91232512D01*
X206791463Y-91164692D01*
X206813999Y-91098556D01*
X206859054Y-91059515D01*
X206867816Y-91055051D01*
X206947966Y-90996819D01*
X207039786Y-90930109D01*
X207039788Y-90930106D01*
X207039792Y-90930104D01*
X207190104Y-90779792D01*
X207190106Y-90779788D01*
X207190109Y-90779786D01*
X207315048Y-90607820D01*
X207315047Y-90607820D01*
X207315051Y-90607816D01*
X207411557Y-90418412D01*
X207477246Y-90216243D01*
X207510500Y-90006287D01*
X207510500Y-89793713D01*
X207477246Y-89583757D01*
X207411557Y-89381588D01*
X207315051Y-89192184D01*
X207315049Y-89192181D01*
X207315048Y-89192179D01*
X207190109Y-89020213D01*
X207039786Y-88869890D01*
X206867820Y-88744951D01*
X206867115Y-88744591D01*
X206859054Y-88740485D01*
X206808259Y-88692512D01*
X206791463Y-88624692D01*
X206813999Y-88558556D01*
X206859054Y-88519515D01*
X206867816Y-88515051D01*
X206947966Y-88456819D01*
X207039786Y-88390109D01*
X207039788Y-88390106D01*
X207039792Y-88390104D01*
X207190104Y-88239792D01*
X207236976Y-88175278D01*
X207292306Y-88132611D01*
X207361919Y-88126632D01*
X207423714Y-88159237D01*
X207437611Y-88175274D01*
X207555483Y-88337510D01*
X207722490Y-88504517D01*
X207913567Y-88643343D01*
X207977821Y-88676082D01*
X208124003Y-88750566D01*
X208124005Y-88750566D01*
X208124008Y-88750568D01*
X208244412Y-88789689D01*
X208348631Y-88823553D01*
X208581903Y-88860500D01*
X208581908Y-88860500D01*
X212058097Y-88860500D01*
X212291368Y-88823553D01*
X212515992Y-88750568D01*
X212726434Y-88643343D01*
X212917510Y-88504517D01*
X216744518Y-84677510D01*
X216883343Y-84486433D01*
X216990568Y-84275992D01*
X217063553Y-84051368D01*
X217081159Y-83940208D01*
X217100500Y-83818097D01*
X217100500Y-49081902D01*
X217063553Y-48848631D01*
X217000224Y-48653726D01*
X216990568Y-48624008D01*
X216990566Y-48624005D01*
X216990566Y-48624003D01*
X216934205Y-48513389D01*
X216900776Y-48447781D01*
X216883343Y-48413566D01*
X216744517Y-48222490D01*
X203077510Y-34555483D01*
X202886434Y-34416657D01*
X202675996Y-34309433D01*
X202451368Y-34236446D01*
X202218097Y-34199500D01*
X202218092Y-34199500D01*
X108958092Y-34199500D01*
X108721908Y-34199500D01*
X108721903Y-34199500D01*
X108488631Y-34236446D01*
X108264003Y-34309433D01*
X108053566Y-34416657D01*
X107944550Y-34495862D01*
X107862490Y-34555483D01*
X107862488Y-34555485D01*
X107862487Y-34555485D01*
X102954792Y-39463181D01*
X102893469Y-39496666D01*
X102867111Y-39499500D01*
X98341903Y-39499500D01*
X98108631Y-39536446D01*
X97884003Y-39609433D01*
X97673566Y-39716657D01*
X97629557Y-39748632D01*
X97482490Y-39855483D01*
X97482488Y-39855485D01*
X97482487Y-39855485D01*
X97315485Y-40022487D01*
X97315485Y-40022488D01*
X97315483Y-40022490D01*
X97255862Y-40104550D01*
X97176657Y-40213566D01*
X97069433Y-40424003D01*
X96996446Y-40648631D01*
X96959500Y-40881902D01*
X96959500Y-41118097D01*
X96996446Y-41351368D01*
X97069433Y-41575996D01*
X97176657Y-41786433D01*
X97315483Y-41977510D01*
X97482490Y-42144517D01*
X97673567Y-42283343D01*
X97704498Y-42299103D01*
X97884003Y-42390566D01*
X97884005Y-42390566D01*
X97884008Y-42390568D01*
X98004412Y-42429689D01*
X98108631Y-42463553D01*
X98341903Y-42500500D01*
X98341908Y-42500500D01*
X101915500Y-42500500D01*
X101982539Y-42520185D01*
X102028294Y-42572989D01*
X102039500Y-42624500D01*
X102039500Y-44258097D01*
X102076446Y-44491368D01*
X102149433Y-44715996D01*
X102252088Y-44917466D01*
X102256657Y-44926434D01*
X102394863Y-45116657D01*
X102395484Y-45117511D01*
X102960292Y-45682319D01*
X102993777Y-45743642D01*
X102988793Y-45813334D01*
X102960292Y-45857681D01*
X101195485Y-47622487D01*
X101195480Y-47622493D01*
X101170315Y-47657129D01*
X101114984Y-47699793D01*
X101045371Y-47705771D01*
X100983577Y-47673163D01*
X100969685Y-47657130D01*
X100944517Y-47622490D01*
X100777510Y-47455483D01*
X100586433Y-47316657D01*
X100495800Y-47270477D01*
X100375996Y-47209433D01*
X100151368Y-47136446D01*
X99918097Y-47099500D01*
X99918092Y-47099500D01*
X99681908Y-47099500D01*
X99681903Y-47099500D01*
X99448631Y-47136446D01*
X99224003Y-47209433D01*
X99013566Y-47316657D01*
X98924536Y-47381342D01*
X98822490Y-47455483D01*
X98822488Y-47455485D01*
X98822486Y-47455486D01*
X98654333Y-47623639D01*
X98593010Y-47657124D01*
X98523318Y-47652140D01*
X98467385Y-47610268D01*
X98466334Y-47608844D01*
X98442697Y-47576310D01*
X98275690Y-47409303D01*
X98084613Y-47270477D01*
X98042221Y-47248877D01*
X97874176Y-47163253D01*
X97649548Y-47090266D01*
X97416277Y-47053320D01*
X97416272Y-47053320D01*
X97180088Y-47053320D01*
X97180083Y-47053320D01*
X96946811Y-47090266D01*
X96722183Y-47163253D01*
X96511745Y-47270477D01*
X96320668Y-47409304D01*
X96073664Y-47656308D01*
X95934837Y-47847385D01*
X95827613Y-48057823D01*
X95754626Y-48282451D01*
X95717680Y-48515722D01*
X95717680Y-48751917D01*
X95754626Y-48985188D01*
X95827613Y-49209816D01*
X95908270Y-49368113D01*
X95934837Y-49420254D01*
X96071371Y-49608176D01*
X96073664Y-49611331D01*
X96223181Y-49760848D01*
X96256666Y-49822171D01*
X96259500Y-49848529D01*
X96259500Y-50558544D01*
X96291208Y-50717949D01*
X96297947Y-50751829D01*
X96297949Y-50751837D01*
X96373364Y-50933907D01*
X96373371Y-50933920D01*
X96482860Y-51097781D01*
X96482863Y-51097785D01*
X96626537Y-51241459D01*
X96626559Y-51241479D01*
X99419735Y-54034655D01*
X99419764Y-54034686D01*
X99562214Y-54177136D01*
X99562218Y-54177139D01*
X99726079Y-54286628D01*
X99726092Y-54286635D01*
X99854833Y-54339961D01*
X99897744Y-54357735D01*
X99908164Y-54362051D01*
X100004812Y-54381275D01*
X100053135Y-54390887D01*
X100101458Y-54400500D01*
X100101459Y-54400500D01*
X100101460Y-54400500D01*
X100298540Y-54400500D01*
X116034218Y-54400500D01*
X116101257Y-54420185D01*
X116121899Y-54436819D01*
X117563181Y-55878101D01*
X117596666Y-55939424D01*
X117599500Y-55965782D01*
X117599500Y-70334217D01*
X117579815Y-70401256D01*
X117563181Y-70421898D01*
X116421899Y-71563181D01*
X116360576Y-71596666D01*
X116334218Y-71599500D01*
X111670551Y-71599500D01*
X111603512Y-71579815D01*
X111557757Y-71527011D01*
X111547813Y-71457853D01*
X111576838Y-71394297D01*
X111597662Y-71375184D01*
X111777510Y-71244517D01*
X111944517Y-71077510D01*
X112083343Y-70886433D01*
X112190568Y-70675992D01*
X112263553Y-70451368D01*
X112276224Y-70371368D01*
X112300500Y-70218097D01*
X112300500Y-69981902D01*
X112263553Y-69748631D01*
X112190566Y-69524003D01*
X112083342Y-69313566D01*
X111944517Y-69122490D01*
X111777510Y-68955483D01*
X111586433Y-68816657D01*
X111375996Y-68709433D01*
X111151368Y-68636446D01*
X110918097Y-68599500D01*
X110918092Y-68599500D01*
X100582052Y-68599500D01*
X100582047Y-68599500D01*
X100348775Y-68636446D01*
X100195310Y-68686311D01*
X100157674Y-68698540D01*
X100151642Y-68700500D01*
X100124147Y-68709433D01*
X99913709Y-68816657D01*
X99722632Y-68955484D01*
X98684234Y-69993882D01*
X98545407Y-70184959D01*
X98486222Y-70301118D01*
X98438183Y-70395397D01*
X98365196Y-70620025D01*
X98328250Y-70853296D01*
X98328250Y-71042764D01*
X98308565Y-71109803D01*
X98255761Y-71155558D01*
X98186603Y-71165502D01*
X98131365Y-71143082D01*
X98075186Y-71102266D01*
X98075185Y-71102265D01*
X98075183Y-71102264D01*
X97989778Y-71058748D01*
X97864746Y-70995040D01*
X97640118Y-70922053D01*
X97406847Y-70885107D01*
X97406842Y-70885107D01*
X97170658Y-70885107D01*
X97170653Y-70885107D01*
X96937381Y-70922053D01*
X96712753Y-70995040D01*
X96502316Y-71102264D01*
X96409261Y-71169873D01*
X96311240Y-71241090D01*
X96311238Y-71241092D01*
X96311237Y-71241092D01*
X96144235Y-71408094D01*
X96144235Y-71408095D01*
X96144233Y-71408097D01*
X96129963Y-71427738D01*
X96005407Y-71599173D01*
X95898183Y-71809610D01*
X95825196Y-72034238D01*
X95788250Y-72267509D01*
X95788250Y-72503704D01*
X95825196Y-72736975D01*
X95898183Y-72961603D01*
X95990758Y-73143290D01*
X96005407Y-73172040D01*
X96144233Y-73363117D01*
X96144235Y-73363119D01*
X96251931Y-73470815D01*
X96285416Y-73532138D01*
X96288250Y-73558496D01*
X96288250Y-74187294D01*
X96291272Y-74202488D01*
X96321323Y-74353564D01*
X96321324Y-74353564D01*
X96326700Y-74380589D01*
X96402114Y-74562657D01*
X96402121Y-74562670D01*
X96511610Y-74726531D01*
X96511613Y-74726535D01*
X96655287Y-74870209D01*
X96655309Y-74870229D01*
X121575690Y-99790610D01*
X121609175Y-99851933D01*
X121604191Y-99921625D01*
X121562319Y-99977558D01*
X121496855Y-100001975D01*
X121431714Y-99988776D01*
X121275996Y-99909433D01*
X121051368Y-99836446D01*
X120818097Y-99799500D01*
X120818092Y-99799500D01*
X118372889Y-99799500D01*
X118305850Y-99779815D01*
X118285208Y-99763181D01*
X110857511Y-92335484D01*
X110855073Y-92333713D01*
X110666434Y-92196657D01*
X110455996Y-92089433D01*
X110231368Y-92016446D01*
X109998097Y-91979500D01*
X109998092Y-91979500D01*
X87024500Y-91979500D01*
X86957461Y-91959815D01*
X86911706Y-91907011D01*
X86900500Y-91855500D01*
X86900500Y-88281902D01*
X86863553Y-88048631D01*
X86790566Y-87824003D01*
X86683342Y-87613566D01*
X86544517Y-87422490D01*
X86377510Y-87255483D01*
X86186433Y-87116657D01*
X86180365Y-87113565D01*
X85975996Y-87009433D01*
X85751368Y-86936446D01*
X85518097Y-86899500D01*
X85518092Y-86899500D01*
X85281908Y-86899500D01*
X85281903Y-86899500D01*
X85048631Y-86936446D01*
X84824003Y-87009433D01*
X84613566Y-87116657D01*
X84562766Y-87153566D01*
X84422490Y-87255483D01*
X84422488Y-87255485D01*
X84422487Y-87255485D01*
X84255485Y-87422487D01*
X84255485Y-87422488D01*
X84255483Y-87422490D01*
X84195862Y-87504550D01*
X84116657Y-87613566D01*
X84009433Y-87824003D01*
X83936446Y-88048631D01*
X83899500Y-88281902D01*
X81500500Y-88281902D01*
X81500500Y-48801902D01*
X83899500Y-48801902D01*
X83899500Y-60518097D01*
X83936446Y-60751368D01*
X84009433Y-60975996D01*
X84048806Y-61053269D01*
X84085985Y-61126238D01*
X84099500Y-61182529D01*
X84099500Y-61247869D01*
X84099501Y-61247876D01*
X84105908Y-61307483D01*
X84156202Y-61442328D01*
X84156206Y-61442335D01*
X84242452Y-61557544D01*
X84242455Y-61557547D01*
X84357664Y-61643793D01*
X84357671Y-61643797D01*
X84492516Y-61694091D01*
X84518419Y-61696875D01*
X84552127Y-61700500D01*
X84617468Y-61700499D01*
X84673763Y-61714013D01*
X84689237Y-61721898D01*
X84824003Y-61790566D01*
X84824005Y-61790566D01*
X84824008Y-61790568D01*
X84944412Y-61829689D01*
X85048631Y-61863553D01*
X85281903Y-61900500D01*
X85281908Y-61900500D01*
X85518097Y-61900500D01*
X85751368Y-61863553D01*
X85975992Y-61790568D01*
X86126237Y-61714013D01*
X86182532Y-61700499D01*
X86247871Y-61700499D01*
X86247872Y-61700499D01*
X86307483Y-61694091D01*
X86442331Y-61643796D01*
X86557546Y-61557546D01*
X86643796Y-61442331D01*
X86694091Y-61307483D01*
X86700499Y-61247886D01*
X86700499Y-61247882D01*
X86700500Y-61247873D01*
X86700499Y-61182529D01*
X86714014Y-61126236D01*
X86790568Y-60975992D01*
X86863553Y-60751368D01*
X86874327Y-60683342D01*
X86900500Y-60518097D01*
X86900500Y-50224500D01*
X86920185Y-50157461D01*
X86972989Y-50111706D01*
X87024500Y-50100500D01*
X90555500Y-50100500D01*
X90622539Y-50120185D01*
X90668294Y-50172989D01*
X90679500Y-50224500D01*
X90679500Y-72474953D01*
X90706723Y-72646833D01*
X90708250Y-72666231D01*
X90708250Y-73185608D01*
X90708251Y-73185626D01*
X90718750Y-73288403D01*
X90718751Y-73288406D01*
X90773935Y-73454938D01*
X90773937Y-73454943D01*
X90793483Y-73486632D01*
X90866038Y-73604263D01*
X90990094Y-73728319D01*
X91139416Y-73820421D01*
X91305953Y-73875606D01*
X91408741Y-73886107D01*
X92080655Y-73886106D01*
X92080669Y-73886107D01*
X92090658Y-73886107D01*
X92336832Y-73886107D01*
X92336844Y-73886106D01*
X93008752Y-73886106D01*
X93008758Y-73886106D01*
X93111547Y-73875606D01*
X93278084Y-73820421D01*
X93427406Y-73728319D01*
X93551462Y-73604263D01*
X93643564Y-73454941D01*
X93698749Y-73288404D01*
X93709250Y-73185616D01*
X93709250Y-72399500D01*
X93709250Y-72267515D01*
X93709250Y-72259920D01*
X93709249Y-72259902D01*
X93709249Y-71585605D01*
X93709248Y-71585588D01*
X93698749Y-71482810D01*
X93698748Y-71482806D01*
X93686794Y-71446731D01*
X93680500Y-71407727D01*
X93680500Y-61024500D01*
X93700185Y-60957461D01*
X93752989Y-60911706D01*
X93804500Y-60900500D01*
X114518097Y-60900500D01*
X114751368Y-60863553D01*
X114975992Y-60790568D01*
X115186433Y-60683343D01*
X115377510Y-60544517D01*
X115544517Y-60377510D01*
X115683343Y-60186433D01*
X115790568Y-59975992D01*
X115863553Y-59751368D01*
X115867887Y-59724003D01*
X115900500Y-59518097D01*
X115900500Y-59281902D01*
X115863553Y-59048631D01*
X115809847Y-58883342D01*
X115790568Y-58824008D01*
X115790566Y-58824005D01*
X115790566Y-58824003D01*
X115714568Y-58674850D01*
X115683343Y-58613567D01*
X115544517Y-58422490D01*
X115377510Y-58255483D01*
X115186433Y-58116657D01*
X114975996Y-58009433D01*
X114751368Y-57936446D01*
X114518097Y-57899500D01*
X114518092Y-57899500D01*
X93804500Y-57899500D01*
X93737461Y-57879815D01*
X93691706Y-57827011D01*
X93680500Y-57775500D01*
X93680500Y-48474313D01*
X93680499Y-48474295D01*
X93680499Y-47799998D01*
X93680498Y-47799981D01*
X93669999Y-47697203D01*
X93669998Y-47697200D01*
X93666545Y-47686779D01*
X93614814Y-47530666D01*
X93522712Y-47381344D01*
X93398656Y-47257288D01*
X93273052Y-47179815D01*
X93249336Y-47165187D01*
X93249331Y-47165185D01*
X93192261Y-47146274D01*
X93082797Y-47110001D01*
X93082795Y-47110000D01*
X92980016Y-47099500D01*
X92980009Y-47099500D01*
X92298094Y-47099500D01*
X92298092Y-47099500D01*
X86118092Y-47099500D01*
X85881908Y-47099500D01*
X85881903Y-47099500D01*
X85648634Y-47136446D01*
X85648631Y-47136447D01*
X85453868Y-47199730D01*
X85424005Y-47209433D01*
X85213565Y-47316657D01*
X85121253Y-47383727D01*
X85022490Y-47455483D01*
X85022488Y-47455484D01*
X85018550Y-47458346D01*
X85018079Y-47457698D01*
X84981160Y-47478369D01*
X84824003Y-47529433D01*
X84613566Y-47636657D01*
X84526669Y-47699792D01*
X84422490Y-47775483D01*
X84422488Y-47775485D01*
X84422487Y-47775485D01*
X84255485Y-47942487D01*
X84255485Y-47942488D01*
X84255483Y-47942490D01*
X84205375Y-48011457D01*
X84116657Y-48133566D01*
X84009433Y-48344003D01*
X83936446Y-48568631D01*
X83899500Y-48801902D01*
X81500500Y-48801902D01*
X81500500Y-32624500D01*
X81520185Y-32557461D01*
X81572989Y-32511706D01*
X81624500Y-32500500D01*
X220375500Y-32500500D01*
X220442539Y-32520185D01*
G37*
%TD.AperFunction*%
%TD*%
M02*
