M48
; DRILL file {KiCad 9.0.0} date 2026-02-09T13:58:06-0300
; FORMAT={-:-/ absolute / metric / decimal}
; #@! TF.CreationDate,2026-02-09T13:58:06-03:00
; #@! TF.GenerationSoftware,Kicad,Pcbnew,9.0.0
; #@! TF.FileFunction,MixedPlating,1,2
FMAT,2
METRIC
; #@! TA.AperFunction,Plated,PTH,ComponentDrill
T1C0.700
; #@! TA.AperFunction,Plated,PTH,ComponentDrill
T2C0.800
; #@! TA.AperFunction,Plated,PTH,ComponentDrill
T3C1.000
; #@! TA.AperFunction,Plated,PTH,ViaDrill
T4C1.100
; #@! TA.AperFunction,Plated,PTH,ComponentDrill
T5C1.100
; #@! TA.AperFunction,Plated,PTH,ComponentDrill
T6C1.200
; #@! TA.AperFunction,Plated,PTH,ComponentDrill
T7C1.300
; #@! TA.AperFunction,Plated,PTH,ViaDrill
T8C3.000
%
G90
G05
T1
X85.4Y-88.4
X85.4Y-93.48
X110.8Y-70.1
X110.8Y-75.18
X124.4Y-70.02
X124.4Y-75.1
X146.9Y-70.0
X146.9Y-75.08
X161.7Y-70.0
X161.7Y-75.08
X182.2Y-46.4
X182.2Y-51.48
X205.0Y-60.3
X210.08Y-60.3
T2
X85.4Y-60.4
X85.4Y-62.9
X107.3Y-45.7
X109.8Y-45.7
T3
X85.4Y-48.92
X85.4Y-54.0
X89.46Y-41.0
X94.54Y-41.0
X98.46Y-41.0
X103.54Y-41.0
X206.16Y-79.74
X206.16Y-82.28
X206.16Y-84.82
X206.16Y-87.36
X206.16Y-89.9
X206.16Y-92.44
X206.16Y-94.98
X208.7Y-79.74
X208.7Y-82.28
X208.7Y-84.82
X208.7Y-87.36
X208.7Y-89.9
X208.7Y-92.44
X208.7Y-94.98
T4
X102.9Y-36.8
X106.1Y-77.8
X106.2Y-67.3
X106.2Y-73.0
X108.7Y-40.6
X110.8Y-77.8
X114.4Y-59.4
X115.8Y-79.0
X120.7Y-101.3
X129.4Y-59.4
X130.6Y-79.0
X134.184Y-91.984
X135.9Y-43.8
X139.2Y-84.5
X139.3Y-87.9
X142.4Y-43.8
X143.5Y-59.4
X145.1Y-98.8
X146.9Y-93.9
X151.3Y-59.4
X155.3Y-82.2
X157.2Y-93.9
X166.2Y-59.4
X171.3Y-54.8
X171.3Y-57.6
X171.3Y-82.2
X171.344Y-91.856
X173.6Y-43.8
X176.5Y-87.9
X176.6Y-54.8
X176.6Y-57.6
X179.2Y-43.8
X201.3Y-70.9
X211.5Y-70.9
T5
X114.419Y-40.087
X114.419Y-44.587
X120.919Y-40.087
X120.919Y-44.587
X151.2Y-40.1
X151.2Y-44.6
X157.7Y-40.1
X157.7Y-44.6
T6
X92.18Y-48.6
X92.209Y-72.386
X94.72Y-48.6
X94.749Y-72.386
X97.26Y-48.6
X97.289Y-72.386
X99.8Y-48.6
X99.829Y-72.386
X102.34Y-48.6
X102.369Y-72.386
X117.7Y-48.6
X117.7Y-76.1
X129.104Y-96.252
X129.4Y-48.6
X129.4Y-72.4
X131.644Y-96.252
X131.94Y-48.6
X131.94Y-72.4
X134.184Y-96.252
X134.48Y-48.6
X134.48Y-72.4
X136.724Y-96.252
X137.02Y-48.6
X137.02Y-72.4
X139.264Y-96.252
X139.56Y-48.6
X139.56Y-72.4
X141.804Y-96.252
X154.469Y-48.598
X154.469Y-76.098
X166.2Y-48.6
X166.2Y-72.4
X166.3Y-96.3
X168.74Y-48.6
X168.74Y-72.4
X168.84Y-96.3
X171.28Y-48.6
X171.28Y-72.4
X171.38Y-96.3
X173.82Y-48.6
X173.82Y-72.4
X173.92Y-96.3
X176.36Y-48.6
X176.36Y-72.4
X176.46Y-96.3
X179.0Y-96.3
X189.2Y-47.9
X189.2Y-73.3
X195.5Y-47.9
X195.5Y-73.3
T7
X207.0Y-48.7
X207.0Y-53.7
T8
X84.0Y-106.0
X84.4Y-35.5
X217.9Y-35.4
X218.0Y-106.0
M30
